<svg xmlns="http://www.w3.org/2000/svg" xmlns:xlink="http://www.w3.org/1999/xlink" width="3000" zoomAndPan="magnify" viewBox="0 0 2250 2250.000011" height="3000" preserveAspectRatio="xMidYMid meet" version="1.0"><defs><g/><clipPath id="cb2d858c9e"><path d="M 0.511719 488 L 2248 488 L 2248 1712 L 0.511719 1712 Z M 0.511719 488 " clip-rule="nonzero"/></clipPath><clipPath id="11965001d5"><path d="M 988.023438 1326.164062 L 1114.585938 1326.164062 L 1114.585938 1357.40625 L 988.023438 1357.40625 Z M 988.023438 1326.164062 " clip-rule="nonzero"/></clipPath><clipPath id="d5c1e3a059"><path d="M 1051.273438 1326.164062 C 1016.339844 1326.164062 988.023438 1333.15625 988.023438 1341.785156 C 988.023438 1350.414062 1016.339844 1357.40625 1051.273438 1357.40625 C 1086.203125 1357.40625 1114.523438 1350.414062 1114.523438 1341.785156 C 1114.523438 1333.15625 1086.203125 1326.164062 1051.273438 1326.164062 Z M 1051.273438 1326.164062 " clip-rule="nonzero"/></clipPath><clipPath id="7673b7ad3a"><path d="M 939 1002.964844 L 1051.164062 1002.964844 L 1051.164062 1341.816406 L 939 1341.816406 Z M 939 1002.964844 " clip-rule="nonzero"/></clipPath><clipPath id="88fe6ced27"><path d="M 1051.273438 1002.964844 L 1163.722656 1002.964844 L 1163.722656 1341.816406 L 1051.273438 1341.816406 Z M 1051.273438 1002.964844 " clip-rule="nonzero"/></clipPath><clipPath id="0a9a7031d2"><path d="M 1505.675781 992.617188 L 1601.96875 992.617188 L 1601.96875 1016.390625 L 1505.675781 1016.390625 Z M 1505.675781 992.617188 " clip-rule="nonzero"/></clipPath><clipPath id="5098e47812"><path d="M 1553.796875 992.617188 C 1527.222656 992.617188 1505.675781 997.941406 1505.675781 1004.503906 C 1505.675781 1011.070312 1527.222656 1016.390625 1553.796875 1016.390625 C 1580.375 1016.390625 1601.917969 1011.070312 1601.917969 1004.503906 C 1601.917969 997.941406 1580.375 992.617188 1553.796875 992.617188 Z M 1553.796875 992.617188 " clip-rule="nonzero"/></clipPath><clipPath id="d9ed69db19"><path d="M 1468.164062 746.722656 L 1553.625 746.722656 L 1553.625 1004.609375 L 1468.164062 1004.609375 Z M 1468.164062 746.722656 " clip-rule="nonzero"/></clipPath><clipPath id="7a00b295a8"><path d="M 1553.796875 746.722656 L 1639.261719 746.722656 L 1639.261719 1004.609375 L 1553.796875 1004.609375 Z M 1553.796875 746.722656 " clip-rule="nonzero"/></clipPath><clipPath id="3711ec95bc"><path d="M 1929.296875 708.691406 L 2002.691406 708.691406 L 2002.691406 726.808594 L 1929.296875 726.808594 Z M 1929.296875 708.691406 " clip-rule="nonzero"/></clipPath><clipPath id="4d97b6e001"><path d="M 1965.972656 708.691406 C 1945.71875 708.691406 1929.296875 712.746094 1929.296875 717.75 C 1929.296875 722.753906 1945.71875 726.808594 1965.972656 726.808594 C 1986.230469 726.808594 2002.652344 722.753906 2002.652344 717.75 C 2002.652344 712.746094 1986.230469 708.691406 1965.972656 708.691406 Z M 1965.972656 708.691406 " clip-rule="nonzero"/></clipPath><clipPath id="613fc6ebb2"><path d="M 1900.703125 522.816406 L 1965.921875 522.816406 L 1965.921875 719.230469 L 1900.703125 719.230469 Z M 1900.703125 522.816406 " clip-rule="nonzero"/></clipPath><clipPath id="ea0262d73f"><path d="M 1961.933594 522.816406 L 2027.152344 522.816406 L 2027.152344 719.230469 L 1961.933594 719.230469 Z M 1961.933594 522.816406 " clip-rule="nonzero"/></clipPath></defs><path fill="#000000" d="M 2247.0625 549.582031 L 589.496094 1760.128906 L 226.136719 1760.128906 L 2247.0625 513.121094 Z M 2247.0625 549.582031 " fill-opacity="1" fill-rule="evenodd"/><path fill="#da9e87" d="M 398.386719 1760.128906 L 414.730469 1760.128906 L 2247.0625 531.5625 L 2247.0625 530.105469 Z M 398.386719 1760.128906 " fill-opacity="1" fill-rule="evenodd"/><path fill="#468b91" d="M 728.335938 1760.128906 L 744.65625 1760.128906 L 2247.0625 571.105469 L 2247.0625 568.921875 Z M 728.335938 1760.128906 " fill-opacity="1" fill-rule="evenodd"/><path fill="#468b91" d="M 63.589844 1760.128906 L 79.929688 1760.128906 L 2247.0625 502.449219 L 2247.0625 500.992188 Z M 63.589844 1760.128906 " fill-opacity="1" fill-rule="evenodd"/><path fill="#468b91" d="M 876.328125 1760.128906 L 892.667969 1760.128906 L 2247.0625 593.671875 L 2247.0625 590.757812 Z M 876.328125 1760.128906 " fill-opacity="1" fill-rule="evenodd"/><g clip-path="url(#cb2d858c9e)"><path fill="#468b91" d="M 0.511719 1702.847656 L 0.511719 1711.605469 L 2247.0625 489.953125 L 2247.0625 488.859375 Z M 0.511719 1702.847656 " fill-opacity="1" fill-rule="evenodd"/></g><g clip-path="url(#11965001d5)"><g clip-path="url(#d5c1e3a059)"><path fill="#737373" d="M 988.023438 1326.164062 L 1114.464844 1326.164062 L 1114.464844 1357.40625 L 988.023438 1357.40625 Z M 988.023438 1326.164062 " fill-opacity="1" fill-rule="nonzero"/></g></g><g clip-path="url(#7673b7ad3a)"><path fill="#ffde59" d="M 1051.988281 1002.964844 C 989.613281 1002.964844 939.050781 1053.53125 939.050781 1115.90625 C 939.050781 1137.078125 944.875 1156.878906 955.011719 1173.8125 L 1051.984375 1341.792969 L 1149.039062 1173.695312 C 1159.125 1156.789062 1164.925781 1137.027344 1164.925781 1115.90625 C 1164.929688 1053.53125 1114.367188 1002.964844 1051.988281 1002.964844 Z M 1051.988281 1153.699219 C 1031.117188 1153.699219 1014.195312 1136.777344 1014.199219 1115.90625 C 1014.199219 1095.035156 1031.121094 1078.113281 1051.988281 1078.113281 C 1072.863281 1078.113281 1089.785156 1095.035156 1089.785156 1115.90625 C 1089.785156 1136.78125 1072.867188 1153.699219 1051.988281 1153.699219 Z M 1051.988281 1153.699219 " fill-opacity="1" fill-rule="nonzero"/></g><g clip-path="url(#88fe6ced27)"><path fill="#ffde59" d="M 1050.554688 1002.964844 C 1112.929688 1002.964844 1163.492188 1053.53125 1163.492188 1115.90625 C 1163.492188 1137.078125 1157.667969 1156.878906 1147.53125 1173.8125 L 1050.558594 1341.792969 L 953.503906 1173.695312 C 943.417969 1156.789062 937.617188 1137.027344 937.617188 1115.90625 C 937.613281 1053.53125 988.175781 1002.964844 1050.554688 1002.964844 Z M 1050.554688 1153.699219 C 1071.425781 1153.699219 1088.347656 1136.777344 1088.34375 1115.90625 C 1088.34375 1095.035156 1071.421875 1078.113281 1050.554688 1078.113281 C 1029.679688 1078.113281 1012.757812 1095.035156 1012.757812 1115.90625 C 1012.757812 1136.78125 1029.679688 1153.699219 1050.554688 1153.699219 Z M 1050.554688 1153.699219 " fill-opacity="1" fill-rule="nonzero"/></g><g clip-path="url(#0a9a7031d2)"><g clip-path="url(#5098e47812)"><path fill="#737373" d="M 1505.675781 992.617188 L 1601.875 992.617188 L 1601.875 1016.390625 L 1505.675781 1016.390625 Z M 1505.675781 992.617188 " fill-opacity="1" fill-rule="nonzero"/></g></g><g clip-path="url(#d9ed69db19)"><path fill="#ff3131" d="M 1554.347656 746.722656 C 1506.890625 746.722656 1468.417969 785.195312 1468.417969 832.652344 C 1468.417969 848.761719 1472.851562 863.824219 1480.5625 876.710938 L 1554.34375 1004.515625 L 1628.183594 876.621094 C 1635.855469 863.757812 1640.269531 848.722656 1640.269531 832.652344 C 1640.273438 785.195312 1601.804688 746.722656 1554.347656 746.722656 Z M 1554.347656 861.40625 C 1538.46875 861.40625 1525.59375 848.53125 1525.59375 832.652344 C 1525.59375 816.773438 1538.46875 803.898438 1554.347656 803.898438 C 1570.230469 803.898438 1583.105469 816.773438 1583.105469 832.652344 C 1583.101562 848.535156 1570.230469 861.40625 1554.347656 861.40625 Z M 1554.347656 861.40625 " fill-opacity="1" fill-rule="nonzero"/></g><g clip-path="url(#7a00b295a8)"><path fill="#00bf63" d="M 1553.238281 746.722656 C 1600.699219 746.722656 1639.167969 785.195312 1639.167969 832.652344 C 1639.167969 848.761719 1634.734375 863.824219 1627.023438 876.710938 L 1553.242188 1004.515625 L 1479.402344 876.621094 C 1471.730469 863.757812 1467.316406 848.722656 1467.316406 832.652344 C 1467.3125 785.195312 1505.78125 746.722656 1553.238281 746.722656 Z M 1553.238281 861.40625 C 1569.121094 861.40625 1581.992188 848.53125 1581.992188 832.652344 C 1581.992188 816.773438 1569.117188 803.898438 1553.238281 803.898438 C 1537.355469 803.898438 1524.484375 816.773438 1524.484375 832.652344 C 1524.484375 848.535156 1537.355469 861.40625 1553.238281 861.40625 Z M 1553.238281 861.40625 " fill-opacity="1" fill-rule="nonzero"/></g><g clip-path="url(#3711ec95bc)"><g clip-path="url(#4d97b6e001)"><path fill="#737373" d="M 1929.296875 708.691406 L 2002.621094 708.691406 L 2002.621094 726.808594 L 1929.296875 726.808594 Z M 1929.296875 708.691406 " fill-opacity="1" fill-rule="nonzero"/></g></g><g clip-path="url(#613fc6ebb2)"><path fill="#ffde59" d="M 1966.390625 522.816406 C 1930.21875 522.816406 1900.894531 552.140625 1900.894531 588.3125 C 1900.894531 600.589844 1904.273438 612.074219 1910.152344 621.894531 L 1966.386719 719.308594 L 2022.667969 621.828125 C 2028.519531 612.023438 2031.882812 600.5625 2031.882812 588.316406 C 2031.882812 552.140625 2002.5625 522.816406 1966.390625 522.816406 Z M 1966.390625 610.230469 C 1954.285156 610.230469 1944.472656 600.417969 1944.476562 588.3125 C 1944.476562 576.210938 1954.289062 566.398438 1966.390625 566.398438 C 1978.496094 566.398438 1988.308594 576.210938 1988.308594 588.3125 C 1988.308594 600.417969 1978.496094 610.230469 1966.390625 610.230469 Z M 1966.390625 610.230469 " fill-opacity="1" fill-rule="nonzero"/></g><g clip-path="url(#ea0262d73f)"><path fill="#ffde59" d="M 1961.511719 522.816406 C 1997.683594 522.816406 2027.007812 552.140625 2027.007812 588.3125 C 2027.007812 600.589844 2023.628906 612.074219 2017.75 621.894531 L 1961.515625 719.308594 L 1905.234375 621.828125 C 1899.382812 612.023438 1896.019531 600.5625 1896.019531 588.316406 C 1896.019531 552.140625 1925.339844 522.816406 1961.511719 522.816406 Z M 1961.511719 610.230469 C 1973.617188 610.230469 1983.429688 600.417969 1983.425781 588.3125 C 1983.425781 576.210938 1973.613281 566.398438 1961.511719 566.398438 C 1949.40625 566.398438 1939.59375 576.210938 1939.59375 588.3125 C 1939.59375 600.417969 1949.40625 610.230469 1961.511719 610.230469 Z M 1961.511719 610.230469 " fill-opacity="1" fill-rule="nonzero"/></g><g fill="#f6f6e9" fill-opacity="1"><g transform="translate(995.67847, 1136.240593)"><g><path d="M 34.46875 -34.796875 L 10.640625 -61.328125 L 6.75 -61.328125 L 6.75 0 L 19 0 L 19 -33.703125 L 34.46875 -17.484375 L 49.921875 -33.703125 L 49.84375 0 L 62.078125 0 L 62.078125 -61.328125 L 58.28125 -61.328125 Z M 34.46875 -34.796875 "/></g></g></g><g fill="#f6f6e9" fill-opacity="1"><g transform="translate(1064.599182, 1136.240593)"><g><path d="M 13.6875 -24.671875 L 19.515625 -24.671875 C 23.140625 -24.671875 26.09375 -21.375 26.1875 -17.984375 C 26.4375 -8.359375 8.953125 -11.90625 3.796875 -14.4375 L 2.453125 -2.203125 C 6.25 -0.59375 15.203125 0.84375 21.203125 0.5 C 32.9375 -0.078125 39.28125 -7.765625 39.03125 -17.984375 C 38.9375 -22.71875 36.828125 -28.046875 32.015625 -30.828125 C 36.90625 -34.046875 38.515625 -37.921875 38.4375 -42.65625 C 38.1875 -52.96875 30.65625 -60.5625 19.765625 -61.234375 C 13.765625 -61.5 7.6875 -60.3125 3.890625 -58.796875 L 5.75 -47.390625 C 10.46875 -49.84375 25.25 -51.53125 25.515625 -42.65625 C 25.59375 -39.1875 22.890625 -37 19.265625 -37 L 13.4375 -37 Z M 13.6875 -24.671875 "/></g></g></g><g fill="#f6f6e9" fill-opacity="1"><g transform="translate(1492.494857, 840.631566)"><g><path d="M 13 -13.125 L 4.015625 -23.140625 L 2.546875 -23.140625 L 2.546875 0 L 7.171875 0 L 7.171875 -12.71875 L 13 -6.59375 L 18.84375 -12.71875 L 18.8125 0 L 23.421875 0 L 23.421875 -23.140625 L 22 -23.140625 Z M 13 -13.125 "/></g></g></g><g fill="#f6f6e9" fill-opacity="1"><g transform="translate(1518.816512, 840.631566)"><g><path d="M 0.953125 -18.203125 L 4.6875 -18.203125 L 4.6875 0 L 9.21875 0 L 9.21875 -22.765625 L 0.953125 -22.765625 Z M 0.953125 -18.203125 "/></g></g></g><g fill="#f6f6e9" fill-opacity="1"><g transform="translate(1530.925853, 840.631566)"><g/></g></g><g fill="#f6f6e9" fill-opacity="1"><g transform="translate(1540.294691, 840.631566)"><g><path d="M 7.625 -24.21875 L 9.9375 -24.21875 L 9.9375 7.6875 L 7.625 7.6875 Z M 7.625 -24.21875 "/></g></g></g><g fill="#f6f6e9" fill-opacity="1"><g transform="translate(1558.171806, 840.631566)"><g/></g></g><g fill="#f6f6e9" fill-opacity="1"><g transform="translate(1567.540648, 840.631566)"><g><path d="M 13 -13.125 L 4.015625 -23.140625 L 2.546875 -23.140625 L 2.546875 0 L 7.171875 0 L 7.171875 -12.71875 L 13 -6.59375 L 18.84375 -12.71875 L 18.8125 0 L 23.421875 0 L 23.421875 -23.140625 L 22 -23.140625 Z M 13 -13.125 "/></g></g></g><g fill="#f6f6e9" fill-opacity="1"><g transform="translate(1593.862304, 840.631566)"><g><path d="M 8.703125 -13.515625 L 0.1875 0 L 15.234375 0 L 15.234375 -4.625 L 8.484375 -4.625 L 12.96875 -11.578125 C 16.796875 -16.890625 14.5625 -22.765625 7.875 -23.109375 C 5.640625 -23.203125 2.875 -22.3125 1.109375 -21.03125 L 2.234375 -16.640625 C 2.96875 -17.28125 5.484375 -18.578125 7.484375 -18.453125 C 8.828125 -18.390625 9.84375 -17.4375 9.84375 -16.15625 C 9.84375 -16.15625 9.90625 -15.234375 8.703125 -13.515625 Z M 8.703125 -13.515625 "/></g></g></g><g fill="#f6f6e9" fill-opacity="1"><g transform="translate(1931.486736, 598.87995)"><g><path d="M 20.953125 -21.15625 L 6.46875 -37.28125 L 4.109375 -37.28125 L 4.109375 0 L 11.5625 0 L 11.5625 -20.5 L 20.953125 -10.625 L 30.359375 -20.5 L 30.296875 0 L 37.75 0 L 37.75 -37.28125 L 35.4375 -37.28125 Z M 20.953125 -21.15625 "/></g></g></g><g fill="#f6f6e9" fill-opacity="1"><g transform="translate(1977.502652, 598.87995)"><g><path d="M 8.3125 -15 L 11.859375 -15 C 14.078125 -15 15.875 -13 15.921875 -10.9375 C 16.078125 -5.078125 5.4375 -7.234375 2.3125 -8.78125 L 1.484375 -1.328125 C 3.796875 -0.359375 9.25 0.515625 12.890625 0.3125 C 20.03125 -0.046875 23.875 -4.71875 23.734375 -10.9375 C 23.671875 -13.8125 22.390625 -17.046875 19.46875 -18.75 C 22.4375 -20.703125 23.421875 -23.0625 23.375 -25.9375 C 23.21875 -32.203125 18.640625 -36.828125 12.015625 -37.234375 C 8.375 -37.390625 4.671875 -36.671875 2.359375 -35.75 L 3.5 -28.8125 C 6.375 -30.296875 15.359375 -31.328125 15.515625 -25.9375 C 15.5625 -23.828125 13.921875 -22.5 11.703125 -22.5 L 8.171875 -22.5 Z M 8.3125 -15 "/></g></g></g></svg>