<svg xmlns="http://www.w3.org/2000/svg" xmlns:xlink="http://www.w3.org/1999/xlink" width="3000" zoomAndPan="magnify" viewBox="0 0 2250 2250.000011" height="3000" preserveAspectRatio="xMidYMid meet" version="1.0"><defs><g/><clipPath id="c63e53211b"><path d="M 2102 1061 L 2249.5 1061 L 2249.5 1194 L 2102 1194 Z M 2102 1061 " clip-rule="nonzero"/></clipPath></defs><g fill="#000000" fill-opacity="1"><g transform="translate(54.247722, 1239.698368)"><g><path d="M 29.796875 31.921875 C 33.515625 31.921875 36.71875 31.390625 39.375 29.796875 C 58 21.8125 80.34375 -4.25 102.15625 -37.78125 C 113.328125 -54.265625 123.96875 -72.359375 134.609375 -92.046875 C 155.359375 -130.34375 173.453125 -168.65625 186.75 -200.578125 C 193.140625 -216.015625 197.921875 -228.78125 201.109375 -237.828125 C 206.96875 -254.84375 212.28125 -270.8125 218.140625 -287.3125 C 219.203125 -289.4375 219.734375 -291.5625 219.734375 -294.21875 C 219.734375 -297.953125 217.078125 -300.609375 213.34375 -300.609375 C 212.28125 -300.609375 211.21875 -300.078125 210.15625 -299.015625 C 207.5 -296.34375 205.90625 -293.6875 204.3125 -289.96875 L 196.328125 -267.09375 C 185.15625 -233.5625 173.984375 -201.640625 158.546875 -169.71875 C 137.796875 -127.15625 98.953125 -52.671875 70.234375 -15.96875 C 62.25 -5.859375 53.734375 3.1875 43.09375 11.171875 C 38.3125 15.421875 34.578125 17.5625 31.921875 17.5625 C 28.734375 17.5625 26.0625 13.296875 23.40625 4.25 C 19.15625 -12.234375 17.03125 -28.734375 15.421875 -45.75 C 12.765625 -69.703125 12.765625 -93.640625 16.5 -118.640625 C 22.875 -162.8125 29.796875 -205.90625 40.96875 -248.46875 C 42.5625 -254.3125 43.625 -258.046875 42.03125 -263.890625 C 42.03125 -266.5625 39.375 -267.09375 37.25 -267.09375 C 36.171875 -267.09375 35.109375 -266.5625 34.578125 -266.015625 C 32.984375 -262.296875 30.859375 -258.046875 29.265625 -252.71875 C 20.21875 -218.671875 13.828125 -185.15625 7.453125 -150.5625 C 3.1875 -125.5625 -0.53125 -101.625 0 -80.34375 C 0.53125 -48.953125 2.65625 -8.515625 14.890625 21.28125 C 18.625 28.203125 23.40625 31.921875 29.796875 31.921875 Z M 29.796875 31.921875 "/></g></g></g><g fill="#000000" fill-opacity="1"><g transform="translate(236.73655, 1239.698368)"><g><path d="M 25 -22.34375 C 61.71875 -22.34375 117.578125 -76.609375 143.125 -103.75 C 145.25 -105.875 146.84375 -107.46875 147.375 -109.0625 C 148.96875 -111.734375 148.4375 -114.390625 145.78125 -117.046875 C 144.71875 -118.109375 143.65625 -118.640625 142.0625 -118.640625 C 141 -118.640625 139.390625 -118.109375 137.796875 -117.046875 C 136.203125 -115.453125 134.609375 -113.859375 133.015625 -112.265625 C 131.421875 -110.671875 129.28125 -109.0625 127.6875 -107.46875 C 121.3125 -101.625 114.921875 -95.765625 109.0625 -89.921875 C 102.6875 -84.0625 96.296875 -77.671875 89.921875 -71.828125 C 74.484375 -57.46875 50.015625 -40.4375 28.734375 -36.171875 C 18.625 -36.171875 12.765625 -36.171875 10.640625 -48.421875 C 7.984375 -55.328125 7.453125 -61.1875 9.046875 -67.03125 C 9.578125 -69.703125 11.171875 -71.296875 13.296875 -71.828125 C 38.84375 -74.484375 72.359375 -105.875 76.609375 -131.953125 C 78.203125 -144.1875 71.296875 -151.640625 60.65625 -151.640625 C 60.125 -151.640625 59.0625 -151.640625 58.53125 -151.640625 C 58 -151.09375 56.921875 -151.09375 56.390625 -151.09375 C 28.203125 -146.84375 7.453125 -109.609375 -1.59375 -84.59375 C -3.71875 -76.609375 -5.859375 -69.171875 -5.328125 -60.125 C -5.859375 -54.265625 -4.25 -47.890625 -2.125 -42.03125 C 1.59375 -28.734375 10.640625 -22.34375 25 -22.34375 Z M 20.21875 -87.78125 C 19.6875 -87.25 18.625 -87.78125 17.03125 -88.3125 C 16.5 -88.3125 15.96875 -89.390625 15.96875 -90.984375 C 21.8125 -107.46875 39.90625 -134.078125 57.46875 -136.734375 C 60.125 -137.265625 61.71875 -136.203125 62.25 -132.484375 C 62.25 -115.453125 34.046875 -95.234375 20.21875 -87.78125 Z M 20.21875 -87.78125 "/></g></g></g><g fill="#000000" fill-opacity="1"><g transform="translate(358.041107, 1239.698368)"><g><path d="M -1.59375 9.046875 C 1.59375 9.046875 4.25 7.453125 5.859375 4.78125 C 9.578125 -1.0625 12.765625 -5.859375 15.421875 -11.703125 C 20.21875 -20.75 24.46875 -29.265625 28.734375 -37.78125 C 32.453125 -46.28125 36.71875 -54.796875 40.96875 -63.3125 C 47.359375 -75.546875 54.796875 -87.25 64.90625 -97.359375 C 67.03125 -100.03125 69.171875 -102.6875 73.953125 -102.6875 C 75.546875 -100.5625 76.609375 -98.421875 77.671875 -96.296875 C 78.75 -94.171875 80.34375 -92.046875 81.9375 -89.921875 C 87.78125 -81.9375 94.703125 -78.203125 103.75 -78.203125 C 118.640625 -78.203125 141 -95.765625 151.09375 -105.875 C 152.703125 -107.46875 154.296875 -109.609375 155.890625 -112.796875 C 156.953125 -114.921875 156.421875 -117.046875 154.296875 -119.171875 C 152.703125 -120.25 151.640625 -120.78125 150.03125 -120.78125 C 148.96875 -120.78125 148.4375 -120.78125 147.90625 -120.25 C 145.25 -118.640625 143.125 -117.046875 141 -114.921875 C 131.953125 -107.46875 113.328125 -92.046875 103.75 -92.046875 C 98.953125 -92.046875 94.703125 -95.234375 90.984375 -101.625 C 89.921875 -103.21875 88.859375 -105.34375 88.3125 -108 C 87.25 -110.140625 86.1875 -112.265625 85.125 -113.859375 C 82.46875 -118.109375 79.28125 -120.25 75.015625 -120.25 C 72.890625 -120.25 70.765625 -119.703125 68.640625 -118.640625 C 52.140625 -108.53125 39.375 -90.453125 30.859375 -73.953125 L 10.109375 -31.921875 L 9.578125 -32.453125 L 10.109375 -32.453125 C 7.453125 -38.3125 9.046875 -43.625 10.640625 -49.484375 C 14.890625 -65.4375 20.75 -81.9375 27.671875 -98.421875 C 32.453125 -109.0625 37.25 -119.703125 41.5 -130.34375 C 43.09375 -134.609375 44.15625 -138.328125 44.15625 -142.0625 C 44.6875 -144.71875 43.625 -146.3125 40.4375 -147.375 L 38.84375 -147.375 C 36.71875 -147.375 35.109375 -146.84375 34.046875 -145.78125 C 32.453125 -143.65625 31.390625 -141 29.796875 -138.328125 C 11.171875 -95.765625 -3.71875 -60.65625 -10.640625 -13.296875 C -11.171875 -10.640625 -11.171875 -8.515625 -11.171875 -6.390625 C -10.640625 -3.71875 -10.640625 -1.59375 -10.640625 0.53125 C -10.109375 4.78125 -7.984375 7.453125 -4.25 8.515625 C -3.71875 8.515625 -3.1875 8.515625 -3.1875 9.046875 C -2.65625 9.046875 -2.125 9.046875 -1.59375 9.046875 Z M -1.59375 9.046875 "/></g></g></g><g fill="#000000" fill-opacity="1"><g transform="translate(487.85824, 1239.698368)"><g><path d="M 2.65625 -45.75 C 9.578125 -45.75 18.625 -53.203125 23.40625 -57.46875 C 36.71875 -69.703125 48.421875 -82.46875 60.65625 -96.828125 C 62.25 -98.421875 64.375 -100.5625 65.96875 -102.6875 C 67.5625 -104.8125 70.234375 -106.40625 73.953125 -108 C 70.234375 -93.640625 67.03125 -79.8125 67.03125 -65.4375 C 67.03125 -55.328125 71.296875 -50.015625 80.34375 -50.015625 C 82.46875 -50.015625 84.0625 -50.015625 85.125 -50.546875 C 107.46875 -54.265625 145.25 -89.921875 160.671875 -105.34375 C 161.203125 -105.875 162.28125 -106.9375 162.8125 -107.46875 C 163.34375 -108 163.34375 -108.53125 163.875 -109.0625 C 164.9375 -112.796875 164.40625 -115.453125 161.75 -117.046875 C 160.671875 -118.109375 159.609375 -118.640625 158.015625 -118.640625 C 157.484375 -118.640625 156.953125 -118.109375 155.359375 -117.578125 C 153.765625 -116.515625 152.171875 -115.453125 151.09375 -114.390625 C 149.5 -112.796875 147.90625 -111.734375 146.3125 -110.140625 C 141.53125 -106.40625 137.265625 -102.6875 133.546875 -98.953125 C 129.28125 -95.234375 125.03125 -90.984375 120.25 -87.25 C 113.859375 -81.40625 106.9375 -77.140625 100.5625 -72.890625 C 95.765625 -70.234375 90.984375 -68.109375 86.1875 -65.96875 C 85.65625 -65.4375 85.125 -65.4375 84.0625 -65.4375 C 81.9375 -65.4375 80.875 -67.03125 80.875 -70.234375 C 80.875 -93.109375 97.359375 -131.953125 107.46875 -152.171875 C 108.53125 -154.828125 109.609375 -156.953125 111.203125 -159.609375 C 112.265625 -161.75 113.328125 -163.875 114.390625 -166.53125 C 115.984375 -171.3125 115.453125 -175.046875 111.734375 -177.171875 C 110.140625 -177.703125 109.0625 -178.234375 108.53125 -178.234375 C 106.9375 -178.234375 104.8125 -177.171875 102.15625 -174.515625 C 100.5625 -172.921875 99.5 -170.78125 98.421875 -169.1875 C 96.828125 -167.0625 95.765625 -164.9375 94.171875 -163.34375 C 90.984375 -159.078125 87.78125 -154.828125 85.125 -150.5625 C 81.9375 -146.3125 78.75 -142.0625 75.546875 -138.328125 C 73.421875 -135.671875 71.828125 -134.078125 70.765625 -134.078125 C 70.234375 -134.078125 68.640625 -135.140625 65.96875 -136.734375 C 60.65625 -141 55.328125 -143.125 50.015625 -143.125 C 44.15625 -143.125 38.3125 -141 32.453125 -136.203125 C 28.734375 -133.546875 26.0625 -131.421875 24.46875 -129.28125 C 8.515625 -113.328125 -9.046875 -81.9375 -9.046875 -58.53125 C -8.515625 -50.015625 -4.25 -45.75 2.65625 -45.75 Z M 7.453125 -64.90625 C 7.453125 -65.4375 7.453125 -65.4375 6.921875 -65.4375 L 6.390625 -65.96875 C 10.640625 -88.859375 21.28125 -108 37.78125 -122.375 C 40.4375 -125.03125 46.8125 -128.75 50.546875 -128.75 C 53.203125 -128.75 55.328125 -127.6875 58 -126.09375 C 60.65625 -124.5 61.1875 -121.84375 60.125 -118.640625 C 59.59375 -117.046875 58.53125 -116.515625 58 -115.984375 C 43.625 -98.421875 29.265625 -80.875 12.234375 -66.5 C 11.171875 -65.4375 9.578125 -64.90625 7.453125 -64.90625 Z M 7.453125 -64.90625 "/></g></g></g><g fill="#000000" fill-opacity="1"><g transform="translate(625.655955, 1239.698368)"><g/></g></g><g fill="#000000" fill-opacity="1"><g transform="translate(827.830161, 1239.698368)"><g><path d="M 16.5 50.546875 C 30.328125 50.546875 50.546875 19.6875 58 7.984375 C 71.296875 -13.828125 84.0625 -35.109375 96.828125 -58 L 147.90625 -144.71875 C 151.09375 -150.5625 154.296875 -153.234375 156.953125 -153.234375 C 158.546875 -153.234375 161.203125 -152.703125 164.9375 -151.640625 C 183.5625 -145.78125 202.703125 -141 222.390625 -140.453125 C 227.1875 -140.453125 229.3125 -138.328125 228.78125 -134.078125 C 228.78125 -132.484375 228.78125 -130.34375 228.25 -128.75 C 227.71875 -127.15625 227.71875 -125.03125 227.71875 -123.4375 C 223.984375 -96.296875 221.328125 -69.171875 222.921875 -42.03125 C 223.453125 -23.40625 226.125 -4.78125 232.5 12.765625 C 238.359375 26.0625 246.875 35.109375 258.046875 39.90625 C 260.703125 41.5 263.359375 42.03125 266.5625 42.03125 L 269.75 42.03125 C 274.53125 41.5 277.734375 36.171875 277.203125 30.328125 C 276.671875 26.0625 274 22.34375 270.28125 22.34375 C 269.21875 22.34375 268.15625 22.34375 267.625 22.875 C 265.484375 23.9375 263.359375 24.46875 261.765625 24.46875 C 249.53125 24.46875 241.546875 -2.65625 239.953125 -12.765625 C 237.296875 -26.0625 235.703125 -39.90625 236.234375 -54.265625 C 237.828125 -125.03125 252.71875 -191.53125 269.21875 -260.171875 C 271.875 -271.34375 274 -281.984375 276.125 -294.21875 C 277.734375 -300.078125 278.265625 -306.453125 275.59375 -312.84375 C 273.46875 -317.625 270.28125 -319.765625 265.484375 -319.765625 C 264.953125 -319.765625 263.359375 -319.234375 261.234375 -318.703125 C 244.734375 -309.65625 205.90625 -260.703125 195.796875 -244.734375 C 188.875 -233.5625 181.421875 -222.390625 173.984375 -211.21875 C 166.53125 -200.046875 159.078125 -188.875 151.640625 -177.703125 C 148.4375 -172.921875 145.78125 -170.78125 144.1875 -170.78125 C 143.65625 -170.78125 141.53125 -171.3125 137.796875 -171.84375 C 131.953125 -173.453125 125.5625 -174.515625 119.703125 -175.578125 C 113.859375 -176.640625 107.46875 -177.703125 101.625 -178.765625 C 97.890625 -179.296875 93.640625 -179.828125 89.921875 -179.828125 C 77.671875 -179.828125 62.78125 -177.171875 54.796875 -167.0625 C 50.546875 -162.28125 50.015625 -156.421875 52.671875 -150.5625 C 55.859375 -144.71875 60.65625 -142.0625 66.5 -142.0625 C 68.109375 -143.125 69.171875 -143.65625 69.171875 -143.65625 C 69.703125 -144.71875 69.703125 -145.78125 68.640625 -146.84375 C 68.109375 -147.375 68.109375 -147.90625 67.5625 -147.90625 C 67.03125 -147.90625 65.96875 -148.4375 65.4375 -148.96875 C 57.46875 -155.890625 58 -161.203125 67.03125 -165.46875 C 75.015625 -169.1875 79.28125 -169.1875 88.3125 -169.1875 C 104.8125 -169.1875 121.3125 -166 137.796875 -159.078125 C 137.796875 -156.421875 137.265625 -154.828125 136.203125 -153.234375 C 135.140625 -151.640625 134.078125 -150.03125 133.546875 -148.4375 L 69.703125 -38.3125 C 63.84375 -28.734375 58.53125 -19.15625 53.203125 -10.109375 C 47.359375 -0.53125 41.5 8.515625 34.578125 17.5625 C 29.796875 23.9375 25.53125 29.265625 21.28125 33.515625 C 20.21875 34.578125 19.15625 35.109375 17.5625 35.109375 C 15.421875 35.109375 13.828125 34.046875 13.296875 31.390625 C 11.171875 20.21875 11.703125 9.578125 14.359375 0.53125 C 15.421875 -3.71875 17.5625 -5.859375 21.28125 -6.390625 C 23.40625 -6.921875 26.0625 -7.984375 25.53125 -10.640625 C 25 -13.296875 23.40625 -15.421875 19.6875 -16.5 C 13.296875 -16.5 10.640625 -15.421875 6.921875 -9.578125 C -1.0625 6.921875 -2.125 23.9375 3.71875 40.96875 L 5.328125 44.15625 C 7.984375 48.421875 11.703125 50.546875 16.5 50.546875 Z M 216.546875 -154.828125 C 199.515625 -154.828125 183.5625 -159.609375 167.0625 -164.40625 C 163.34375 -164.9375 162.28125 -167.0625 163.875 -170.78125 C 164.40625 -172.390625 165.46875 -173.453125 166.53125 -175.046875 C 167.0625 -176.109375 168.125 -177.171875 168.65625 -178.234375 C 185.15625 -203.234375 201.109375 -227.1875 218.140625 -252.1875 C 223.453125 -260.171875 229.3125 -267.625 236.234375 -274.53125 C 242.609375 -281.453125 249 -288.375 255.375 -295.28125 C 256.984375 -297.421875 258.046875 -297.953125 259.640625 -297.421875 C 261.234375 -296.875 262.296875 -296.34375 262.296875 -295.28125 C 262.296875 -294.21875 262.296875 -293.15625 261.765625 -292.09375 C 260.171875 -284.109375 259.109375 -277.734375 256.984375 -269.75 C 249 -235.171875 241.546875 -200.578125 233.5625 -166.53125 C 231.4375 -155.890625 230.375 -155.359375 220.265625 -154.828125 Z M 216.546875 -154.828125 "/></g></g></g><g fill="#000000" fill-opacity="1"><g transform="translate(1104.489582, 1239.698368)"><g><path d="M -3.71875 42.5625 C 19.6875 42.5625 35.640625 -1.0625 37.25 -23.40625 C 38.3125 -30.328125 42.03125 -36.171875 47.890625 -40.4375 L 92.046875 -71.828125 C 105.34375 -81.9375 118.640625 -90.984375 133.015625 -101.09375 C 136.734375 -103.75 139.921875 -106.40625 141.53125 -109.0625 C 144.1875 -111.734375 143.65625 -114.390625 140.453125 -117.046875 C 139.390625 -118.109375 138.328125 -118.640625 136.734375 -118.640625 C 135.140625 -118.640625 133.546875 -118.109375 131.953125 -117.046875 C 130.34375 -115.453125 128.75 -114.390625 127.15625 -113.859375 L 50.015625 -59.59375 C 47.890625 -58 45.21875 -56.390625 42.03125 -54.796875 C 40.4375 -57.46875 39.375 -59.0625 39.375 -59.59375 C 37.78125 -78.75 34.578125 -97.359375 30.859375 -116.515625 C 30.328125 -119.171875 29.796875 -122.375 29.796875 -125.03125 C 29.796875 -127.6875 29.796875 -130.890625 30.328125 -133.546875 C 31.921875 -153.234375 48.953125 -169.71875 68.640625 -169.71875 C 70.234375 -169.71875 71.296875 -169.71875 71.828125 -170.25 C 75.546875 -171.84375 76.609375 -176.109375 73.953125 -178.765625 C 69.703125 -183.03125 67.03125 -183.03125 61.1875 -183.03125 C 55.328125 -183.03125 50.015625 -181.421875 44.6875 -178.234375 C 26.0625 -164.9375 14.890625 -147.90625 16.5 -123.96875 C 17.03125 -117.046875 17.5625 -110.140625 19.15625 -103.21875 C 22.875 -86.71875 25 -71.828125 25.53125 -55.328125 C 25.53125 -45.21875 23.9375 -38.84375 15.96875 -32.453125 C 3.1875 -23.9375 -18.09375 2.65625 -20.75 17.03125 C -22.34375 26.0625 -20.75 34.046875 -12.234375 39.90625 C -9.578125 41.5 -6.390625 42.5625 -3.71875 42.5625 Z M -2.65625 27.671875 C -4.25 27.671875 -4.78125 27.140625 -5.328125 26.0625 C -6.390625 25 -6.921875 23.40625 -6.921875 21.8125 C -7.453125 20.75 -7.453125 19.6875 -6.921875 18.09375 C -1.59375 4.78125 7.453125 -6.390625 19.6875 -15.421875 C 19.15625 1.59375 11.171875 18.09375 1.0625 26.0625 C 0 27.140625 -1.0625 27.671875 -2.65625 27.671875 Z M -2.65625 27.671875 "/></g></g></g><g fill="#000000" fill-opacity="1"><g transform="translate(1220.473696, 1239.698368)"><g><path d="M -3.71875 42.5625 C 19.6875 42.5625 35.640625 -1.0625 37.25 -23.40625 C 38.3125 -30.328125 42.03125 -36.171875 47.890625 -40.4375 L 92.046875 -71.828125 C 105.34375 -81.9375 118.640625 -90.984375 133.015625 -101.09375 C 136.734375 -103.75 139.921875 -106.40625 141.53125 -109.0625 C 144.1875 -111.734375 143.65625 -114.390625 140.453125 -117.046875 C 139.390625 -118.109375 138.328125 -118.640625 136.734375 -118.640625 C 135.140625 -118.640625 133.546875 -118.109375 131.953125 -117.046875 C 130.34375 -115.453125 128.75 -114.390625 127.15625 -113.859375 L 50.015625 -59.59375 C 47.890625 -58 45.21875 -56.390625 42.03125 -54.796875 C 40.4375 -57.46875 39.375 -59.0625 39.375 -59.59375 C 37.78125 -78.75 34.578125 -97.359375 30.859375 -116.515625 C 30.328125 -119.171875 29.796875 -122.375 29.796875 -125.03125 C 29.796875 -127.6875 29.796875 -130.890625 30.328125 -133.546875 C 31.921875 -153.234375 48.953125 -169.71875 68.640625 -169.71875 C 70.234375 -169.71875 71.296875 -169.71875 71.828125 -170.25 C 75.546875 -171.84375 76.609375 -176.109375 73.953125 -178.765625 C 69.703125 -183.03125 67.03125 -183.03125 61.1875 -183.03125 C 55.328125 -183.03125 50.015625 -181.421875 44.6875 -178.234375 C 26.0625 -164.9375 14.890625 -147.90625 16.5 -123.96875 C 17.03125 -117.046875 17.5625 -110.140625 19.15625 -103.21875 C 22.875 -86.71875 25 -71.828125 25.53125 -55.328125 C 25.53125 -45.21875 23.9375 -38.84375 15.96875 -32.453125 C 3.1875 -23.9375 -18.09375 2.65625 -20.75 17.03125 C -22.34375 26.0625 -20.75 34.046875 -12.234375 39.90625 C -9.578125 41.5 -6.390625 42.5625 -3.71875 42.5625 Z M -2.65625 27.671875 C -4.25 27.671875 -4.78125 27.140625 -5.328125 26.0625 C -6.390625 25 -6.921875 23.40625 -6.921875 21.8125 C -7.453125 20.75 -7.453125 19.6875 -6.921875 18.09375 C -1.59375 4.78125 7.453125 -6.390625 19.6875 -15.421875 C 19.15625 1.59375 11.171875 18.09375 1.0625 26.0625 C 0 27.140625 -1.0625 27.671875 -2.65625 27.671875 Z M -2.65625 27.671875 "/></g></g></g><g fill="#000000" fill-opacity="1"><g transform="translate(1336.457809, 1239.698368)"><g><path d="M 22.875 -19.15625 C 37.25 -19.15625 51.609375 -30.328125 61.71875 -39.375 C 85.125 -59.0625 103.75 -82.46875 122.375 -106.40625 C 123.96875 -108 125.03125 -109.609375 125.5625 -112.265625 C 126.09375 -114.921875 125.5625 -117.046875 123.4375 -118.640625 C 122.375 -119.703125 121.3125 -120.25 119.703125 -120.25 C 118.640625 -120.25 117.578125 -119.703125 117.046875 -119.171875 C 114.390625 -117.046875 111.734375 -114.921875 109.609375 -112.265625 C 105.34375 -107.46875 101.09375 -102.15625 97.359375 -97.359375 C 93.640625 -92.578125 89.390625 -87.25 85.125 -82.46875 C 72.890625 -68.109375 60.125 -55.859375 45.75 -43.625 C 39.375 -38.84375 33.515625 -35.109375 25.53125 -33.515625 C 19.6875 -33.515625 16.5 -34.046875 14.890625 -39.90625 C 13.828125 -44.6875 13.296875 -49.484375 13.828125 -53.734375 C 17.03125 -78.75 25 -105.34375 34.046875 -128.75 C 34.578125 -131.421875 34.046875 -133.546875 31.390625 -134.609375 C 29.796875 -135.140625 28.734375 -135.671875 27.671875 -135.671875 C 26.609375 -135.671875 25 -135.140625 23.40625 -134.078125 C 9.578125 -120.25 3.71875 -77.140625 0 -53.734375 C 0 -45.75 0 -40.4375 2.125 -34.578125 C 5.859375 -24.46875 12.765625 -19.15625 22.875 -19.15625 Z M 36.71875 -154.828125 C 42.5625 -154.828125 47.890625 -160.140625 47.890625 -166 C 47.359375 -171.84375 43.625 -174.515625 37.25 -174.515625 C 30.859375 -174.515625 27.671875 -171.3125 27.671875 -164.9375 C 28.203125 -158.546875 31.921875 -154.296875 36.71875 -154.828125 Z M 36.71875 -154.828125 "/></g></g></g><g fill="#000000" fill-opacity="1"><g transform="translate(1435.41685, 1239.698368)"><g><path d="M -3.71875 42.5625 C 19.6875 42.5625 35.640625 -1.0625 37.25 -23.40625 C 38.3125 -30.328125 42.03125 -36.171875 47.890625 -40.4375 L 92.046875 -71.828125 C 105.34375 -81.9375 118.640625 -90.984375 133.015625 -101.09375 C 136.734375 -103.75 139.921875 -106.40625 141.53125 -109.0625 C 144.1875 -111.734375 143.65625 -114.390625 140.453125 -117.046875 C 139.390625 -118.109375 138.328125 -118.640625 136.734375 -118.640625 C 135.140625 -118.640625 133.546875 -118.109375 131.953125 -117.046875 C 130.34375 -115.453125 128.75 -114.390625 127.15625 -113.859375 L 50.015625 -59.59375 C 47.890625 -58 45.21875 -56.390625 42.03125 -54.796875 C 40.4375 -57.46875 39.375 -59.0625 39.375 -59.59375 C 37.78125 -78.75 34.578125 -97.359375 30.859375 -116.515625 C 30.328125 -119.171875 29.796875 -122.375 29.796875 -125.03125 C 29.796875 -127.6875 29.796875 -130.890625 30.328125 -133.546875 C 31.921875 -153.234375 48.953125 -169.71875 68.640625 -169.71875 C 70.234375 -169.71875 71.296875 -169.71875 71.828125 -170.25 C 75.546875 -171.84375 76.609375 -176.109375 73.953125 -178.765625 C 69.703125 -183.03125 67.03125 -183.03125 61.1875 -183.03125 C 55.328125 -183.03125 50.015625 -181.421875 44.6875 -178.234375 C 26.0625 -164.9375 14.890625 -147.90625 16.5 -123.96875 C 17.03125 -117.046875 17.5625 -110.140625 19.15625 -103.21875 C 22.875 -86.71875 25 -71.828125 25.53125 -55.328125 C 25.53125 -45.21875 23.9375 -38.84375 15.96875 -32.453125 C 3.1875 -23.9375 -18.09375 2.65625 -20.75 17.03125 C -22.34375 26.0625 -20.75 34.046875 -12.234375 39.90625 C -9.578125 41.5 -6.390625 42.5625 -3.71875 42.5625 Z M -2.65625 27.671875 C -4.25 27.671875 -4.78125 27.140625 -5.328125 26.0625 C -6.390625 25 -6.921875 23.40625 -6.921875 21.8125 C -7.453125 20.75 -7.453125 19.6875 -6.921875 18.09375 C -1.59375 4.78125 7.453125 -6.390625 19.6875 -15.421875 C 19.15625 1.59375 11.171875 18.09375 1.0625 26.0625 C 0 27.140625 -1.0625 27.671875 -2.65625 27.671875 Z M -2.65625 27.671875 "/></g></g></g><g fill="#000000" fill-opacity="1"><g transform="translate(1551.400963, 1239.698368)"><g><path d="M 9.578125 37.78125 C 18.09375 37.78125 28.203125 30.328125 32.984375 23.9375 C 50.015625 4.25 69.171875 -21.8125 86.71875 -45.75 C 101.625 -65.96875 121.3125 -93.109375 131.953125 -105.875 C 133.015625 -106.9375 133.546875 -108 133.546875 -109.0625 C 135.140625 -112.265625 134.609375 -114.921875 131.953125 -117.046875 C 130.34375 -117.578125 129.28125 -118.109375 128.21875 -118.109375 C 127.6875 -118.109375 127.6875 -118.109375 127.15625 -118.109375 C 126.625 -117.578125 126.625 -117.578125 126.09375 -117.578125 C 123.4375 -116.515625 121.3125 -114.921875 119.703125 -113.328125 C 118.109375 -111.203125 115.984375 -109.0625 114.390625 -106.9375 C 98.953125 -91.515625 52.140625 -21.28125 29.796875 6.921875 C 27.140625 10.109375 24.46875 13.296875 21.8125 16.5 C 19.15625 19.15625 15.96875 21.28125 11.171875 21.8125 C 3.1875 15.421875 5.859375 5.859375 6.390625 -2.125 C 7.984375 -20.75 10.109375 -37.78125 14.359375 -55.328125 C 21.28125 -86.1875 48.953125 -170.78125 61.1875 -197.921875 C 63.84375 -204.84375 69.171875 -208.03125 76.609375 -208.5625 L 191 -218.671875 C 193.671875 -219.203125 195.796875 -219.203125 197.921875 -219.734375 C 200.046875 -219.734375 202.171875 -220.265625 204.84375 -220.796875 C 206.96875 -221.328125 208.03125 -223.453125 208.03125 -226.125 C 207.5 -229.84375 205.90625 -231.4375 203.78125 -231.4375 L 184.625 -231.4375 C 169.71875 -229.84375 153.765625 -228.25 136.203125 -227.1875 C 118.640625 -225.59375 102.6875 -223.984375 87.78125 -222.390625 C 87.25 -222.390625 86.1875 -222.390625 85.125 -222.390625 C 84.0625 -221.859375 83 -221.859375 81.9375 -221.859375 C 79.8125 -221.859375 77.671875 -222.390625 75.015625 -222.921875 C 75.015625 -225.59375 75.546875 -228.25 76.609375 -230.375 C 77.140625 -231.96875 78.203125 -234.09375 78.75 -235.703125 C 85.65625 -250.0625 92.578125 -263.890625 98.421875 -278.265625 C 101.09375 -283.046875 101.625 -287.3125 101.09375 -289.96875 C 100.03125 -292.625 98.421875 -293.6875 96.296875 -293.6875 C 92.578125 -293.6875 88.859375 -290.5 85.125 -284.109375 C 82.46875 -279.859375 79.8125 -275.59375 77.671875 -271.34375 C 75.015625 -267.09375 72.890625 -262.828125 70.234375 -258.578125 L 55.859375 -226.65625 C 53.203125 -220.796875 48.953125 -218.140625 42.5625 -217.609375 C 33.515625 -216.546875 23.9375 -215.484375 14.359375 -214.421875 C 4.78125 -213.34375 -4.78125 -212.28125 -14.359375 -210.6875 C -17.03125 -210.15625 -19.6875 -209.625 -22.34375 -209.09375 C -24.46875 -208.5625 -26.609375 -207.5 -29.265625 -206.96875 C -31.921875 -206.4375 -32.453125 -204.3125 -31.921875 -201.109375 C -31.390625 -199.515625 -30.328125 -198.453125 -28.203125 -197.921875 C -26.609375 -197.390625 -25 -197.390625 -22.34375 -197.390625 C -18.09375 -197.390625 -13.296875 -198.453125 -9.046875 -198.984375 C -2.125 -199.515625 5.328125 -200.578125 12.765625 -201.640625 C 19.6875 -202.703125 27.140625 -203.78125 34.046875 -204.3125 L 38.3125 -204.3125 C 44.6875 -204.3125 45.21875 -201.640625 42.5625 -193.671875 C 38.84375 -184.625 36.171875 -176.109375 32.453125 -166 C 14.890625 -118.109375 -7.453125 -45.21875 -7.453125 6.390625 C -7.453125 18.625 -4.25 37.78125 9.578125 37.78125 Z M 9.578125 37.78125 "/></g></g></g><g fill="#000000" fill-opacity="1"><g transform="translate(1658.340424, 1239.698368)"><g><path d="M 25 -22.34375 C 61.71875 -22.34375 117.578125 -76.609375 143.125 -103.75 C 145.25 -105.875 146.84375 -107.46875 147.375 -109.0625 C 148.96875 -111.734375 148.4375 -114.390625 145.78125 -117.046875 C 144.71875 -118.109375 143.65625 -118.640625 142.0625 -118.640625 C 141 -118.640625 139.390625 -118.109375 137.796875 -117.046875 C 136.203125 -115.453125 134.609375 -113.859375 133.015625 -112.265625 C 131.421875 -110.671875 129.28125 -109.0625 127.6875 -107.46875 C 121.3125 -101.625 114.921875 -95.765625 109.0625 -89.921875 C 102.6875 -84.0625 96.296875 -77.671875 89.921875 -71.828125 C 74.484375 -57.46875 50.015625 -40.4375 28.734375 -36.171875 C 18.625 -36.171875 12.765625 -36.171875 10.640625 -48.421875 C 7.984375 -55.328125 7.453125 -61.1875 9.046875 -67.03125 C 9.578125 -69.703125 11.171875 -71.296875 13.296875 -71.828125 C 38.84375 -74.484375 72.359375 -105.875 76.609375 -131.953125 C 78.203125 -144.1875 71.296875 -151.640625 60.65625 -151.640625 C 60.125 -151.640625 59.0625 -151.640625 58.53125 -151.640625 C 58 -151.09375 56.921875 -151.09375 56.390625 -151.09375 C 28.203125 -146.84375 7.453125 -109.609375 -1.59375 -84.59375 C -3.71875 -76.609375 -5.859375 -69.171875 -5.328125 -60.125 C -5.859375 -54.265625 -4.25 -47.890625 -2.125 -42.03125 C 1.59375 -28.734375 10.640625 -22.34375 25 -22.34375 Z M 20.21875 -87.78125 C 19.6875 -87.25 18.625 -87.78125 17.03125 -88.3125 C 16.5 -88.3125 15.96875 -89.390625 15.96875 -90.984375 C 21.8125 -107.46875 39.90625 -134.078125 57.46875 -136.734375 C 60.125 -137.265625 61.71875 -136.203125 62.25 -132.484375 C 62.25 -115.453125 34.046875 -95.234375 20.21875 -87.78125 Z M 20.21875 -87.78125 "/></g></g></g><g fill="#000000" fill-opacity="1"><g transform="translate(1779.644981, 1239.698368)"><g><path d="M -2.65625 -5.328125 C -0.53125 -5.328125 1.0625 -5.859375 2.65625 -6.921875 C 5.859375 -9.578125 8.515625 -12.234375 10.109375 -15.96875 C 11.703125 -19.15625 13.296875 -22.34375 14.890625 -25.53125 C 31.390625 -59.0625 51.609375 -90.984375 79.28125 -115.984375 C 80.34375 -117.046875 81.40625 -117.578125 83 -117.578125 C 84.59375 -117.578125 86.1875 -115.984375 86.71875 -113.328125 C 87.25 -108 88.3125 -102.6875 88.859375 -97.890625 C 89.390625 -92.578125 89.921875 -87.25 90.453125 -81.9375 C 90.984375 -75.546875 92.578125 -69.171875 96.296875 -62.25 C 100.5625 -54.796875 106.40625 -51.078125 113.328125 -51.078125 C 113.859375 -51.078125 114.921875 -51.078125 115.984375 -51.609375 C 116.515625 -51.609375 117.578125 -51.609375 118.109375 -51.609375 C 126.09375 -53.203125 133.015625 -56.921875 139.390625 -62.78125 C 145.25 -68.109375 176.640625 -96.296875 182.484375 -102.15625 C 184.625 -104.28125 186.21875 -106.9375 187.28125 -109.609375 C 188.34375 -112.265625 187.8125 -114.921875 185.15625 -117.046875 C 184.09375 -118.109375 183.03125 -118.640625 181.421875 -118.640625 C 179.828125 -118.640625 178.765625 -118.109375 177.703125 -117.046875 C 176.640625 -116.515625 175.578125 -114.921875 173.984375 -113.328125 C 172.390625 -111.734375 168.65625 -108 162.8125 -103.21875 C 158.015625 -98.953125 153.234375 -94.703125 148.96875 -90.453125 C 144.1875 -85.65625 139.921875 -81.40625 135.140625 -77.140625 C 129.28125 -72.359375 123.96875 -68.109375 117.578125 -65.96875 C 117.046875 -65.96875 116.515625 -65.96875 116.515625 -65.96875 C 115.984375 -65.4375 115.453125 -65.4375 114.921875 -65.4375 C 111.734375 -65.4375 109.609375 -67.03125 108.53125 -69.703125 C 105.875 -74.484375 104.28125 -79.8125 103.75 -86.1875 C 103.21875 -90.453125 102.6875 -94.703125 102.6875 -98.953125 C 102.15625 -103.21875 101.625 -107.46875 101.09375 -112.265625 C 99.5 -121.3125 97.890625 -134.078125 85.65625 -134.078125 C 64.90625 -134.078125 23.9375 -72.890625 14.890625 -54.796875 C 13.296875 -58.53125 12.765625 -61.71875 14.359375 -64.90625 C 15.421875 -68.109375 16.5 -71.296875 17.5625 -74.484375 C 22.875 -87.78125 28.203125 -101.625 33.515625 -115.453125 C 38.3125 -128.75 43.625 -142.59375 48.953125 -155.890625 L 52.140625 -162.28125 C 53.734375 -166 53.203125 -169.1875 49.484375 -171.3125 C 47.890625 -171.84375 46.8125 -172.390625 46.28125 -172.390625 C 40.4375 -172.390625 35.640625 -158.015625 32.453125 -153.234375 C 27.671875 -139.921875 22.34375 -126.625 17.5625 -113.328125 C 12.765625 -100.03125 7.453125 -86.71875 2.65625 -73.421875 C -3.1875 -55.859375 -8.515625 -38.3125 -10.640625 -19.6875 C -10.640625 -16.5 -10.640625 -14.359375 -10.109375 -12.765625 C -9.578125 -7.984375 -6.921875 -5.328125 -2.65625 -5.328125 Z M -2.65625 -5.328125 "/></g></g></g><g fill="#000000" fill-opacity="1"><g transform="translate(1940.852369, 1239.698368)"><g><path d="M 21.8125 108 C 23.40625 108 25 108 26.0625 107.46875 C 29.796875 105.875 32.453125 104.28125 34.578125 101.625 C 62.78125 73.421875 80.875 37.78125 92.046875 -0.53125 C 95.765625 -10.640625 99.5 -19.6875 107.46875 -26.609375 L 145.78125 -62.25 C 152.703125 -69.171875 160.140625 -75.546875 168.125 -81.9375 C 175.578125 -88.3125 183.03125 -94.703125 189.9375 -101.625 C 193.671875 -104.28125 196.859375 -106.40625 197.390625 -110.671875 C 197.921875 -113.328125 197.390625 -115.453125 195.265625 -117.046875 C 194.734375 -117.578125 193.671875 -118.109375 192.0625 -118.109375 L 190.46875 -118.109375 C 186.21875 -117.578125 183.03125 -114.921875 180.359375 -112.265625 C 155.359375 -90.453125 131.953125 -68.640625 108 -46.8125 C 106.40625 -45.21875 104.8125 -44.15625 103.75 -42.5625 C 102.15625 -40.96875 100.5625 -39.90625 97.890625 -40.4375 C 96.296875 -41.5 95.765625 -43.09375 95.765625 -44.6875 C 95.234375 -46.28125 94.703125 -47.890625 94.171875 -49.484375 C 89.921875 -59.59375 84.0625 -67.5625 72.890625 -70.234375 C 67.03125 -71.828125 65.96875 -74.484375 69.703125 -78.75 C 81.9375 -95.234375 93.109375 -110.671875 102.15625 -128.21875 C 103.75 -131.953125 105.875 -135.671875 107.46875 -139.390625 C 109.0625 -143.125 110.671875 -146.84375 111.734375 -150.5625 C 116.515625 -166 111.203125 -175.578125 98.953125 -175.578125 C 77.140625 -175.578125 34.578125 -143.65625 18.625 -128.75 C 14.890625 -125.5625 14.359375 -121.84375 15.96875 -118.109375 C 17.03125 -116.515625 18.625 -115.984375 20.21875 -115.984375 C 22.875 -115.984375 25.53125 -117.046875 28.203125 -119.171875 C 39.375 -127.6875 64.90625 -149.5 78.203125 -154.828125 C 80.875 -156.421875 84.0625 -157.484375 86.71875 -158.015625 C 89.390625 -158.546875 92.046875 -159.609375 94.703125 -160.671875 C 96.828125 -161.203125 99.5 -158.546875 98.953125 -155.890625 C 86.71875 -123.96875 67.03125 -96.296875 45.21875 -71.296875 C 42.03125 -68.109375 38.84375 -64.375 36.171875 -60.65625 C 33.515625 -58 33.515625 -55.328125 36.171875 -52.671875 C 37.78125 -51.078125 39.90625 -50.015625 41.5 -50.015625 C 42.5625 -50.015625 43.625 -50.015625 44.15625 -50.546875 C 46.8125 -52.140625 49.484375 -53.203125 52.140625 -53.734375 C 55.859375 -55.328125 60.125 -56.390625 63.84375 -56.921875 C 71.828125 -56.921875 75.546875 -55.328125 79.28125 -48.421875 C 85.65625 -36.171875 84.0625 -22.875 75.546875 -12.765625 C 75.015625 -12.234375 73.953125 -11.171875 73.421875 -10.109375 C 72.890625 -9.046875 71.828125 -7.984375 71.296875 -7.453125 C 55.859375 11.171875 40.4375 29.796875 27.140625 50.546875 C 19.15625 61.71875 13.296875 73.953125 11.171875 87.25 C 10.640625 91.515625 9.578125 95.234375 11.171875 98.953125 C 12.765625 104.8125 16.5 108 21.8125 108 Z M 28.734375 87.25 C 28.203125 87.25 27.671875 86.71875 27.140625 86.1875 C 26.609375 85.65625 26.609375 84.59375 26.609375 83 C 27.140625 80.34375 28.203125 78.203125 28.734375 76.078125 C 37.25 56.390625 51.609375 40.96875 65.96875 24.46875 C 58.53125 47.890625 46.8125 68.109375 31.390625 85.65625 C 30.328125 86.71875 29.265625 87.25 28.734375 87.25 Z M 28.734375 87.25 "/></g></g></g><g clip-path="url(#c63e53211b)"><g fill="#000000" fill-opacity="1"><g transform="translate(2111.636326, 1239.698368)"><g><path d="M 2.65625 -45.75 C 9.578125 -45.75 18.625 -53.203125 23.40625 -57.46875 C 36.71875 -69.703125 48.421875 -82.46875 60.65625 -96.828125 C 62.25 -98.421875 64.375 -100.5625 65.96875 -102.6875 C 67.5625 -104.8125 70.234375 -106.40625 73.953125 -108 C 70.234375 -93.640625 67.03125 -79.8125 67.03125 -65.4375 C 67.03125 -55.328125 71.296875 -50.015625 80.34375 -50.015625 C 82.46875 -50.015625 84.0625 -50.015625 85.125 -50.546875 C 107.46875 -54.265625 145.25 -89.921875 160.671875 -105.34375 C 161.203125 -105.875 162.28125 -106.9375 162.8125 -107.46875 C 163.34375 -108 163.34375 -108.53125 163.875 -109.0625 C 164.9375 -112.796875 164.40625 -115.453125 161.75 -117.046875 C 160.671875 -118.109375 159.609375 -118.640625 158.015625 -118.640625 C 157.484375 -118.640625 156.953125 -118.109375 155.359375 -117.578125 C 153.765625 -116.515625 152.171875 -115.453125 151.09375 -114.390625 C 149.5 -112.796875 147.90625 -111.734375 146.3125 -110.140625 C 141.53125 -106.40625 137.265625 -102.6875 133.546875 -98.953125 C 129.28125 -95.234375 125.03125 -90.984375 120.25 -87.25 C 113.859375 -81.40625 106.9375 -77.140625 100.5625 -72.890625 C 95.765625 -70.234375 90.984375 -68.109375 86.1875 -65.96875 C 85.65625 -65.4375 85.125 -65.4375 84.0625 -65.4375 C 81.9375 -65.4375 80.875 -67.03125 80.875 -70.234375 C 80.875 -93.109375 97.359375 -131.953125 107.46875 -152.171875 C 108.53125 -154.828125 109.609375 -156.953125 111.203125 -159.609375 C 112.265625 -161.75 113.328125 -163.875 114.390625 -166.53125 C 115.984375 -171.3125 115.453125 -175.046875 111.734375 -177.171875 C 110.140625 -177.703125 109.0625 -178.234375 108.53125 -178.234375 C 106.9375 -178.234375 104.8125 -177.171875 102.15625 -174.515625 C 100.5625 -172.921875 99.5 -170.78125 98.421875 -169.1875 C 96.828125 -167.0625 95.765625 -164.9375 94.171875 -163.34375 C 90.984375 -159.078125 87.78125 -154.828125 85.125 -150.5625 C 81.9375 -146.3125 78.75 -142.0625 75.546875 -138.328125 C 73.421875 -135.671875 71.828125 -134.078125 70.765625 -134.078125 C 70.234375 -134.078125 68.640625 -135.140625 65.96875 -136.734375 C 60.65625 -141 55.328125 -143.125 50.015625 -143.125 C 44.15625 -143.125 38.3125 -141 32.453125 -136.203125 C 28.734375 -133.546875 26.0625 -131.421875 24.46875 -129.28125 C 8.515625 -113.328125 -9.046875 -81.9375 -9.046875 -58.53125 C -8.515625 -50.015625 -4.25 -45.75 2.65625 -45.75 Z M 7.453125 -64.90625 C 7.453125 -65.4375 7.453125 -65.4375 6.921875 -65.4375 L 6.390625 -65.96875 C 10.640625 -88.859375 21.28125 -108 37.78125 -122.375 C 40.4375 -125.03125 46.8125 -128.75 50.546875 -128.75 C 53.203125 -128.75 55.328125 -127.6875 58 -126.09375 C 60.65625 -124.5 61.1875 -121.84375 60.125 -118.640625 C 59.59375 -117.046875 58.53125 -116.515625 58 -115.984375 C 43.625 -98.421875 29.265625 -80.875 12.234375 -66.5 C 11.171875 -65.4375 9.578125 -64.90625 7.453125 -64.90625 Z M 7.453125 -64.90625 "/></g></g></g></g></svg>