<svg xmlns="http://www.w3.org/2000/svg" xmlns:xlink="http://www.w3.org/1999/xlink" width="3000" zoomAndPan="magnify" viewBox="0 0 2250 2250.000011" height="3000" preserveAspectRatio="xMidYMid meet" version="1.0"><defs><g/><clipPath id="92851fcdba"><path d="M 2061 1043 L 2249.5 1043 L 2249.5 1214 L 2061 1214 Z M 2061 1043 " clip-rule="nonzero"/></clipPath></defs><g fill="#000000" fill-opacity="1"><g transform="translate(4.588536, 1271.695699)"><g><path d="M 21.15625 64.828125 C 38.890625 64.828125 64.828125 25.25 74.375 10.234375 C 91.4375 -17.734375 107.8125 -45.03125 124.1875 -74.375 L 189.6875 -185.59375 C 193.78125 -193.09375 197.875 -196.515625 201.28125 -196.515625 C 203.328125 -196.515625 206.75 -195.828125 211.515625 -194.46875 C 235.40625 -186.953125 259.96875 -180.8125 285.21875 -180.140625 C 291.359375 -180.140625 294.078125 -177.40625 293.40625 -171.953125 C 293.40625 -169.90625 293.40625 -167.171875 292.71875 -165.125 C 292.03125 -163.078125 292.03125 -160.34375 292.03125 -158.296875 C 287.265625 -123.5 283.84375 -88.703125 285.890625 -53.90625 C 286.578125 -30.015625 289.984375 -6.140625 298.171875 16.375 C 305.6875 33.4375 316.59375 45.03125 330.921875 51.171875 C 334.34375 53.21875 337.75 53.90625 341.84375 53.90625 L 345.9375 53.90625 C 352.078125 53.21875 356.171875 46.390625 355.5 38.890625 C 354.8125 33.4375 351.40625 28.65625 346.625 28.65625 C 345.265625 28.65625 343.890625 28.65625 343.21875 29.34375 C 340.484375 30.703125 337.75 31.390625 335.703125 31.390625 C 320.015625 31.390625 309.78125 -3.40625 307.734375 -16.375 C 304.3125 -33.4375 302.265625 -51.171875 302.953125 -69.59375 C 305 -160.34375 324.109375 -245.640625 345.265625 -333.65625 C 348.671875 -347.984375 351.40625 -361.640625 354.125 -377.328125 C 356.171875 -384.828125 356.859375 -393.015625 353.453125 -401.203125 C 350.71875 -407.34375 346.625 -410.078125 340.484375 -410.078125 C 339.796875 -410.078125 337.75 -409.390625 335.015625 -408.71875 C 313.875 -397.109375 264.0625 -334.34375 251.09375 -313.875 C 242.21875 -299.546875 232.671875 -285.21875 223.125 -270.890625 C 213.5625 -256.5625 204.015625 -242.21875 194.46875 -227.890625 C 190.375 -221.75 186.953125 -219.03125 184.90625 -219.03125 C 184.234375 -219.03125 181.5 -219.703125 176.71875 -220.390625 C 169.21875 -222.4375 161.03125 -223.796875 153.53125 -225.171875 C 146.015625 -226.53125 137.828125 -227.890625 130.328125 -229.265625 C 125.546875 -229.9375 120.09375 -230.625 115.3125 -230.625 C 99.625 -230.625 80.515625 -227.21875 70.28125 -214.25 C 64.828125 -208.109375 64.140625 -200.609375 67.546875 -193.09375 C 71.640625 -185.59375 77.78125 -182.1875 85.296875 -182.1875 C 87.34375 -183.546875 88.703125 -184.234375 88.703125 -184.234375 C 89.390625 -185.59375 89.390625 -186.953125 88.015625 -188.328125 C 87.34375 -189 87.34375 -189.6875 86.65625 -189.6875 C 85.96875 -189.6875 84.609375 -190.375 83.921875 -191.046875 C 73.6875 -199.921875 74.375 -206.75 85.96875 -212.203125 C 96.203125 -216.984375 101.671875 -216.984375 113.265625 -216.984375 C 134.421875 -216.984375 155.578125 -212.890625 176.71875 -204.015625 C 176.71875 -200.609375 176.046875 -198.5625 174.671875 -196.515625 C 173.3125 -194.46875 171.953125 -192.421875 171.265625 -190.375 L 89.390625 -49.125 C 81.875 -36.84375 75.0625 -24.5625 68.234375 -12.96875 C 60.734375 -0.6875 53.21875 10.921875 44.34375 22.515625 C 38.203125 30.703125 32.75 37.53125 27.296875 42.984375 C 25.921875 44.34375 24.5625 45.03125 22.515625 45.03125 C 19.78125 45.03125 17.734375 43.671875 17.0625 40.25 C 14.328125 25.921875 15.015625 12.28125 18.421875 0.6875 C 19.78125 -4.78125 22.515625 -7.5 27.296875 -8.1875 C 30.015625 -8.875 33.4375 -10.234375 32.75 -13.640625 C 32.0625 -17.0625 30.015625 -19.78125 25.25 -21.15625 C 17.0625 -21.15625 13.640625 -19.78125 8.875 -12.28125 C -1.359375 8.875 -2.734375 30.703125 4.78125 52.546875 L 6.828125 56.640625 C 10.234375 62.09375 15.015625 64.828125 21.15625 64.828125 Z M 277.703125 -198.5625 C 255.875 -198.5625 235.40625 -204.703125 214.25 -210.84375 C 209.46875 -211.515625 208.109375 -214.25 210.15625 -219.03125 C 210.84375 -221.078125 212.203125 -222.4375 213.5625 -224.484375 C 214.25 -225.84375 215.609375 -227.21875 216.296875 -228.578125 C 237.453125 -260.65625 257.921875 -291.359375 279.75 -323.421875 C 286.578125 -333.65625 294.078125 -343.21875 302.953125 -352.078125 C 311.140625 -360.953125 319.328125 -369.828125 327.515625 -378.6875 C 329.5625 -381.421875 330.921875 -382.109375 332.96875 -381.421875 C 335.015625 -380.734375 336.390625 -380.0625 336.390625 -378.6875 C 336.390625 -377.328125 336.390625 -375.96875 335.703125 -374.59375 C 333.65625 -364.359375 332.296875 -356.171875 329.5625 -345.9375 C 319.328125 -301.59375 309.78125 -257.234375 299.546875 -213.5625 C 296.8125 -199.921875 295.453125 -199.234375 282.484375 -198.5625 Z M 277.703125 -198.5625 "/></g></g></g><g fill="#000000" fill-opacity="1"><g transform="translate(359.3907, 1271.695699)"><g><path d="M 42.984375 -27.96875 L 46.390625 -27.96875 C 79.15625 -31.390625 106.4375 -42.296875 134.421875 -60.734375 C 167.859375 -82.5625 197.875 -107.8125 227.890625 -133.046875 C 228.578125 -133.734375 229.9375 -135.09375 231.3125 -136.46875 C 231.984375 -137.140625 233.359375 -138.515625 234.03125 -139.875 C 236.078125 -143.96875 236.078125 -147.390625 234.03125 -150.109375 C 232.671875 -152.15625 230.625 -153.53125 227.890625 -153.53125 C 227.21875 -153.53125 225.84375 -152.84375 223.796875 -152.15625 C 221.75 -150.796875 219.703125 -149.4375 217.65625 -148.0625 C 215.609375 -146.015625 213.5625 -144.65625 211.515625 -142.609375 C 199.921875 -133.734375 188.328125 -124.1875 176.71875 -115.3125 C 165.125 -105.765625 153.53125 -96.203125 141.921875 -87.34375 C 116 -69.59375 83.25 -49.8125 51.171875 -45.71875 C 49.8125 -45.71875 48.4375 -45.71875 47.078125 -45.71875 C 45.71875 -45.03125 44.34375 -45.03125 42.984375 -45.03125 C 16.375 -45.03125 4.78125 -60.046875 12.28125 -89.390625 C 20.46875 -122.140625 36.84375 -149.4375 60.734375 -170.578125 C 65.5 -175.359375 72.328125 -180.140625 79.828125 -180.140625 C 87.34375 -180.140625 92.109375 -175.359375 92.796875 -166.484375 C 94.84375 -157.625 92.109375 -148.75 87.34375 -141.234375 C 86.65625 -139.1875 85.296875 -137.140625 84.609375 -135.09375 C 83.25 -133.046875 82.5625 -131 83.25 -128.28125 C 83.25 -126.234375 85.96875 -124.1875 88.015625 -124.1875 C 88.703125 -124.1875 88.703125 -124.1875 88.703125 -124.859375 C 88.703125 -124.859375 88.703125 -124.859375 89.390625 -124.859375 C 92.109375 -125.546875 94.15625 -126.90625 94.84375 -128.28125 C 106.4375 -142.609375 111.21875 -158.296875 108.484375 -176.046875 C 106.4375 -190.375 90.75 -197.875 77.78125 -197.875 C 68.921875 -197.875 60.734375 -194.46875 52.546875 -187.640625 C 22.515625 -161.03125 4.78125 -129.640625 -5.453125 -91.4375 C -6.140625 -88.015625 -6.828125 -85.296875 -6.828125 -80.515625 C -8.875 -51.171875 4.78125 -27.96875 42.984375 -27.96875 Z M 42.984375 -27.96875 "/></g></g></g><g fill="#000000" fill-opacity="1"><g transform="translate(561.354996, 1271.695699)"><g><path d="M 29.34375 -24.5625 C 47.765625 -24.5625 66.1875 -38.890625 79.15625 -50.5 C 109.171875 -75.734375 133.046875 -105.765625 156.9375 -136.46875 C 158.984375 -138.515625 160.34375 -140.5625 161.03125 -143.96875 C 161.71875 -147.390625 161.03125 -150.109375 158.296875 -152.15625 C 156.9375 -153.53125 155.578125 -154.203125 153.53125 -154.203125 C 152.15625 -154.203125 150.796875 -153.53125 150.109375 -152.84375 C 146.703125 -150.109375 143.28125 -147.390625 140.5625 -143.96875 C 135.09375 -137.828125 129.640625 -131 124.859375 -124.859375 C 120.09375 -118.71875 114.625 -111.90625 109.171875 -105.765625 C 93.484375 -87.34375 77.109375 -71.640625 58.6875 -55.953125 C 50.5 -49.8125 42.984375 -45.03125 32.75 -42.984375 C 25.25 -42.984375 21.15625 -43.671875 19.109375 -51.171875 C 17.734375 -57.3125 17.0625 -63.453125 17.734375 -68.921875 C 21.828125 -100.984375 32.0625 -135.09375 43.671875 -165.125 C 44.34375 -168.53125 43.671875 -171.265625 40.25 -172.625 C 38.203125 -173.3125 36.84375 -174 35.484375 -174 C 34.109375 -174 32.0625 -173.3125 30.015625 -171.953125 C 12.28125 -154.203125 4.78125 -98.9375 0 -68.921875 C 0 -58.6875 0 -51.859375 2.734375 -44.34375 C 7.5 -31.390625 16.375 -24.5625 29.34375 -24.5625 Z M 47.078125 -198.5625 C 54.59375 -198.5625 61.40625 -205.375 61.40625 -212.890625 C 60.734375 -220.390625 55.953125 -223.796875 47.765625 -223.796875 C 39.578125 -223.796875 35.484375 -219.703125 35.484375 -211.515625 C 36.15625 -203.328125 40.9375 -197.875 47.078125 -198.5625 Z M 47.078125 -198.5625 "/></g></g></g><g fill="#000000" fill-opacity="1"><g transform="translate(688.265005, 1271.695699)"><g><path d="M -4.78125 54.59375 C 25.25 54.59375 45.71875 -1.359375 47.765625 -30.015625 C 49.125 -38.890625 53.90625 -46.390625 61.40625 -51.859375 L 118.046875 -92.109375 C 135.09375 -105.078125 152.15625 -116.671875 170.578125 -129.640625 C 175.359375 -133.046875 179.453125 -136.46875 181.5 -139.875 C 184.90625 -143.28125 184.234375 -146.703125 180.140625 -150.109375 C 178.765625 -151.484375 177.40625 -152.15625 175.359375 -152.15625 C 173.3125 -152.15625 171.265625 -151.484375 169.21875 -150.109375 C 167.171875 -148.0625 165.125 -146.703125 163.078125 -146.015625 L 64.140625 -76.421875 C 61.40625 -74.375 58 -72.328125 53.90625 -70.28125 C 51.859375 -73.6875 50.5 -75.734375 50.5 -76.421875 C 48.4375 -100.984375 44.34375 -124.859375 39.578125 -149.4375 C 38.890625 -152.84375 38.203125 -156.9375 38.203125 -160.34375 C 38.203125 -163.765625 38.203125 -167.859375 38.890625 -171.265625 C 40.9375 -196.515625 62.78125 -217.65625 88.015625 -217.65625 C 90.0625 -217.65625 91.4375 -217.65625 92.109375 -218.34375 C 96.890625 -220.390625 98.25 -225.84375 94.84375 -229.265625 C 89.390625 -234.71875 85.96875 -234.71875 78.46875 -234.71875 C 70.96875 -234.71875 64.140625 -232.671875 57.3125 -228.578125 C 33.4375 -211.515625 19.109375 -189.6875 21.15625 -158.984375 C 21.828125 -150.109375 22.515625 -141.234375 24.5625 -132.375 C 29.34375 -111.21875 32.0625 -92.109375 32.75 -70.96875 C 32.75 -58 30.703125 -49.8125 20.46875 -41.625 C 4.09375 -30.703125 -23.203125 3.40625 -26.609375 21.828125 C -28.65625 33.4375 -26.609375 43.671875 -15.6875 51.171875 C -12.28125 53.21875 -8.1875 54.59375 -4.78125 54.59375 Z M -3.40625 35.484375 C -5.453125 35.484375 -6.140625 34.796875 -6.828125 33.4375 C -8.1875 32.0625 -8.875 30.015625 -8.875 27.96875 C -9.546875 26.609375 -9.546875 25.25 -8.875 23.203125 C -2.046875 6.140625 9.546875 -8.1875 25.25 -19.78125 C 24.5625 2.046875 14.328125 23.203125 1.359375 33.4375 C 0 34.796875 -1.359375 35.484375 -3.40625 35.484375 Z M -3.40625 35.484375 "/></g></g></g><g fill="#000000" fill-opacity="1"><g transform="translate(837.009, 1271.695699)"><g/></g></g><g fill="#000000" fill-opacity="1"><g transform="translate(1096.287487, 1271.695699)"><g><path d="M 99.625 68.921875 L 103.03125 68.921875 C 126.90625 65.5 152.84375 47.078125 168.53125 28.65625 C 211.515625 -15.6875 242.90625 -67.546875 262.015625 -126.234375 C 263.375 -130.328125 264.75 -134.421875 266.109375 -139.1875 C 266.796875 -143.28125 266.796875 -150.796875 264.75 -162.390625 C 264.0625 -163.078125 264.0625 -164.4375 263.375 -165.8125 C 262.703125 -167.171875 261.328125 -168.53125 260.65625 -169.21875 C 259.96875 -171.265625 258.609375 -173.3125 257.921875 -175.359375 C 256.5625 -177.40625 255.1875 -178.765625 254.515625 -180.8125 C 245.640625 -193.09375 234.71875 -199.921875 221.078125 -201.28125 C 216.984375 -201.96875 212.890625 -202.65625 208.796875 -202.65625 C 204.703125 -201.96875 200.609375 -201.96875 196.515625 -202.65625 L 192.421875 -202.65625 C 190.375 -202.65625 189 -203.328125 188.328125 -204.703125 C 187.640625 -206.75 187.640625 -208.796875 189.6875 -210.15625 C 191.046875 -210.84375 192.421875 -212.203125 193.09375 -213.5625 L 210.84375 -230.625 C 249.046875 -268.84375 279.75 -313.875 292.71875 -366.40625 C 294.765625 -375.28125 295.453125 -383.46875 293.40625 -390.96875 C 290.671875 -405.296875 281.796875 -412.125 266.109375 -412.125 C 238.8125 -412.125 206.75 -385.515625 176.046875 -347.3125 C 160.34375 -327.515625 145.328125 -306.359375 131 -282.484375 C 100.984375 -234.71875 75.0625 -184.90625 54.59375 -143.28125 C 44.34375 -122.140625 36.15625 -105.078125 30.015625 -91.4375 C 29.34375 -89.390625 27.96875 -86.65625 27.296875 -84.609375 C 26.609375 -81.875 23.875 -79.828125 19.109375 -78.46875 C 26.609375 -150.109375 41.625 -218.34375 64.828125 -284.53125 L 87.34375 -354.8125 C 88.703125 -358.21875 90.0625 -362.3125 90.75 -365.734375 C 91.4375 -369.140625 92.109375 -373.234375 92.796875 -376.640625 C 93.484375 -382.109375 92.109375 -385.515625 87.34375 -387.5625 C 82.5625 -387.5625 79.15625 -388.25 77.109375 -380.734375 C 76.421875 -378.6875 75.734375 -375.96875 75.0625 -373.921875 C 74.375 -371.1875 73.015625 -368.453125 72.328125 -366.40625 C 64.828125 -342.53125 58 -320.015625 49.8125 -296.125 C 25.921875 -229.9375 10.234375 -160.34375 2.046875 -87.34375 C 0 -71.640625 -0.6875 -55.265625 1.359375 -38.890625 C 2.046875 -33.4375 4.78125 -30.015625 9.546875 -28.65625 C 10.234375 -28.65625 10.234375 -28.65625 10.921875 -28.65625 C 11.59375 -27.96875 11.59375 -27.96875 12.28125 -27.96875 C 15.6875 -27.96875 19.109375 -30.015625 21.15625 -33.4375 C 24.5625 -36.84375 27.296875 -41.625 29.34375 -46.390625 C 31.390625 -51.171875 33.4375 -55.953125 35.484375 -60.734375 C 47.078125 -88.015625 66.1875 -129.640625 88.703125 -174 C 100.296875 -195.828125 112.578125 -218.34375 125.546875 -240.859375 C 151.484375 -286.578125 179.453125 -326.15625 208.109375 -356.171875 C 222.4375 -371.1875 236.078125 -382.109375 250.421875 -388.921875 C 252.46875 -389.609375 255.1875 -390.96875 257.921875 -392.34375 C 259.96875 -393.703125 262.703125 -394.390625 264.75 -394.390625 C 267.46875 -394.390625 269.515625 -393.703125 271.5625 -392.34375 C 279.75 -386.875 277.703125 -378.015625 275.65625 -369.828125 C 255.875 -293.40625 202.65625 -244.28125 143.96875 -194.46875 C 141.921875 -192.421875 139.1875 -190.375 136.46875 -188.328125 C 133.734375 -186.28125 131 -183.546875 128.953125 -181.5 C 120.09375 -172.625 118.046875 -166.484375 121.453125 -162.390625 C 123.5 -160.34375 126.234375 -159.671875 128.28125 -159.671875 C 130.328125 -159.671875 132.375 -160.34375 134.421875 -161.71875 C 135.78125 -162.390625 137.828125 -163.765625 139.875 -164.4375 C 142.609375 -165.8125 145.328125 -167.171875 148.0625 -169.21875 C 150.109375 -170.578125 152.84375 -171.953125 155.578125 -173.3125 C 175.359375 -182.1875 191.734375 -184.90625 213.5625 -184.90625 C 225.171875 -183.546875 234.71875 -178.09375 241.546875 -168.53125 C 249.734375 -154.890625 248.375 -148.75 235.40625 -138.515625 C 233.359375 -137.140625 231.984375 -135.78125 230.625 -134.421875 C 228.578125 -133.046875 226.53125 -131.6875 224.484375 -131 C 185.59375 -101.671875 77.109375 -15.015625 69.59375 32.0625 C 64.828125 51.859375 80.515625 68.921875 99.625 68.921875 Z M 100.296875 50.5 C 92.109375 50.5 85.296875 44.34375 87.34375 36.15625 C 88.703125 17.734375 123.5 -19.109375 147.390625 -42.296875 C 171.265625 -64.828125 211.515625 -99.625 225.171875 -109.171875 C 227.21875 -109.859375 228.578125 -111.21875 230.625 -113.265625 C 231.984375 -114.625 234.03125 -115.3125 236.765625 -114.625 C 238.8125 -111.21875 237.453125 -108.484375 236.765625 -105.765625 C 212.203125 -53.21875 171.265625 15.6875 119.40625 45.03125 C 113.265625 47.765625 107.8125 50.5 100.296875 50.5 Z M 100.296875 50.5 "/></g></g></g><g fill="#000000" fill-opacity="1"><g transform="translate(1406.739399, 1271.695699)"><g><path d="M -2.046875 11.59375 C 2.046875 11.59375 5.453125 9.546875 7.5 6.140625 C 12.28125 -1.359375 16.375 -7.5 19.78125 -15.015625 C 25.921875 -26.609375 31.390625 -37.53125 36.84375 -48.4375 C 41.625 -59.359375 47.078125 -70.28125 52.546875 -81.203125 C 60.734375 -96.890625 70.28125 -111.90625 83.25 -124.859375 C 85.96875 -128.28125 88.703125 -131.6875 94.84375 -131.6875 C 96.890625 -128.953125 98.25 -126.234375 99.625 -123.5 C 100.984375 -120.765625 103.03125 -118.046875 105.078125 -115.3125 C 112.578125 -105.078125 121.453125 -100.296875 133.046875 -100.296875 C 152.15625 -100.296875 180.8125 -122.8125 193.78125 -135.78125 C 195.828125 -137.828125 197.875 -140.5625 199.921875 -144.65625 C 201.28125 -147.390625 200.609375 -150.109375 197.875 -152.84375 C 195.828125 -154.203125 194.46875 -154.890625 192.421875 -154.890625 C 191.046875 -154.890625 190.375 -154.890625 189.6875 -154.203125 C 186.28125 -152.15625 183.546875 -150.109375 180.8125 -147.390625 C 169.21875 -137.828125 145.328125 -118.046875 133.046875 -118.046875 C 126.90625 -118.046875 121.453125 -122.140625 116.671875 -130.328125 C 115.3125 -132.375 113.953125 -135.09375 113.265625 -138.515625 C 111.90625 -141.234375 110.53125 -143.96875 109.171875 -146.015625 C 105.765625 -151.484375 101.671875 -154.203125 96.203125 -154.203125 C 93.484375 -154.203125 90.75 -153.53125 88.015625 -152.15625 C 66.875 -139.1875 50.5 -116 39.578125 -94.84375 L 12.96875 -40.9375 L 12.28125 -41.625 L 12.96875 -41.625 C 9.546875 -49.125 11.59375 -55.953125 13.640625 -63.453125 C 19.109375 -83.921875 26.609375 -105.078125 35.484375 -126.234375 C 41.625 -139.875 47.765625 -153.53125 53.21875 -167.171875 C 55.265625 -172.625 56.640625 -177.40625 56.640625 -182.1875 C 57.3125 -185.59375 55.953125 -187.640625 51.859375 -189 L 49.8125 -189 C 47.078125 -189 45.03125 -188.328125 43.671875 -186.953125 C 41.625 -184.234375 40.25 -180.8125 38.203125 -177.40625 C 14.328125 -122.8125 -4.78125 -77.78125 -13.640625 -17.0625 C -14.328125 -13.640625 -14.328125 -10.921875 -14.328125 -8.1875 C -13.640625 -4.78125 -13.640625 -2.046875 -13.640625 0.6875 C -12.96875 6.140625 -10.234375 9.546875 -5.453125 10.921875 C -4.78125 10.921875 -4.09375 10.921875 -4.09375 11.59375 C -3.40625 11.59375 -2.734375 11.59375 -2.046875 11.59375 Z M -2.046875 11.59375 "/></g></g></g><g fill="#000000" fill-opacity="1"><g transform="translate(1573.223491, 1271.695699)"><g><path d="M 32.0625 -28.65625 C 79.15625 -28.65625 150.796875 -98.25 183.546875 -133.046875 C 186.28125 -135.78125 188.328125 -137.828125 189 -139.875 C 191.046875 -143.28125 190.375 -146.703125 186.953125 -150.109375 C 185.59375 -151.484375 184.234375 -152.15625 182.1875 -152.15625 C 180.8125 -152.15625 178.765625 -151.484375 176.71875 -150.109375 C 174.671875 -148.0625 172.625 -146.015625 170.578125 -143.96875 C 168.53125 -141.921875 165.8125 -139.875 163.765625 -137.828125 C 155.578125 -130.328125 147.390625 -122.8125 139.875 -115.3125 C 131.6875 -107.8125 123.5 -99.625 115.3125 -92.109375 C 95.53125 -73.6875 64.140625 -51.859375 36.84375 -46.390625 C 23.875 -46.390625 16.375 -46.390625 13.640625 -62.09375 C 10.234375 -70.96875 9.546875 -78.46875 11.59375 -85.96875 C 12.28125 -89.390625 14.328125 -91.4375 17.0625 -92.109375 C 49.8125 -95.53125 92.796875 -135.78125 98.25 -169.21875 C 100.296875 -184.90625 91.4375 -194.46875 77.78125 -194.46875 C 77.109375 -194.46875 75.734375 -194.46875 75.0625 -194.46875 C 74.375 -193.78125 73.015625 -193.78125 72.328125 -193.78125 C 36.15625 -188.328125 9.546875 -140.5625 -2.046875 -108.484375 C -4.78125 -98.25 -7.5 -88.703125 -6.828125 -77.109375 C -7.5 -69.59375 -5.453125 -61.40625 -2.734375 -53.90625 C 2.046875 -36.84375 13.640625 -28.65625 32.0625 -28.65625 Z M 25.921875 -112.578125 C 25.25 -111.90625 23.875 -112.578125 21.828125 -113.265625 C 21.15625 -113.265625 20.46875 -114.625 20.46875 -116.671875 C 27.96875 -137.828125 51.171875 -171.953125 73.6875 -175.359375 C 77.109375 -176.046875 79.15625 -174.671875 79.828125 -169.90625 C 79.828125 -148.0625 43.671875 -122.140625 25.921875 -112.578125 Z M 25.921875 -112.578125 "/></g></g></g><g fill="#000000" fill-opacity="1"><g transform="translate(1728.790659, 1271.695699)"><g><path d="M -3.40625 -6.828125 C -0.6875 -6.828125 1.359375 -7.5 3.40625 -8.875 C 7.5 -12.28125 10.921875 -15.6875 12.96875 -20.46875 C 15.015625 -24.5625 17.0625 -28.65625 19.109375 -32.75 C 40.25 -75.734375 66.1875 -116.671875 101.671875 -148.75 C 103.03125 -150.109375 104.390625 -150.796875 106.4375 -150.796875 C 108.484375 -150.796875 110.53125 -148.75 111.21875 -145.328125 C 111.90625 -138.515625 113.265625 -131.6875 113.953125 -125.546875 C 114.625 -118.71875 115.3125 -111.90625 116 -105.078125 C 116.671875 -96.890625 118.71875 -88.703125 123.5 -79.828125 C 128.953125 -70.28125 136.46875 -65.5 145.328125 -65.5 C 146.015625 -65.5 147.390625 -65.5 148.75 -66.1875 C 149.4375 -66.1875 150.796875 -66.1875 151.484375 -66.1875 C 161.71875 -68.234375 170.578125 -73.015625 178.765625 -80.515625 C 186.28125 -87.34375 226.53125 -123.5 234.03125 -131 C 236.765625 -133.734375 238.8125 -137.140625 240.171875 -140.5625 C 241.546875 -143.96875 240.859375 -147.390625 237.453125 -150.109375 C 236.078125 -151.484375 234.71875 -152.15625 232.671875 -152.15625 C 230.625 -152.15625 229.265625 -151.484375 227.890625 -150.109375 C 226.53125 -149.4375 225.171875 -147.390625 223.125 -145.328125 C 221.078125 -143.28125 216.296875 -138.515625 208.796875 -132.375 C 202.65625 -126.90625 196.515625 -121.453125 191.046875 -116 C 184.90625 -109.859375 179.453125 -104.390625 173.3125 -98.9375 C 165.8125 -92.796875 158.984375 -87.34375 150.796875 -84.609375 C 150.109375 -84.609375 149.4375 -84.609375 149.4375 -84.609375 C 148.75 -83.921875 148.0625 -83.921875 147.390625 -83.921875 C 143.28125 -83.921875 140.5625 -85.96875 139.1875 -89.390625 C 135.78125 -95.53125 133.734375 -102.34375 133.046875 -110.53125 C 132.375 -116 131.6875 -121.453125 131.6875 -126.90625 C 131 -132.375 130.328125 -137.828125 129.640625 -143.96875 C 127.59375 -155.578125 125.546875 -171.953125 109.859375 -171.953125 C 83.25 -171.953125 30.703125 -93.484375 19.109375 -70.28125 C 17.0625 -75.0625 16.375 -79.15625 18.421875 -83.25 C 19.78125 -87.34375 21.15625 -91.4375 22.515625 -95.53125 C 29.34375 -112.578125 36.15625 -130.328125 42.984375 -148.0625 C 49.125 -165.125 55.953125 -182.859375 62.78125 -199.921875 L 66.875 -208.109375 C 68.921875 -212.890625 68.234375 -216.984375 63.453125 -219.703125 C 61.40625 -220.390625 60.046875 -221.078125 59.359375 -221.078125 C 51.859375 -221.078125 45.71875 -202.65625 41.625 -196.515625 C 35.484375 -179.453125 28.65625 -162.390625 22.515625 -145.328125 C 16.375 -128.28125 9.546875 -111.21875 3.40625 -94.15625 C -4.09375 -71.640625 -10.921875 -49.125 -13.640625 -25.25 C -13.640625 -21.15625 -13.640625 -18.421875 -12.96875 -16.375 C -12.28125 -10.234375 -8.875 -6.828125 -3.40625 -6.828125 Z M -3.40625 -6.828125 "/></g></g></g><g fill="#000000" fill-opacity="1"><g transform="translate(1935.531129, 1271.695699)"><g><path d="M 12.28125 48.4375 C 23.203125 48.4375 36.15625 38.890625 42.296875 30.703125 C 64.140625 5.453125 88.703125 -27.96875 111.21875 -58.6875 C 130.328125 -84.609375 155.578125 -119.40625 169.21875 -135.78125 C 170.578125 -137.140625 171.265625 -138.515625 171.265625 -139.875 C 173.3125 -143.96875 172.625 -147.390625 169.21875 -150.109375 C 167.171875 -150.796875 165.8125 -151.484375 164.4375 -151.484375 C 163.765625 -151.484375 163.765625 -151.484375 163.078125 -151.484375 C 162.390625 -150.796875 162.390625 -150.796875 161.71875 -150.796875 C 158.296875 -149.4375 155.578125 -147.390625 153.53125 -145.328125 C 151.484375 -142.609375 148.75 -139.875 146.703125 -137.140625 C 126.90625 -117.359375 66.875 -27.296875 38.203125 8.875 C 34.796875 12.96875 31.390625 17.0625 27.96875 21.15625 C 24.5625 24.5625 20.46875 27.296875 14.328125 27.96875 C 4.09375 19.78125 7.5 7.5 8.1875 -2.734375 C 10.234375 -26.609375 12.96875 -48.4375 18.421875 -70.96875 C 27.296875 -110.53125 62.78125 -219.03125 78.46875 -253.828125 C 81.875 -262.703125 88.703125 -266.796875 98.25 -267.46875 L 244.953125 -280.4375 C 248.375 -281.125 251.09375 -281.125 253.828125 -281.796875 C 256.5625 -281.796875 259.28125 -282.484375 262.703125 -283.171875 C 265.421875 -283.84375 266.796875 -286.578125 266.796875 -289.984375 C 266.109375 -294.765625 264.0625 -296.8125 261.328125 -296.8125 L 236.765625 -296.8125 C 217.65625 -294.765625 197.1875 -292.71875 174.671875 -291.359375 C 152.15625 -289.3125 131.6875 -287.265625 112.578125 -285.21875 C 111.90625 -285.21875 110.53125 -285.21875 109.171875 -285.21875 C 107.8125 -284.53125 106.4375 -284.53125 105.078125 -284.53125 C 102.34375 -284.53125 99.625 -285.21875 96.203125 -285.890625 C 96.203125 -289.3125 96.890625 -292.71875 98.25 -295.453125 C 98.9375 -297.5 100.296875 -300.21875 100.984375 -302.265625 C 109.859375 -320.6875 118.71875 -338.4375 126.234375 -356.859375 C 129.640625 -363 130.328125 -368.453125 129.640625 -371.875 C 128.28125 -375.28125 126.234375 -376.640625 123.5 -376.640625 C 118.71875 -376.640625 113.953125 -372.546875 109.171875 -364.359375 C 105.765625 -358.90625 102.34375 -353.453125 99.625 -347.984375 C 96.203125 -342.53125 93.484375 -337.0625 90.0625 -331.609375 L 71.640625 -290.671875 C 68.234375 -283.171875 62.78125 -279.75 54.59375 -279.078125 C 42.984375 -277.703125 30.703125 -276.34375 18.421875 -274.984375 C 6.140625 -273.609375 -6.140625 -272.25 -18.421875 -270.203125 C -21.828125 -269.515625 -25.25 -268.84375 -28.65625 -268.15625 C -31.390625 -267.46875 -34.109375 -266.109375 -37.53125 -265.421875 C -40.9375 -264.75 -41.625 -262.015625 -40.9375 -257.921875 C -40.25 -255.875 -38.890625 -254.515625 -36.15625 -253.828125 C -34.109375 -253.140625 -32.0625 -253.140625 -28.65625 -253.140625 C -23.203125 -253.140625 -17.0625 -254.515625 -11.59375 -255.1875 C -2.734375 -255.875 6.828125 -257.234375 16.375 -258.609375 C 25.25 -259.96875 34.796875 -261.328125 43.671875 -262.015625 L 49.125 -262.015625 C 57.3125 -262.015625 58 -258.609375 54.59375 -248.375 C 49.8125 -236.765625 46.390625 -225.84375 41.625 -212.890625 C 19.109375 -151.484375 -9.546875 -58 -9.546875 8.1875 C -9.546875 23.875 -5.453125 48.4375 12.28125 48.4375 Z M 12.28125 48.4375 "/></g></g></g><g clip-path="url(#92851fcdba)"><g fill="#000000" fill-opacity="1"><g transform="translate(2072.675774, 1271.695699)"><g><path d="M 3.40625 -58.6875 C 12.28125 -58.6875 23.875 -68.234375 30.015625 -73.6875 C 47.078125 -89.390625 62.09375 -105.765625 77.78125 -124.1875 C 79.828125 -126.234375 82.5625 -128.953125 84.609375 -131.6875 C 86.65625 -134.421875 90.0625 -136.46875 94.84375 -138.515625 C 90.0625 -120.09375 85.96875 -102.34375 85.96875 -83.921875 C 85.96875 -70.96875 91.4375 -64.140625 103.03125 -64.140625 C 105.765625 -64.140625 107.8125 -64.140625 109.171875 -64.828125 C 137.828125 -69.59375 186.28125 -115.3125 206.0625 -135.09375 C 206.75 -135.78125 208.109375 -137.140625 208.796875 -137.828125 C 209.46875 -138.515625 209.46875 -139.1875 210.15625 -139.875 C 211.515625 -144.65625 210.84375 -148.0625 207.421875 -150.109375 C 206.0625 -151.484375 204.703125 -152.15625 202.65625 -152.15625 C 201.96875 -152.15625 201.28125 -151.484375 199.234375 -150.796875 C 197.1875 -149.4375 195.140625 -148.0625 193.78125 -146.703125 C 191.734375 -144.65625 189.6875 -143.28125 187.640625 -141.234375 C 181.5 -136.46875 176.046875 -131.6875 171.265625 -126.90625 C 165.8125 -122.140625 160.34375 -116.671875 154.203125 -111.90625 C 146.015625 -104.390625 137.140625 -98.9375 128.953125 -93.484375 C 122.8125 -90.0625 116.671875 -87.34375 110.53125 -84.609375 C 109.859375 -83.921875 109.171875 -83.921875 107.8125 -83.921875 C 105.078125 -83.921875 103.71875 -85.96875 103.71875 -90.0625 C 103.71875 -119.40625 124.859375 -169.21875 137.828125 -195.140625 C 139.1875 -198.5625 140.5625 -201.28125 142.609375 -204.703125 C 143.96875 -207.421875 145.328125 -210.15625 146.703125 -213.5625 C 148.75 -219.703125 148.0625 -224.484375 143.28125 -227.21875 C 141.234375 -227.890625 139.875 -228.578125 139.1875 -228.578125 C 137.140625 -228.578125 134.421875 -227.21875 131 -223.796875 C 128.953125 -221.75 127.59375 -219.03125 126.234375 -216.984375 C 124.1875 -214.25 122.8125 -211.515625 120.765625 -209.46875 C 116.671875 -204.015625 112.578125 -198.5625 109.171875 -193.09375 C 105.078125 -187.640625 100.984375 -182.1875 96.890625 -177.40625 C 94.15625 -174 92.109375 -171.953125 90.75 -171.953125 C 90.0625 -171.953125 88.015625 -173.3125 84.609375 -175.359375 C 77.78125 -180.8125 70.96875 -183.546875 64.140625 -183.546875 C 56.640625 -183.546875 49.125 -180.8125 41.625 -174.671875 C 36.84375 -171.265625 33.4375 -168.53125 31.390625 -165.8125 C 10.921875 -145.328125 -11.59375 -105.078125 -11.59375 -75.0625 C -10.921875 -64.140625 -5.453125 -58.6875 3.40625 -58.6875 Z M 9.546875 -83.25 C 9.546875 -83.921875 9.546875 -83.921875 8.875 -83.921875 L 8.1875 -84.609375 C 13.640625 -113.953125 27.296875 -138.515625 48.4375 -156.9375 C 51.859375 -160.34375 60.046875 -165.125 64.828125 -165.125 C 68.234375 -165.125 70.96875 -163.765625 74.375 -161.71875 C 77.78125 -159.671875 78.46875 -156.25 77.109375 -152.15625 C 76.421875 -150.109375 75.0625 -149.4375 74.375 -148.75 C 55.953125 -126.234375 37.53125 -103.71875 15.6875 -85.296875 C 14.328125 -83.921875 12.28125 -83.25 9.546875 -83.25 Z M 9.546875 -83.25 "/></g></g></g></g></svg>