<svg xmlns="http://www.w3.org/2000/svg" xmlns:xlink="http://www.w3.org/1999/xlink" width="3000" zoomAndPan="magnify" viewBox="0 0 2250 2250.000011" height="3000" preserveAspectRatio="xMidYMid meet" version="1.0"><defs><filter x="0%" y="0%" width="100%" height="100%" id="cf03799f3f"><feColorMatrix values="0 0 0 0 1 0 0 0 0 1 0 0 0 0 1 0 0 0 1 0" color-interpolation-filters="sRGB"/></filter><clipPath id="b3720d4b50"><path d="M 0.5 0 L 2249.5 0 L 2249.5 2249 L 0.5 2249 Z M 0.5 0 " clip-rule="nonzero"/></clipPath><mask id="6715bad079"><g filter="url(#cf03799f3f)"><rect x="-225" width="2700" fill="#000000" y="-225.000001" height="2700.000013" fill-opacity="0.37"/></g></mask><clipPath id="2642ee989f"><path d="M 185 423 L 2087 423 L 2087 1951 L 185 1951 Z M 185 423 " clip-rule="nonzero"/></clipPath><clipPath id="4f0ad2f029"><path d="M -128.824219 926.386719 L 1693.503906 -0.140625 L 2405.984375 1401.183594 L 583.65625 2327.714844 Z M -128.824219 926.386719 " clip-rule="nonzero"/></clipPath><clipPath id="2434ef8837"><path d="M -128.824219 926.386719 L 1693.503906 -0.140625 L 2405.984375 1401.183594 L 583.65625 2327.714844 Z M -128.824219 926.386719 " clip-rule="nonzero"/></clipPath><clipPath id="c05c70bd70"><path d="M 1653.371094 708.117188 C 1648.726562 671.390625 1636.890625 634.3125 1618.28125 599.679688 C 1538.140625 445.996094 1347.925781 381.351562 1190.992188 453.125 C 1098.183594 495.300781 1034.796875 575.632812 1009.433594 665.699219 C 986.417969 748.558594 904.867188 801.046875 819.710938 793.230469 C 704.972656 782.414062 586.46875 805.585938 477.40625 867.046875 C 219.5 1014.210938 114.195312 1337.34375 235.878906 1608.210938 C 372.566406 1912.535156 734.582031 2037.15625 1028.4375 1887.75 C 1113.644531 1844.425781 1184.347656 1782.421875 1236.597656 1709.757812 C 1288.050781 1637.496094 1382.976562 1613.285156 1462.351562 1653.101562 C 1605.070312 1724.859375 1785.203125 1716.457031 1927.480469 1604.03125 C 2049.890625 1507.71875 2116.425781 1301.511719 2073.859375 1150.773438 C 2029.269531 996.050781 1913.089844 889.757812 1777.78125 850.3125 C 1712.539062 832.375 1663.019531 776.371094 1653.371094 708.117188 Z M 1268.296875 1076.28125 C 1267.90625 1077.480469 1267.90625 1077.480469 1267.511719 1078.683594 C 1267.109375 1077.886719 1266.703125 1077.089844 1265.894531 1075.496094 C 1266.296875 1076.292969 1267.5 1076.683594 1268.296875 1076.28125 Z M 1268.296875 1076.28125 " clip-rule="nonzero"/></clipPath><linearGradient x1="-33.802232" gradientTransform="matrix(7.963485, -4.048887, 4.048887, 7.963485, -115.148108, 919.77355)" y1="96.306999" x2="249.980691" gradientUnits="userSpaceOnUse" y2="96.306999" id="648445682d"><stop stop-opacity="1" stop-color="rgb(87.799072%, 83.499146%, 83.898926%)" offset="0"/><stop stop-opacity="1" stop-color="rgb(87.799072%, 83.499146%, 83.898926%)" offset="0.0625"/><stop stop-opacity="1" stop-color="rgb(87.799072%, 83.499146%, 83.898926%)" offset="0.09375"/><stop stop-opacity="1" stop-color="rgb(87.799072%, 83.499146%, 83.898926%)" offset="0.109375"/><stop stop-opacity="1" stop-color="rgb(87.799072%, 83.499146%, 83.898926%)" offset="0.117188"/><stop stop-opacity="1" stop-color="rgb(87.791443%, 83.200073%, 83.631897%)" offset="0.121094"/><stop stop-opacity="1" stop-color="rgb(87.783813%, 82.902527%, 83.364868%)" offset="0.125"/><stop stop-opacity="1" stop-color="rgb(87.773132%, 82.505798%, 83.009338%)" offset="0.128906"/><stop stop-opacity="1" stop-color="rgb(87.763977%, 82.10907%, 82.655334%)" offset="0.132812"/><stop stop-opacity="1" stop-color="rgb(87.753296%, 81.712341%, 82.299805%)" offset="0.136719"/><stop stop-opacity="1" stop-color="rgb(87.742615%, 81.317139%, 81.945801%)" offset="0.140625"/><stop stop-opacity="1" stop-color="rgb(87.731934%, 80.92041%, 81.590271%)" offset="0.144531"/><stop stop-opacity="1" stop-color="rgb(87.722778%, 80.523682%, 81.236267%)" offset="0.148437"/><stop stop-opacity="1" stop-color="rgb(87.712097%, 80.126953%, 80.882263%)" offset="0.152344"/><stop stop-opacity="1" stop-color="rgb(87.702942%, 79.730225%, 80.528259%)" offset="0.15625"/><stop stop-opacity="1" stop-color="rgb(87.692261%, 79.333496%, 80.172729%)" offset="0.160156"/><stop stop-opacity="1" stop-color="rgb(87.68158%, 78.938293%, 79.818726%)" offset="0.164062"/><stop stop-opacity="1" stop-color="rgb(87.670898%, 78.541565%, 79.463196%)" offset="0.167969"/><stop stop-opacity="1" stop-color="rgb(87.661743%, 78.144836%, 79.109192%)" offset="0.171875"/><stop stop-opacity="1" stop-color="rgb(87.651062%, 77.748108%, 78.753662%)" offset="0.175781"/><stop stop-opacity="1" stop-color="rgb(87.641907%, 77.352905%, 78.399658%)" offset="0.179688"/><stop stop-opacity="1" stop-color="rgb(87.631226%, 76.956177%, 78.044128%)" offset="0.183594"/><stop stop-opacity="1" stop-color="rgb(87.62207%, 76.559448%, 77.690125%)" offset="0.1875"/><stop stop-opacity="1" stop-color="rgb(87.611389%, 76.16272%, 77.334595%)" offset="0.191406"/><stop stop-opacity="1" stop-color="rgb(87.600708%, 75.767517%, 76.980591%)" offset="0.195312"/><stop stop-opacity="1" stop-color="rgb(87.590027%, 75.370789%, 76.626587%)" offset="0.199219"/><stop stop-opacity="1" stop-color="rgb(87.580872%, 74.97406%, 76.272583%)" offset="0.203125"/><stop stop-opacity="1" stop-color="rgb(87.57019%, 74.577332%, 75.917053%)" offset="0.207031"/><stop stop-opacity="1" stop-color="rgb(87.561035%, 74.182129%, 75.563049%)" offset="0.210938"/><stop stop-opacity="1" stop-color="rgb(87.550354%, 73.7854%, 75.20752%)" offset="0.214844"/><stop stop-opacity="1" stop-color="rgb(87.539673%, 73.388672%, 74.853516%)" offset="0.21875"/><stop stop-opacity="1" stop-color="rgb(87.528992%, 72.991943%, 74.497986%)" offset="0.222656"/><stop stop-opacity="1" stop-color="rgb(87.519836%, 72.596741%, 74.143982%)" offset="0.226562"/><stop stop-opacity="1" stop-color="rgb(87.509155%, 72.200012%, 73.788452%)" offset="0.230469"/><stop stop-opacity="1" stop-color="rgb(87.5%, 71.803284%, 73.434448%)" offset="0.234375"/><stop stop-opacity="1" stop-color="rgb(87.489319%, 71.406555%, 73.078918%)" offset="0.238281"/><stop stop-opacity="1" stop-color="rgb(87.478638%, 71.011353%, 72.724915%)" offset="0.242188"/><stop stop-opacity="1" stop-color="rgb(87.467957%, 70.614624%, 72.370911%)" offset="0.246094"/><stop stop-opacity="1" stop-color="rgb(87.458801%, 70.217896%, 72.016907%)" offset="0.25"/><stop stop-opacity="1" stop-color="rgb(87.44812%, 69.821167%, 71.661377%)" offset="0.253906"/><stop stop-opacity="1" stop-color="rgb(87.438965%, 69.425964%, 71.307373%)" offset="0.257812"/><stop stop-opacity="1" stop-color="rgb(87.428284%, 69.029236%, 70.951843%)" offset="0.261719"/><stop stop-opacity="1" stop-color="rgb(87.417603%, 68.632507%, 70.597839%)" offset="0.265625"/><stop stop-opacity="1" stop-color="rgb(87.406921%, 68.235779%, 70.24231%)" offset="0.269531"/><stop stop-opacity="1" stop-color="rgb(87.397766%, 67.840576%, 69.888306%)" offset="0.273437"/><stop stop-opacity="1" stop-color="rgb(87.387085%, 67.443848%, 69.532776%)" offset="0.277344"/><stop stop-opacity="1" stop-color="rgb(87.37793%, 67.047119%, 69.178772%)" offset="0.28125"/><stop stop-opacity="1" stop-color="rgb(87.367249%, 66.650391%, 68.823242%)" offset="0.285156"/><stop stop-opacity="1" stop-color="rgb(87.356567%, 66.255188%, 68.469238%)" offset="0.289062"/><stop stop-opacity="1" stop-color="rgb(87.345886%, 65.858459%, 68.115234%)" offset="0.292969"/><stop stop-opacity="1" stop-color="rgb(87.336731%, 65.461731%, 67.76123%)" offset="0.296875"/><stop stop-opacity="1" stop-color="rgb(87.32605%, 65.065002%, 67.405701%)" offset="0.300781"/><stop stop-opacity="1" stop-color="rgb(87.316895%, 64.6698%, 67.051697%)" offset="0.304687"/><stop stop-opacity="1" stop-color="rgb(87.306213%, 64.273071%, 66.696167%)" offset="0.308594"/><stop stop-opacity="1" stop-color="rgb(87.295532%, 63.876343%, 66.342163%)" offset="0.3125"/><stop stop-opacity="1" stop-color="rgb(87.284851%, 63.479614%, 65.986633%)" offset="0.316406"/><stop stop-opacity="1" stop-color="rgb(87.275696%, 63.084412%, 65.632629%)" offset="0.320312"/><stop stop-opacity="1" stop-color="rgb(87.265015%, 62.687683%, 65.2771%)" offset="0.324219"/><stop stop-opacity="1" stop-color="rgb(87.255859%, 62.290955%, 64.923096%)" offset="0.328125"/><stop stop-opacity="1" stop-color="rgb(87.245178%, 61.894226%, 64.567566%)" offset="0.332031"/><stop stop-opacity="1" stop-color="rgb(87.234497%, 61.497498%, 64.213562%)" offset="0.335938"/><stop stop-opacity="1" stop-color="rgb(87.223816%, 61.100769%, 63.859558%)" offset="0.339844"/><stop stop-opacity="1" stop-color="rgb(87.214661%, 60.705566%, 63.505554%)" offset="0.34375"/><stop stop-opacity="1" stop-color="rgb(87.203979%, 60.308838%, 63.150024%)" offset="0.347656"/><stop stop-opacity="1" stop-color="rgb(87.194824%, 59.912109%, 62.796021%)" offset="0.351562"/><stop stop-opacity="1" stop-color="rgb(87.184143%, 59.515381%, 62.440491%)" offset="0.355469"/><stop stop-opacity="1" stop-color="rgb(87.173462%, 59.120178%, 62.086487%)" offset="0.359375"/><stop stop-opacity="1" stop-color="rgb(87.162781%, 58.72345%, 61.730957%)" offset="0.363281"/><stop stop-opacity="1" stop-color="rgb(87.153625%, 58.326721%, 61.376953%)" offset="0.367188"/><stop stop-opacity="1" stop-color="rgb(87.142944%, 57.929993%, 61.021423%)" offset="0.371094"/><stop stop-opacity="1" stop-color="rgb(87.133789%, 57.53479%, 60.667419%)" offset="0.375"/><stop stop-opacity="1" stop-color="rgb(87.123108%, 57.138062%, 60.31189%)" offset="0.378906"/><stop stop-opacity="1" stop-color="rgb(87.112427%, 56.741333%, 59.957886%)" offset="0.382812"/><stop stop-opacity="1" stop-color="rgb(87.101746%, 56.344604%, 59.603882%)" offset="0.386719"/><stop stop-opacity="1" stop-color="rgb(87.09259%, 55.949402%, 59.249878%)" offset="0.390625"/><stop stop-opacity="1" stop-color="rgb(87.081909%, 55.552673%, 58.894348%)" offset="0.394531"/><stop stop-opacity="1" stop-color="rgb(87.072754%, 55.155945%, 58.540344%)" offset="0.398437"/><stop stop-opacity="1" stop-color="rgb(87.062073%, 54.759216%, 58.184814%)" offset="0.402344"/><stop stop-opacity="1" stop-color="rgb(87.052917%, 54.364014%, 57.830811%)" offset="0.40625"/><stop stop-opacity="1" stop-color="rgb(87.042236%, 53.967285%, 57.475281%)" offset="0.410156"/><stop stop-opacity="1" stop-color="rgb(87.031555%, 53.570557%, 57.121277%)" offset="0.414062"/><stop stop-opacity="1" stop-color="rgb(87.020874%, 53.173828%, 56.765747%)" offset="0.417969"/><stop stop-opacity="1" stop-color="rgb(87.011719%, 52.778625%, 56.411743%)" offset="0.421875"/><stop stop-opacity="1" stop-color="rgb(87.001038%, 52.381897%, 56.056213%)" offset="0.425781"/><stop stop-opacity="1" stop-color="rgb(86.991882%, 51.985168%, 55.702209%)" offset="0.429687"/><stop stop-opacity="1" stop-color="rgb(86.981201%, 51.58844%, 55.348206%)" offset="0.433594"/><stop stop-opacity="1" stop-color="rgb(86.97052%, 51.193237%, 54.994202%)" offset="0.4375"/><stop stop-opacity="1" stop-color="rgb(86.959839%, 50.796509%, 54.638672%)" offset="0.441406"/><stop stop-opacity="1" stop-color="rgb(86.950684%, 50.39978%, 54.284668%)" offset="0.445312"/><stop stop-opacity="1" stop-color="rgb(86.940002%, 50.003052%, 53.929138%)" offset="0.449219"/><stop stop-opacity="1" stop-color="rgb(86.930847%, 49.607849%, 53.575134%)" offset="0.453125"/><stop stop-opacity="1" stop-color="rgb(86.920166%, 49.211121%, 53.219604%)" offset="0.457031"/><stop stop-opacity="1" stop-color="rgb(86.909485%, 48.814392%, 52.865601%)" offset="0.460937"/><stop stop-opacity="1" stop-color="rgb(86.898804%, 48.417664%, 52.510071%)" offset="0.464844"/><stop stop-opacity="1" stop-color="rgb(86.889648%, 48.022461%, 52.156067%)" offset="0.46875"/><stop stop-opacity="1" stop-color="rgb(86.878967%, 47.625732%, 51.800537%)" offset="0.472656"/><stop stop-opacity="1" stop-color="rgb(86.869812%, 47.229004%, 51.446533%)" offset="0.476562"/><stop stop-opacity="1" stop-color="rgb(86.859131%, 46.832275%, 51.092529%)" offset="0.480469"/><stop stop-opacity="1" stop-color="rgb(86.84845%, 46.437073%, 50.738525%)" offset="0.484375"/><stop stop-opacity="1" stop-color="rgb(86.837769%, 46.040344%, 50.382996%)" offset="0.488281"/><stop stop-opacity="1" stop-color="rgb(86.828613%, 45.643616%, 50.028992%)" offset="0.492187"/><stop stop-opacity="1" stop-color="rgb(86.817932%, 45.246887%, 49.673462%)" offset="0.496094"/><stop stop-opacity="1" stop-color="rgb(86.808777%, 44.851685%, 49.319458%)" offset="0.5"/><stop stop-opacity="1" stop-color="rgb(86.798096%, 44.454956%, 48.963928%)" offset="0.503906"/><stop stop-opacity="1" stop-color="rgb(86.787415%, 44.058228%, 48.609924%)" offset="0.507812"/><stop stop-opacity="1" stop-color="rgb(86.776733%, 43.661499%, 48.254395%)" offset="0.511719"/><stop stop-opacity="1" stop-color="rgb(86.767578%, 43.266296%, 47.900391%)" offset="0.515625"/><stop stop-opacity="1" stop-color="rgb(86.756897%, 42.869568%, 47.544861%)" offset="0.519531"/><stop stop-opacity="1" stop-color="rgb(86.747742%, 42.472839%, 47.190857%)" offset="0.523437"/><stop stop-opacity="1" stop-color="rgb(86.737061%, 42.076111%, 46.836853%)" offset="0.527344"/><stop stop-opacity="1" stop-color="rgb(86.726379%, 41.679382%, 46.482849%)" offset="0.53125"/><stop stop-opacity="1" stop-color="rgb(86.715698%, 41.282654%, 46.127319%)" offset="0.535156"/><stop stop-opacity="1" stop-color="rgb(86.706543%, 40.887451%, 45.773315%)" offset="0.539062"/><stop stop-opacity="1" stop-color="rgb(86.695862%, 40.490723%, 45.417786%)" offset="0.542969"/><stop stop-opacity="1" stop-color="rgb(86.686707%, 40.093994%, 45.063782%)" offset="0.546875"/><stop stop-opacity="1" stop-color="rgb(86.676025%, 39.697266%, 44.708252%)" offset="0.550781"/><stop stop-opacity="1" stop-color="rgb(86.665344%, 39.302063%, 44.354248%)" offset="0.554687"/><stop stop-opacity="1" stop-color="rgb(86.654663%, 38.905334%, 43.998718%)" offset="0.558594"/><stop stop-opacity="1" stop-color="rgb(86.645508%, 38.508606%, 43.644714%)" offset="0.5625"/><stop stop-opacity="1" stop-color="rgb(86.634827%, 38.111877%, 43.289185%)" offset="0.566406"/><stop stop-opacity="1" stop-color="rgb(86.625671%, 37.716675%, 42.935181%)" offset="0.570312"/><stop stop-opacity="1" stop-color="rgb(86.61499%, 37.319946%, 42.581177%)" offset="0.574219"/><stop stop-opacity="1" stop-color="rgb(86.604309%, 36.923218%, 42.227173%)" offset="0.578125"/><stop stop-opacity="1" stop-color="rgb(86.593628%, 36.526489%, 41.871643%)" offset="0.582031"/><stop stop-opacity="1" stop-color="rgb(86.584473%, 36.131287%, 41.517639%)" offset="0.585937"/><stop stop-opacity="1" stop-color="rgb(86.573792%, 35.734558%, 41.162109%)" offset="0.589844"/><stop stop-opacity="1" stop-color="rgb(86.564636%, 35.33783%, 40.808105%)" offset="0.59375"/><stop stop-opacity="1" stop-color="rgb(86.553955%, 34.941101%, 40.452576%)" offset="0.597656"/><stop stop-opacity="1" stop-color="rgb(86.543274%, 34.545898%, 40.098572%)" offset="0.601562"/><stop stop-opacity="1" stop-color="rgb(86.532593%, 34.14917%, 39.743042%)" offset="0.605469"/><stop stop-opacity="1" stop-color="rgb(86.523438%, 33.752441%, 39.389038%)" offset="0.609375"/><stop stop-opacity="1" stop-color="rgb(86.512756%, 33.355713%, 39.033508%)" offset="0.613281"/><stop stop-opacity="1" stop-color="rgb(86.503601%, 32.96051%, 38.679504%)" offset="0.617187"/><stop stop-opacity="1" stop-color="rgb(86.49292%, 32.563782%, 38.323975%)" offset="0.621094"/><stop stop-opacity="1" stop-color="rgb(86.483765%, 32.167053%, 37.969971%)" offset="0.625"/><stop stop-opacity="1" stop-color="rgb(86.473083%, 31.770325%, 37.615967%)" offset="0.628906"/><stop stop-opacity="1" stop-color="rgb(86.462402%, 31.375122%, 37.261963%)" offset="0.632812"/><stop stop-opacity="1" stop-color="rgb(86.451721%, 30.978394%, 36.906433%)" offset="0.636719"/><stop stop-opacity="1" stop-color="rgb(86.442566%, 30.581665%, 36.552429%)" offset="0.640625"/><stop stop-opacity="1" stop-color="rgb(86.431885%, 30.184937%, 36.196899%)" offset="0.644531"/><stop stop-opacity="1" stop-color="rgb(86.422729%, 29.789734%, 35.842896%)" offset="0.648437"/><stop stop-opacity="1" stop-color="rgb(86.412048%, 29.393005%, 35.487366%)" offset="0.652344"/><stop stop-opacity="1" stop-color="rgb(86.401367%, 28.996277%, 35.133362%)" offset="0.65625"/><stop stop-opacity="1" stop-color="rgb(86.390686%, 28.599548%, 34.777832%)" offset="0.660156"/><stop stop-opacity="1" stop-color="rgb(86.381531%, 28.204346%, 34.423828%)" offset="0.664062"/><stop stop-opacity="1" stop-color="rgb(86.37085%, 27.807617%, 34.068298%)" offset="0.667969"/><stop stop-opacity="1" stop-color="rgb(86.361694%, 27.410889%, 33.714294%)" offset="0.671875"/><stop stop-opacity="1" stop-color="rgb(86.351013%, 27.01416%, 33.360291%)" offset="0.675781"/><stop stop-opacity="1" stop-color="rgb(86.340332%, 26.618958%, 33.006287%)" offset="0.679688"/><stop stop-opacity="1" stop-color="rgb(86.329651%, 26.222229%, 32.650757%)" offset="0.683594"/><stop stop-opacity="1" stop-color="rgb(86.320496%, 25.8255%, 32.296753%)" offset="0.6875"/><stop stop-opacity="1" stop-color="rgb(86.309814%, 25.428772%, 31.941223%)" offset="0.691406"/><stop stop-opacity="1" stop-color="rgb(86.300659%, 25.033569%, 31.587219%)" offset="0.695312"/><stop stop-opacity="1" stop-color="rgb(86.289978%, 24.636841%, 31.231689%)" offset="0.699219"/><stop stop-opacity="1" stop-color="rgb(86.279297%, 24.240112%, 30.877686%)" offset="0.703125"/><stop stop-opacity="1" stop-color="rgb(86.268616%, 23.843384%, 30.522156%)" offset="0.707031"/><stop stop-opacity="1" stop-color="rgb(86.25946%, 23.446655%, 30.168152%)" offset="0.710938"/><stop stop-opacity="1" stop-color="rgb(86.248779%, 23.049927%, 29.812622%)" offset="0.714844"/><stop stop-opacity="1" stop-color="rgb(86.239624%, 22.654724%, 29.458618%)" offset="0.71875"/><stop stop-opacity="1" stop-color="rgb(86.228943%, 22.257996%, 29.104614%)" offset="0.722656"/><stop stop-opacity="1" stop-color="rgb(86.218262%, 21.861267%, 28.75061%)" offset="0.726562"/><stop stop-opacity="1" stop-color="rgb(86.207581%, 21.464539%, 28.395081%)" offset="0.730469"/><stop stop-opacity="1" stop-color="rgb(86.198425%, 21.069336%, 28.041077%)" offset="0.734375"/><stop stop-opacity="1" stop-color="rgb(86.187744%, 20.672607%, 27.685547%)" offset="0.738281"/><stop stop-opacity="1" stop-color="rgb(86.178589%, 20.275879%, 27.331543%)" offset="0.742188"/><stop stop-opacity="1" stop-color="rgb(86.167908%, 19.87915%, 26.976013%)" offset="0.746094"/><stop stop-opacity="1" stop-color="rgb(86.157227%, 19.483948%, 26.622009%)" offset="0.75"/><stop stop-opacity="1" stop-color="rgb(86.146545%, 19.087219%, 26.266479%)" offset="0.753906"/><stop stop-opacity="1" stop-color="rgb(86.13739%, 18.690491%, 25.912476%)" offset="0.757812"/><stop stop-opacity="1" stop-color="rgb(86.126709%, 18.293762%, 25.556946%)" offset="0.761719"/><stop stop-opacity="1" stop-color="rgb(86.117554%, 17.89856%, 25.202942%)" offset="0.765625"/><stop stop-opacity="1" stop-color="rgb(86.106873%, 17.501831%, 24.848938%)" offset="0.769531"/><stop stop-opacity="1" stop-color="rgb(86.096191%, 17.105103%, 24.494934%)" offset="0.773438"/><stop stop-opacity="1" stop-color="rgb(86.08551%, 16.708374%, 24.139404%)" offset="0.777344"/><stop stop-opacity="1" stop-color="rgb(86.076355%, 16.313171%, 23.7854%)" offset="0.78125"/><stop stop-opacity="1" stop-color="rgb(86.065674%, 15.916443%, 23.429871%)" offset="0.785156"/><stop stop-opacity="1" stop-color="rgb(86.056519%, 15.519714%, 23.075867%)" offset="0.789062"/><stop stop-opacity="1" stop-color="rgb(86.045837%, 15.122986%, 22.720337%)" offset="0.792969"/><stop stop-opacity="1" stop-color="rgb(86.035156%, 14.727783%, 22.366333%)" offset="0.796875"/><stop stop-opacity="1" stop-color="rgb(86.024475%, 14.331055%, 22.010803%)" offset="0.800781"/><stop stop-opacity="1" stop-color="rgb(86.01532%, 13.934326%, 21.656799%)" offset="0.804688"/><stop stop-opacity="1" stop-color="rgb(86.004639%, 13.537598%, 21.30127%)" offset="0.808594"/><stop stop-opacity="1" stop-color="rgb(85.995483%, 13.142395%, 20.947266%)" offset="0.8125"/><stop stop-opacity="1" stop-color="rgb(85.984802%, 12.745667%, 20.593262%)" offset="0.816406"/><stop stop-opacity="1" stop-color="rgb(85.974121%, 12.348938%, 20.239258%)" offset="0.820312"/><stop stop-opacity="1" stop-color="rgb(85.96344%, 11.952209%, 19.883728%)" offset="0.824219"/><stop stop-opacity="1" stop-color="rgb(85.954285%, 11.557007%, 19.529724%)" offset="0.828125"/><stop stop-opacity="1" stop-color="rgb(85.943604%, 11.160278%, 19.174194%)" offset="0.832031"/><stop stop-opacity="1" stop-color="rgb(85.934448%, 10.76355%, 18.82019%)" offset="0.835938"/><stop stop-opacity="1" stop-color="rgb(85.923767%, 10.366821%, 18.464661%)" offset="0.839844"/><stop stop-opacity="1" stop-color="rgb(85.914612%, 9.971619%, 18.110657%)" offset="0.84375"/><stop stop-opacity="1" stop-color="rgb(85.906982%, 9.684753%, 17.854309%)" offset="0.847656"/><stop stop-opacity="1" stop-color="rgb(85.899353%, 9.399414%, 17.599487%)" offset="0.851562"/><stop stop-opacity="1" stop-color="rgb(85.899353%, 9.399414%, 17.599487%)" offset="0.859375"/><stop stop-opacity="1" stop-color="rgb(85.899353%, 9.399414%, 17.599487%)" offset="0.875"/><stop stop-opacity="1" stop-color="rgb(85.899353%, 9.399414%, 17.599487%)" offset="1"/></linearGradient><clipPath id="a8002d171e"><path d="M 682 481 L 853 481 L 853 652 L 682 652 Z M 682 481 " clip-rule="nonzero"/></clipPath><clipPath id="175b1702f1"><path d="M -128.824219 926.386719 L 1693.503906 -0.140625 L 2405.984375 1401.183594 L 583.65625 2327.714844 Z M -128.824219 926.386719 " clip-rule="nonzero"/></clipPath><clipPath id="8d8e1c07b0"><path d="M -128.824219 926.386719 L 1693.503906 -0.140625 L 2405.984375 1401.183594 L 583.65625 2327.714844 Z M -128.824219 926.386719 " clip-rule="nonzero"/></clipPath><clipPath id="87e5e1d96d"><path d="M 843.097656 527.78125 C 843.726562 529.019531 844.328125 530.269531 844.894531 531.539062 C 845.464844 532.804688 846 534.085938 846.503906 535.378906 C 847.011719 536.675781 847.484375 537.980469 847.925781 539.296875 C 848.363281 540.613281 848.773438 541.941406 849.148438 543.277344 C 849.523438 544.617188 849.867188 545.960938 850.175781 547.316406 C 850.488281 548.667969 850.765625 550.03125 851.007812 551.398438 C 851.25 552.765625 851.460938 554.136719 851.632812 555.515625 C 851.808594 556.894531 851.953125 558.273438 852.058594 559.660156 C 852.167969 561.042969 852.242188 562.429688 852.28125 563.820312 C 852.320312 565.207031 852.324219 566.597656 852.296875 567.984375 C 852.269531 569.375 852.207031 570.761719 852.109375 572.144531 C 852.011719 573.53125 851.882812 574.914062 851.71875 576.292969 C 851.554688 577.671875 851.355469 579.046875 851.125 580.417969 C 850.890625 581.785156 850.625 583.148438 850.328125 584.503906 C 850.027344 585.863281 849.695312 587.210938 849.332031 588.550781 C 848.96875 589.890625 848.570312 591.21875 848.140625 592.539062 C 847.707031 593.863281 847.246094 595.171875 846.75 596.46875 C 846.257812 597.765625 845.730469 599.050781 845.171875 600.324219 C 844.613281 601.59375 844.027344 602.851562 843.40625 604.097656 C 842.789062 605.339844 842.136719 606.566406 841.457031 607.777344 C 840.777344 608.988281 840.070312 610.183594 839.332031 611.359375 C 838.59375 612.535156 837.824219 613.695312 837.03125 614.832031 C 836.234375 615.972656 835.414062 617.089844 834.5625 618.1875 C 833.710938 619.285156 832.835938 620.363281 831.933594 621.417969 C 831.03125 622.476562 830.101562 623.507812 829.148438 624.515625 C 828.195312 625.527344 827.21875 626.511719 826.214844 627.472656 C 825.210938 628.4375 824.1875 629.371094 823.140625 630.285156 C 822.089844 631.195312 821.023438 632.082031 819.929688 632.941406 C 818.839844 633.800781 817.726562 634.628906 816.59375 635.433594 C 815.460938 636.238281 814.3125 637.015625 813.140625 637.761719 C 811.96875 638.511719 810.78125 639.230469 809.574219 639.917969 C 808.371094 640.609375 807.148438 641.269531 805.910156 641.898438 C 804.671875 642.527344 803.417969 643.125 802.152344 643.695312 C 800.882812 644.261719 799.601562 644.796875 798.308594 645.304688 C 797.015625 645.808594 795.710938 646.28125 794.394531 646.722656 C 793.074219 647.164062 791.75 647.570312 790.410156 647.949219 C 789.074219 648.324219 787.730469 648.667969 786.375 648.976562 C 785.019531 649.285156 783.660156 649.5625 782.292969 649.804688 C 780.925781 650.046875 779.550781 650.257812 778.175781 650.433594 C 776.796875 650.609375 775.414062 650.75 774.03125 650.859375 C 772.644531 650.964844 771.257812 651.039062 769.871094 651.078125 C 768.484375 651.121094 767.09375 651.125 765.707031 651.097656 C 764.316406 651.066406 762.929688 651.003906 761.542969 650.910156 C 760.160156 650.8125 758.777344 650.683594 757.398438 650.515625 C 756.019531 650.351562 754.644531 650.15625 753.273438 649.921875 C 751.90625 649.691406 750.542969 649.425781 749.183594 649.125 C 747.828125 648.828125 746.480469 648.496094 745.140625 648.132812 C 743.800781 647.765625 742.46875 647.367188 741.148438 646.9375 C 739.828125 646.507812 738.519531 646.046875 737.222656 645.550781 C 735.921875 645.054688 734.640625 644.53125 733.367188 643.972656 C 732.09375 643.414062 730.835938 642.824219 729.59375 642.207031 C 728.351562 641.585938 727.125 640.9375 725.910156 640.257812 C 724.699219 639.578125 723.507812 638.867188 722.332031 638.128906 C 721.152344 637.390625 719.996094 636.625 718.859375 635.828125 C 717.71875 635.035156 716.601562 634.210938 715.5 633.363281 C 714.402344 632.511719 713.328125 631.636719 712.269531 630.730469 C 711.214844 629.828125 710.183594 628.902344 709.171875 627.945312 C 708.164062 626.992188 707.175781 626.015625 706.214844 625.011719 C 705.253906 624.011719 704.316406 622.988281 703.40625 621.9375 C 702.496094 620.890625 701.609375 619.820312 700.75 618.730469 C 699.890625 617.636719 699.058594 616.527344 698.253906 615.394531 C 697.449219 614.261719 696.675781 613.109375 695.925781 611.9375 C 695.179688 610.769531 694.460938 609.582031 693.769531 608.375 C 693.082031 607.167969 692.421875 605.945312 691.792969 604.710938 C 691.164062 603.472656 690.5625 602.21875 689.996094 600.949219 C 689.429688 599.683594 688.890625 598.402344 688.386719 597.109375 C 687.882812 595.816406 687.410156 594.507812 686.96875 593.191406 C 686.527344 591.875 686.117188 590.546875 685.742188 589.210938 C 685.367188 587.875 685.023438 586.527344 684.714844 585.175781 C 684.402344 583.820312 684.128906 582.460938 683.882812 581.089844 C 683.640625 579.722656 683.433594 578.351562 683.257812 576.972656 C 683.082031 575.597656 682.9375 574.214844 682.832031 572.828125 C 682.722656 571.445312 682.648438 570.058594 682.609375 568.671875 C 682.570312 567.28125 682.566406 565.894531 682.59375 564.503906 C 682.621094 563.117188 682.683594 561.730469 682.78125 560.34375 C 682.878906 558.957031 683.007812 557.574219 683.171875 556.195312 C 683.335938 554.816406 683.535156 553.441406 683.765625 552.074219 C 684 550.703125 684.265625 549.339844 684.5625 547.984375 C 684.863281 546.628906 685.195312 545.28125 685.558594 543.9375 C 685.925781 542.597656 686.320312 541.269531 686.753906 539.949219 C 687.183594 538.628906 687.644531 537.320312 688.140625 536.019531 C 688.632812 534.722656 689.160156 533.4375 689.71875 532.164062 C 690.277344 530.894531 690.863281 529.636719 691.484375 528.394531 C 692.105469 527.148438 692.753906 525.921875 693.433594 524.710938 C 694.113281 523.5 694.820312 522.304688 695.558594 521.128906 C 696.296875 519.953125 697.066406 518.796875 697.859375 517.65625 C 698.65625 516.519531 699.476562 515.398438 700.328125 514.300781 C 701.179688 513.203125 702.054688 512.125 702.957031 511.070312 C 703.859375 510.015625 704.789062 508.980469 705.742188 507.972656 C 706.695312 506.960938 707.675781 505.976562 708.675781 505.015625 C 709.679688 504.054688 710.703125 503.117188 711.75 502.203125 C 712.800781 501.292969 713.871094 500.40625 714.960938 499.550781 C 716.050781 498.691406 717.164062 497.859375 718.296875 497.054688 C 719.429688 496.25 720.582031 495.472656 721.75 494.726562 C 722.921875 493.976562 724.109375 493.257812 725.316406 492.570312 C 726.519531 491.878906 727.742188 491.222656 728.980469 490.589844 C 730.21875 489.960938 731.472656 489.363281 732.738281 488.796875 C 734.007812 488.226562 735.289062 487.691406 736.582031 487.183594 C 737.875 486.679688 739.179688 486.207031 740.5 485.765625 C 741.816406 485.324219 743.140625 484.917969 744.480469 484.542969 C 745.816406 484.164062 747.164062 483.824219 748.515625 483.511719 C 749.871094 483.203125 751.230469 482.925781 752.597656 482.683594 C 753.964844 482.441406 755.339844 482.230469 756.714844 482.054688 C 758.09375 481.878906 759.476562 481.738281 760.859375 481.628906 C 762.246094 481.523438 763.632812 481.449219 765.019531 481.410156 C 766.410156 481.371094 767.796875 481.363281 769.1875 481.390625 C 770.574219 481.421875 771.960938 481.484375 773.347656 481.582031 C 774.734375 481.675781 776.113281 481.808594 777.496094 481.972656 C 778.875 482.136719 780.246094 482.335938 781.617188 482.566406 C 782.988281 482.796875 784.351562 483.0625 785.707031 483.363281 C 787.0625 483.660156 788.410156 483.992188 789.75 484.359375 C 791.089844 484.722656 792.421875 485.121094 793.742188 485.550781 C 795.0625 485.980469 796.371094 486.445312 797.667969 486.9375 C 798.96875 487.433594 800.253906 487.960938 801.523438 488.515625 C 802.796875 489.074219 804.054688 489.664062 805.296875 490.28125 C 806.539062 490.902344 807.769531 491.550781 808.980469 492.230469 C 810.191406 492.910156 811.382812 493.621094 812.5625 494.359375 C 813.738281 495.097656 814.894531 495.863281 816.035156 496.660156 C 817.171875 497.453125 818.292969 498.277344 819.390625 499.128906 C 820.488281 499.976562 821.566406 500.855469 822.621094 501.757812 C 823.675781 502.660156 824.707031 503.589844 825.71875 504.542969 C 826.726562 505.496094 827.714844 506.472656 828.675781 507.476562 C 829.636719 508.476562 830.574219 509.503906 831.484375 510.550781 C 832.398438 511.597656 833.28125 512.667969 834.140625 513.761719 C 835 514.851562 835.832031 515.964844 836.636719 517.097656 C 837.441406 518.226562 838.214844 519.378906 838.964844 520.550781 C 839.710938 521.71875 840.429688 522.910156 841.121094 524.113281 C 841.808594 525.320312 842.46875 526.542969 843.097656 527.78125 Z M 843.097656 527.78125 " clip-rule="nonzero"/></clipPath><linearGradient x1="93.224534" gradientTransform="matrix(7.963485, -4.048887, 4.048887, 7.963485, -115.148108, 919.77355)" y1="96.306999" x2="118.77545" gradientUnits="userSpaceOnUse" y2="96.306999" id="a3d145cdf1"><stop stop-opacity="1" stop-color="rgb(86.94458%, 50.166321%, 54.074097%)" offset="0"/><stop stop-opacity="1" stop-color="rgb(86.940002%, 50.022888%, 53.945923%)" offset="0.03125"/><stop stop-opacity="1" stop-color="rgb(86.932373%, 49.737549%, 53.691101%)" offset="0.0625"/><stop stop-opacity="1" stop-color="rgb(86.92627%, 49.452209%, 53.436279%)" offset="0.09375"/><stop stop-opacity="1" stop-color="rgb(86.91864%, 49.165344%, 53.179932%)" offset="0.125"/><stop stop-opacity="1" stop-color="rgb(86.911011%, 48.880005%, 52.92511%)" offset="0.15625"/><stop stop-opacity="1" stop-color="rgb(86.903381%, 48.594666%, 52.668762%)" offset="0.1875"/><stop stop-opacity="1" stop-color="rgb(86.895752%, 48.309326%, 52.41394%)" offset="0.21875"/><stop stop-opacity="1" stop-color="rgb(86.889648%, 48.023987%, 52.159119%)" offset="0.25"/><stop stop-opacity="1" stop-color="rgb(86.882019%, 47.738647%, 51.902771%)" offset="0.28125"/><stop stop-opacity="1" stop-color="rgb(86.87439%, 47.453308%, 51.647949%)" offset="0.3125"/><stop stop-opacity="1" stop-color="rgb(86.86676%, 47.167969%, 51.391602%)" offset="0.34375"/><stop stop-opacity="1" stop-color="rgb(86.859131%, 46.882629%, 51.13678%)" offset="0.375"/><stop stop-opacity="1" stop-color="rgb(86.853027%, 46.59729%, 50.881958%)" offset="0.40625"/><stop stop-opacity="1" stop-color="rgb(86.845398%, 46.310425%, 50.62561%)" offset="0.4375"/><stop stop-opacity="1" stop-color="rgb(86.837769%, 46.025085%, 50.370789%)" offset="0.46875"/><stop stop-opacity="1" stop-color="rgb(86.830139%, 45.739746%, 50.114441%)" offset="0.5"/><stop stop-opacity="1" stop-color="rgb(86.82251%, 45.454407%, 49.859619%)" offset="0.53125"/><stop stop-opacity="1" stop-color="rgb(86.816406%, 45.169067%, 49.603271%)" offset="0.5625"/><stop stop-opacity="1" stop-color="rgb(86.808777%, 44.883728%, 49.34845%)" offset="0.59375"/><stop stop-opacity="1" stop-color="rgb(86.801147%, 44.598389%, 49.093628%)" offset="0.625"/><stop stop-opacity="1" stop-color="rgb(86.793518%, 44.313049%, 48.83728%)" offset="0.65625"/><stop stop-opacity="1" stop-color="rgb(86.785889%, 44.02771%, 48.582458%)" offset="0.6875"/><stop stop-opacity="1" stop-color="rgb(86.779785%, 43.740845%, 48.326111%)" offset="0.71875"/><stop stop-opacity="1" stop-color="rgb(86.772156%, 43.455505%, 48.071289%)" offset="0.75"/><stop stop-opacity="1" stop-color="rgb(86.764526%, 43.170166%, 47.816467%)" offset="0.78125"/><stop stop-opacity="1" stop-color="rgb(86.756897%, 42.884827%, 47.56012%)" offset="0.8125"/><stop stop-opacity="1" stop-color="rgb(86.749268%, 42.599487%, 47.305298%)" offset="0.84375"/><stop stop-opacity="1" stop-color="rgb(86.743164%, 42.314148%, 47.04895%)" offset="0.875"/><stop stop-opacity="1" stop-color="rgb(86.735535%, 42.028809%, 46.794128%)" offset="0.90625"/><stop stop-opacity="1" stop-color="rgb(86.727905%, 41.743469%, 46.539307%)" offset="0.9375"/><stop stop-opacity="1" stop-color="rgb(86.720276%, 41.45813%, 46.282959%)" offset="0.96875"/><stop stop-opacity="1" stop-color="rgb(86.712646%, 41.172791%, 46.028137%)" offset="1"/></linearGradient><clipPath id="ae7d99cead"><path d="M 1305 1742 L 1415 1742 L 1415 1852 L 1305 1852 Z M 1305 1742 " clip-rule="nonzero"/></clipPath><clipPath id="8f65b27894"><path d="M -128.824219 926.386719 L 1693.503906 -0.140625 L 2405.984375 1401.183594 L 583.65625 2327.714844 Z M -128.824219 926.386719 " clip-rule="nonzero"/></clipPath><clipPath id="8425eb04fc"><path d="M -128.824219 926.386719 L 1693.503906 -0.140625 L 2405.984375 1401.183594 L 583.65625 2327.714844 Z M -128.824219 926.386719 " clip-rule="nonzero"/></clipPath><clipPath id="9a9954a11a"><path d="M 1408.816406 1772.523438 C 1409.628906 1774.117188 1410.355469 1775.742188 1411.003906 1777.40625 C 1411.65625 1779.066406 1412.21875 1780.757812 1412.703125 1782.476562 C 1413.1875 1784.195312 1413.582031 1785.933594 1413.894531 1787.6875 C 1414.207031 1789.445312 1414.433594 1791.214844 1414.570312 1792.992188 C 1414.710938 1794.773438 1414.761719 1796.554688 1414.726562 1798.339844 C 1414.6875 1800.125 1414.5625 1801.902344 1414.351562 1803.675781 C 1414.140625 1805.445312 1413.84375 1807.203125 1413.460938 1808.949219 C 1413.074219 1810.691406 1412.609375 1812.410156 1412.054688 1814.109375 C 1411.5 1815.804688 1410.867188 1817.46875 1410.148438 1819.105469 C 1409.433594 1820.738281 1408.636719 1822.335938 1407.765625 1823.890625 C 1406.890625 1825.449219 1405.945312 1826.957031 1404.921875 1828.421875 C 1403.898438 1829.882812 1402.808594 1831.292969 1401.648438 1832.652344 C 1400.488281 1834.007812 1399.265625 1835.300781 1397.976562 1836.539062 C 1396.6875 1837.773438 1395.34375 1838.945312 1393.941406 1840.046875 C 1392.539062 1841.152344 1391.085938 1842.183594 1389.582031 1843.144531 C 1388.078125 1844.105469 1386.53125 1844.992188 1384.9375 1845.800781 C 1383.347656 1846.609375 1381.722656 1847.335938 1380.058594 1847.988281 C 1378.394531 1848.636719 1376.707031 1849.203125 1374.988281 1849.683594 C 1373.269531 1850.167969 1371.53125 1850.566406 1369.773438 1850.878906 C 1368.015625 1851.191406 1366.25 1851.414062 1364.46875 1851.554688 C 1362.691406 1851.691406 1360.90625 1851.742188 1359.125 1851.707031 C 1357.339844 1851.667969 1355.5625 1851.546875 1353.789062 1851.335938 C 1352.015625 1851.125 1350.257812 1850.824219 1348.515625 1850.441406 C 1346.773438 1850.058594 1345.054688 1849.589844 1343.355469 1849.035156 C 1341.660156 1848.484375 1339.992188 1847.847656 1338.359375 1847.132812 C 1336.722656 1846.414062 1335.128906 1845.621094 1333.570312 1844.746094 C 1332.015625 1843.875 1330.503906 1842.925781 1329.042969 1841.902344 C 1327.578125 1840.882812 1326.167969 1839.789062 1324.8125 1838.628906 C 1323.457031 1837.46875 1322.160156 1836.246094 1320.925781 1834.957031 C 1319.6875 1833.671875 1318.519531 1832.324219 1317.414062 1830.921875 C 1316.3125 1829.519531 1315.28125 1828.066406 1314.320312 1826.5625 C 1313.359375 1825.058594 1312.472656 1823.511719 1311.664062 1821.921875 C 1310.855469 1820.328125 1310.125 1818.703125 1309.476562 1817.039062 C 1308.828125 1815.378906 1308.261719 1813.6875 1307.777344 1811.96875 C 1307.296875 1810.25 1306.898438 1808.511719 1306.585938 1806.757812 C 1306.273438 1805 1306.046875 1803.230469 1305.910156 1801.449219 C 1305.769531 1799.671875 1305.71875 1797.890625 1305.757812 1796.105469 C 1305.792969 1794.320312 1305.917969 1792.542969 1306.128906 1790.769531 C 1306.339844 1788.996094 1306.636719 1787.242188 1307.023438 1785.496094 C 1307.40625 1783.753906 1307.875 1782.035156 1308.425781 1780.335938 C 1308.980469 1778.640625 1309.617188 1776.976562 1310.332031 1775.339844 C 1311.046875 1773.707031 1311.84375 1772.109375 1312.71875 1770.554688 C 1313.589844 1768.996094 1314.539062 1767.488281 1315.558594 1766.023438 C 1316.582031 1764.5625 1317.671875 1763.152344 1318.832031 1761.792969 C 1319.992188 1760.4375 1321.21875 1759.144531 1322.503906 1757.90625 C 1323.792969 1756.671875 1325.136719 1755.5 1326.539062 1754.398438 C 1327.941406 1753.292969 1329.394531 1752.261719 1330.902344 1751.300781 C 1332.40625 1750.339844 1333.953125 1749.453125 1335.542969 1748.644531 C 1337.132812 1747.835938 1338.761719 1747.109375 1340.421875 1746.457031 C 1342.085938 1745.808594 1343.777344 1745.242188 1345.496094 1744.761719 C 1347.210938 1744.277344 1348.949219 1743.878906 1350.707031 1743.566406 C 1352.464844 1743.253906 1354.234375 1743.03125 1356.011719 1742.890625 C 1357.792969 1742.753906 1359.574219 1742.703125 1361.359375 1742.738281 C 1363.144531 1742.773438 1364.921875 1742.898438 1366.691406 1743.109375 C 1368.464844 1743.320312 1370.222656 1743.621094 1371.964844 1744.003906 C 1373.710938 1744.386719 1375.429688 1744.855469 1377.125 1745.410156 C 1378.824219 1745.960938 1380.488281 1746.597656 1382.125 1747.3125 C 1383.757812 1748.03125 1385.351562 1748.824219 1386.910156 1749.699219 C 1388.464844 1750.570312 1389.976562 1751.519531 1391.441406 1752.542969 C 1392.902344 1753.5625 1394.3125 1754.65625 1395.667969 1755.816406 C 1397.023438 1756.976562 1398.320312 1758.199219 1399.558594 1759.488281 C 1400.792969 1760.773438 1401.960938 1762.121094 1403.066406 1763.523438 C 1404.171875 1764.925781 1405.203125 1766.378906 1406.164062 1767.882812 C 1407.125 1769.386719 1408.007812 1770.933594 1408.816406 1772.523438 Z M 1408.816406 1772.523438 " clip-rule="nonzero"/></clipPath><linearGradient x1="94.494051" gradientTransform="matrix(7.963485, -4.048887, 4.048887, 7.963485, -115.148108, 919.77355)" y1="96.306999" x2="110.905941" gradientUnits="userSpaceOnUse" y2="96.306999" id="6932fd7c69"><stop stop-opacity="1" stop-color="rgb(86.932373%, 49.711609%, 53.668213%)" offset="0"/><stop stop-opacity="1" stop-color="rgb(86.927795%, 49.528503%, 53.503418%)" offset="0.0625"/><stop stop-opacity="1" stop-color="rgb(86.91864%, 49.162292%, 53.175354%)" offset="0.125"/><stop stop-opacity="1" stop-color="rgb(86.909485%, 48.794556%, 52.84729%)" offset="0.1875"/><stop stop-opacity="1" stop-color="rgb(86.90033%, 48.428345%, 52.519226%)" offset="0.25"/><stop stop-opacity="1" stop-color="rgb(86.891174%, 48.060608%, 52.191162%)" offset="0.3125"/><stop stop-opacity="1" stop-color="rgb(86.880493%, 47.694397%, 51.863098%)" offset="0.375"/><stop stop-opacity="1" stop-color="rgb(86.871338%, 47.328186%, 51.535034%)" offset="0.4375"/><stop stop-opacity="1" stop-color="rgb(86.862183%, 46.960449%, 51.20697%)" offset="0.5"/><stop stop-opacity="1" stop-color="rgb(86.853027%, 46.594238%, 50.878906%)" offset="0.5625"/><stop stop-opacity="1" stop-color="rgb(86.843872%, 46.228027%, 50.550842%)" offset="0.625"/><stop stop-opacity="1" stop-color="rgb(86.834717%, 45.860291%, 50.222778%)" offset="0.6875"/><stop stop-opacity="1" stop-color="rgb(86.824036%, 45.49408%, 49.894714%)" offset="0.75"/><stop stop-opacity="1" stop-color="rgb(86.81488%, 45.127869%, 49.56665%)" offset="0.8125"/><stop stop-opacity="1" stop-color="rgb(86.805725%, 44.760132%, 49.237061%)" offset="0.875"/><stop stop-opacity="1" stop-color="rgb(86.79657%, 44.393921%, 48.908997%)" offset="0.9375"/><stop stop-opacity="1" stop-color="rgb(86.787415%, 44.02771%, 48.580933%)" offset="1"/></linearGradient><clipPath id="1193472cac"><path d="M 1706 479 L 1993 479 L 1993 766 L 1706 766 Z M 1706 479 " clip-rule="nonzero"/></clipPath><clipPath id="8003339026"><path d="M -128.824219 926.386719 L 1693.503906 -0.140625 L 2405.984375 1401.183594 L 583.65625 2327.714844 Z M -128.824219 926.386719 " clip-rule="nonzero"/></clipPath><clipPath id="ba7f815b88"><path d="M -128.824219 926.386719 L 1693.503906 -0.140625 L 2405.984375 1401.183594 L 583.65625 2327.714844 Z M -128.824219 926.386719 " clip-rule="nonzero"/></clipPath><clipPath id="f0776b151c"><path d="M 1976.78125 557.714844 C 1977.839844 559.800781 1978.851562 561.910156 1979.804688 564.046875 C 1980.761719 566.179688 1981.667969 568.335938 1982.515625 570.515625 C 1983.367188 572.695312 1984.164062 574.894531 1984.90625 577.113281 C 1985.648438 579.332031 1986.339844 581.566406 1986.972656 583.816406 C 1987.605469 586.070312 1988.183594 588.335938 1988.703125 590.617188 C 1989.226562 592.894531 1989.691406 595.1875 1990.101562 597.492188 C 1990.507812 599.792969 1990.863281 602.105469 1991.15625 604.425781 C 1991.453125 606.746094 1991.691406 609.074219 1991.875 611.40625 C 1992.054688 613.738281 1992.179688 616.074219 1992.246094 618.414062 C 1992.3125 620.75 1992.324219 623.089844 1992.273438 625.429688 C 1992.226562 627.765625 1992.121094 630.101562 1991.957031 632.4375 C 1991.796875 634.769531 1991.574219 637.097656 1991.296875 639.421875 C 1991.023438 641.746094 1990.6875 644.058594 1990.296875 646.367188 C 1989.90625 648.671875 1989.460938 650.96875 1988.957031 653.25 C 1988.453125 655.535156 1987.894531 657.808594 1987.28125 660.0625 C 1986.664062 662.320312 1985.996094 664.5625 1985.269531 666.785156 C 1984.546875 669.011719 1983.765625 671.214844 1982.933594 673.402344 C 1982.101562 675.585938 1981.214844 677.75 1980.273438 679.894531 C 1979.335938 682.035156 1978.34375 684.152344 1977.300781 686.246094 C 1976.257812 688.339844 1975.164062 690.410156 1974.019531 692.449219 C 1972.875 694.488281 1971.679688 696.5 1970.4375 698.480469 C 1969.191406 700.460938 1967.902344 702.410156 1966.5625 704.328125 C 1965.222656 706.246094 1963.835938 708.132812 1962.40625 709.980469 C 1960.972656 711.832031 1959.496094 713.644531 1957.976562 715.421875 C 1956.457031 717.199219 1954.890625 718.941406 1953.285156 720.640625 C 1951.679688 722.339844 1950.03125 724 1948.34375 725.621094 C 1946.65625 727.242188 1944.929688 728.820312 1943.164062 730.355469 C 1941.402344 731.890625 1939.597656 733.378906 1937.761719 734.828125 C 1935.921875 736.273438 1934.050781 737.671875 1932.140625 739.027344 C 1930.234375 740.382812 1928.296875 741.691406 1926.324219 742.949219 C 1924.351562 744.210938 1922.351562 745.417969 1920.320312 746.582031 C 1918.292969 747.742188 1916.234375 748.851562 1914.148438 749.914062 C 1912.0625 750.972656 1909.953125 751.980469 1907.816406 752.9375 C 1905.683594 753.894531 1903.527344 754.796875 1901.347656 755.648438 C 1899.167969 756.5 1896.96875 757.296875 1894.75 758.039062 C 1892.53125 758.78125 1890.296875 759.46875 1888.046875 760.101562 C 1885.792969 760.734375 1883.527344 761.3125 1881.246094 761.835938 C 1878.964844 762.355469 1876.675781 762.824219 1874.371094 763.230469 C 1872.066406 763.640625 1869.757812 763.992188 1867.4375 764.289062 C 1865.113281 764.585938 1862.789062 764.824219 1860.457031 765.003906 C 1858.125 765.1875 1855.789062 765.3125 1853.449219 765.378906 C 1851.113281 765.445312 1848.773438 765.453125 1846.433594 765.40625 C 1844.097656 765.359375 1841.757812 765.253906 1839.425781 765.089844 C 1837.09375 764.925781 1834.765625 764.707031 1832.441406 764.429688 C 1830.117188 764.152344 1827.804688 763.820312 1825.496094 763.429688 C 1823.191406 763.039062 1820.894531 762.59375 1818.609375 762.089844 C 1816.328125 761.585938 1814.054688 761.027344 1811.796875 760.410156 C 1809.542969 759.796875 1807.300781 759.125 1805.078125 758.402344 C 1802.851562 757.675781 1800.648438 756.898438 1798.460938 756.066406 C 1796.277344 755.230469 1794.113281 754.347656 1791.96875 753.40625 C 1789.828125 752.46875 1787.707031 751.476562 1785.613281 750.433594 C 1783.519531 749.390625 1781.453125 748.296875 1779.414062 747.148438 C 1777.375 746.003906 1775.363281 744.8125 1773.382812 743.566406 C 1771.398438 742.324219 1769.449219 741.03125 1767.53125 739.695312 C 1765.613281 738.355469 1763.730469 736.96875 1761.882812 735.535156 C 1760.03125 734.105469 1758.21875 732.628906 1756.441406 731.109375 C 1754.664062 729.585938 1752.921875 728.023438 1751.222656 726.417969 C 1749.523438 724.8125 1747.859375 723.164062 1746.242188 721.476562 C 1744.621094 719.789062 1743.042969 718.0625 1741.507812 716.296875 C 1739.972656 714.53125 1738.484375 712.730469 1737.035156 710.890625 C 1735.589844 709.054688 1734.1875 707.179688 1732.835938 705.273438 C 1731.480469 703.367188 1730.171875 701.429688 1728.914062 699.457031 C 1727.652344 697.484375 1726.445312 695.484375 1725.28125 693.453125 C 1724.121094 691.421875 1723.011719 689.363281 1721.949219 687.28125 C 1720.890625 685.195312 1719.882812 683.085938 1718.925781 680.949219 C 1717.96875 678.816406 1717.0625 676.65625 1716.214844 674.480469 C 1715.363281 672.300781 1714.566406 670.101562 1713.824219 667.882812 C 1713.082031 665.664062 1712.390625 663.429688 1711.757812 661.175781 C 1711.125 658.925781 1710.550781 656.660156 1710.027344 654.378906 C 1709.503906 652.097656 1709.039062 649.804688 1708.632812 647.503906 C 1708.222656 645.199219 1707.867188 642.886719 1707.574219 640.566406 C 1707.277344 638.246094 1707.039062 635.921875 1706.859375 633.589844 C 1706.675781 631.257812 1706.550781 628.921875 1706.484375 626.582031 C 1706.417969 624.242188 1706.410156 621.90625 1706.457031 619.566406 C 1706.503906 617.226562 1706.609375 614.890625 1706.773438 612.558594 C 1706.933594 610.222656 1707.15625 607.894531 1707.433594 605.574219 C 1707.707031 603.25 1708.042969 600.9375 1708.433594 598.628906 C 1708.824219 596.324219 1709.269531 594.027344 1709.773438 591.742188 C 1710.277344 589.457031 1710.835938 587.1875 1711.453125 584.929688 C 1712.066406 582.671875 1712.734375 580.433594 1713.460938 578.207031 C 1714.1875 575.984375 1714.964844 573.78125 1715.796875 571.59375 C 1716.628906 569.40625 1717.515625 567.242188 1718.457031 565.101562 C 1719.394531 562.957031 1720.386719 560.839844 1721.429688 558.746094 C 1722.472656 556.652344 1723.566406 554.585938 1724.710938 552.546875 C 1725.855469 550.507812 1727.050781 548.496094 1728.292969 546.515625 C 1729.539062 544.53125 1730.828125 542.582031 1732.167969 540.664062 C 1733.507812 538.746094 1734.894531 536.863281 1736.324219 535.011719 C 1737.757812 533.164062 1739.234375 531.347656 1740.753906 529.570312 C 1742.273438 527.792969 1743.839844 526.054688 1745.445312 524.355469 C 1747.050781 522.652344 1748.699219 520.992188 1750.386719 519.375 C 1752.074219 517.753906 1753.800781 516.175781 1755.566406 514.640625 C 1757.332031 513.105469 1759.132812 511.613281 1760.96875 510.167969 C 1762.808594 508.722656 1764.679688 507.320312 1766.589844 505.964844 C 1768.496094 504.613281 1770.433594 503.304688 1772.40625 502.042969 C 1774.378906 500.785156 1776.378906 499.574219 1778.410156 498.414062 C 1780.441406 497.253906 1782.5 496.140625 1784.582031 495.082031 C 1786.667969 494.019531 1788.777344 493.011719 1790.914062 492.054688 C 1793.046875 491.101562 1795.203125 490.195312 1797.382812 489.34375 C 1799.5625 488.496094 1801.761719 487.699219 1803.980469 486.957031 C 1806.199219 486.210938 1808.433594 485.523438 1810.6875 484.890625 C 1812.9375 484.257812 1815.203125 483.679688 1817.484375 483.160156 C 1819.765625 482.636719 1822.054688 482.171875 1824.359375 481.761719 C 1826.664062 481.355469 1828.976562 481 1831.296875 480.707031 C 1833.617188 480.410156 1835.941406 480.171875 1838.273438 479.988281 C 1840.605469 479.808594 1842.941406 479.683594 1845.28125 479.617188 C 1847.617188 479.550781 1849.957031 479.539062 1852.296875 479.589844 C 1854.636719 479.636719 1856.972656 479.742188 1859.304688 479.90625 C 1861.636719 480.066406 1863.964844 480.285156 1866.289062 480.5625 C 1868.613281 480.839844 1870.925781 481.175781 1873.234375 481.566406 C 1875.539062 481.957031 1877.835938 482.402344 1880.121094 482.90625 C 1882.40625 483.410156 1884.675781 483.96875 1886.933594 484.582031 C 1889.1875 485.199219 1891.429688 485.867188 1893.652344 486.59375 C 1895.878906 487.316406 1898.082031 488.097656 1900.269531 488.929688 C 1902.457031 489.761719 1904.621094 490.648438 1906.761719 491.589844 C 1908.90625 492.527344 1911.023438 493.519531 1913.117188 494.5625 C 1915.210938 495.605469 1917.277344 496.699219 1919.316406 497.84375 C 1921.355469 498.988281 1923.367188 500.183594 1925.347656 501.425781 C 1927.332031 502.671875 1929.28125 503.960938 1931.199219 505.300781 C 1933.117188 506.640625 1935 508.027344 1936.851562 509.457031 C 1938.699219 510.890625 1940.515625 512.367188 1942.292969 513.886719 C 1944.070312 515.40625 1945.808594 516.972656 1947.507812 518.578125 C 1949.210938 520.183594 1950.871094 521.832031 1952.488281 523.519531 C 1954.109375 525.207031 1955.6875 526.933594 1957.222656 528.695312 C 1958.757812 530.460938 1960.246094 532.265625 1961.695312 534.101562 C 1963.140625 535.941406 1964.542969 537.8125 1965.898438 539.71875 C 1967.25 541.628906 1968.558594 543.566406 1969.816406 545.539062 C 1971.078125 547.507812 1972.289062 549.511719 1973.449219 551.542969 C 1974.609375 553.570312 1975.722656 555.628906 1976.78125 557.714844 Z M 1976.78125 557.714844 " clip-rule="nonzero"/></clipPath><linearGradient x1="189.583413" gradientTransform="matrix(7.963485, -4.048887, 4.048887, 7.963485, -115.148108, 919.77355)" y1="96.306999" x2="232.616565" gradientUnits="userSpaceOnUse" y2="96.306999" id="4347b9045a"><stop stop-opacity="1" stop-color="rgb(86.061096%, 15.711975%, 23.248291%)" offset="0"/><stop stop-opacity="1" stop-color="rgb(86.058044%, 15.591431%, 23.139954%)" offset="0.015625"/><stop stop-opacity="1" stop-color="rgb(86.051941%, 15.350342%, 22.924805%)" offset="0.03125"/><stop stop-opacity="1" stop-color="rgb(86.045837%, 15.110779%, 22.709656%)" offset="0.046875"/><stop stop-opacity="1" stop-color="rgb(86.039734%, 14.86969%, 22.494507%)" offset="0.0625"/><stop stop-opacity="1" stop-color="rgb(86.03363%, 14.630127%, 22.279358%)" offset="0.078125"/><stop stop-opacity="1" stop-color="rgb(86.027527%, 14.389038%, 22.064209%)" offset="0.09375"/><stop stop-opacity="1" stop-color="rgb(86.021423%, 14.149475%, 21.84906%)" offset="0.109375"/><stop stop-opacity="1" stop-color="rgb(86.01532%, 13.908386%, 21.633911%)" offset="0.125"/><stop stop-opacity="1" stop-color="rgb(86.009216%, 13.668823%, 21.418762%)" offset="0.140625"/><stop stop-opacity="1" stop-color="rgb(86.003113%, 13.427734%, 21.203613%)" offset="0.15625"/><stop stop-opacity="1" stop-color="rgb(85.997009%, 13.186646%, 20.988464%)" offset="0.171875"/><stop stop-opacity="1" stop-color="rgb(85.990906%, 12.947083%, 20.773315%)" offset="0.1875"/><stop stop-opacity="1" stop-color="rgb(85.983276%, 12.705994%, 20.558167%)" offset="0.203125"/><stop stop-opacity="1" stop-color="rgb(85.977173%, 12.466431%, 20.343018%)" offset="0.21875"/><stop stop-opacity="1" stop-color="rgb(85.971069%, 12.225342%, 20.127869%)" offset="0.234375"/><stop stop-opacity="1" stop-color="rgb(85.964966%, 11.985779%, 19.91272%)" offset="0.25"/><stop stop-opacity="1" stop-color="rgb(85.958862%, 11.74469%, 19.697571%)" offset="0.265625"/><stop stop-opacity="1" stop-color="rgb(85.952759%, 11.503601%, 19.482422%)" offset="0.28125"/><stop stop-opacity="1" stop-color="rgb(85.946655%, 11.264038%, 19.267273%)" offset="0.296875"/><stop stop-opacity="1" stop-color="rgb(85.940552%, 11.022949%, 19.052124%)" offset="0.3125"/><stop stop-opacity="1" stop-color="rgb(85.934448%, 10.783386%, 18.836975%)" offset="0.328125"/><stop stop-opacity="1" stop-color="rgb(85.928345%, 10.542297%, 18.621826%)" offset="0.34375"/><stop stop-opacity="1" stop-color="rgb(85.922241%, 10.302734%, 18.406677%)" offset="0.359375"/><stop stop-opacity="1" stop-color="rgb(85.916138%, 10.061646%, 18.191528%)" offset="0.375"/><stop stop-opacity="1" stop-color="rgb(85.910034%, 9.822083%, 17.976379%)" offset="0.390625"/><stop stop-opacity="1" stop-color="rgb(85.903931%, 9.580994%, 17.76123%)" offset="0.40625"/><stop stop-opacity="1" stop-color="rgb(85.899353%, 9.429932%, 17.626953%)" offset="0.4375"/><stop stop-opacity="1" stop-color="rgb(85.899353%, 9.399414%, 17.599487%)" offset="0.5"/><stop stop-opacity="1" stop-color="rgb(85.899353%, 9.399414%, 17.599487%)" offset="1"/></linearGradient><clipPath id="cbefce98bb"><rect x="0" width="2250" y="0" height="2249"/></clipPath></defs><g clip-path="url(#b3720d4b50)"><g mask="url(#6715bad079)"><g transform="matrix(1, 0, 0, 1, 0.000000000000000056, -0.00000000000012564)"><g clip-path="url(#cbefce98bb)"><g clip-path="url(#2642ee989f)"><g clip-path="url(#4f0ad2f029)"><g clip-path="url(#2434ef8837)"><g clip-path="url(#c05c70bd70)"><path fill="url(#648445682d)" d="M -554.742188 721.460938 L 525.464844 2846.050781 L 2785.363281 1697.042969 L 1705.15625 -427.542969 Z M -554.742188 721.460938 " fill-rule="nonzero"/></g></g></g></g><g clip-path="url(#a8002d171e)"><g clip-path="url(#175b1702f1)"><g clip-path="url(#8d8e1c07b0)"><g clip-path="url(#87e5e1d96d)"><path fill="url(#a3d145cdf1)" d="M 613.980469 516.234375 L 717.433594 719.707031 L 920.910156 616.253906 L 817.457031 412.78125 Z M 613.980469 516.234375 " fill-rule="nonzero"/></g></g></g></g><g clip-path="url(#ae7d99cead)"><g clip-path="url(#8f65b27894)"><g clip-path="url(#8425eb04fc)"><g clip-path="url(#9a9954a11a)"><path fill="url(#6932fd7c69)" d="M 1261.667969 1765.101562 L 1328.117188 1895.796875 L 1458.8125 1829.34375 L 1392.363281 1698.648438 Z M 1261.667969 1765.101562 " fill-rule="nonzero"/></g></g></g></g><g clip-path="url(#1193472cac)"><g clip-path="url(#8003339026)"><g clip-path="url(#ba7f815b88)"><g clip-path="url(#f0776b151c)"><path fill="url(#4347b9045a)" d="M 1590.898438 538.269531 L 1765.136719 880.960938 L 2107.832031 706.726562 L 1933.59375 364.03125 Z M 1590.898438 538.269531 " fill-rule="nonzero"/></g></g></g></g></g></g></g></g></svg>