<svg xmlns="http://www.w3.org/2000/svg" xmlns:xlink="http://www.w3.org/1999/xlink" width="3000" zoomAndPan="magnify" viewBox="0 0 2250 2250.000011" height="3000" preserveAspectRatio="xMidYMid meet" version="1.0"><defs><clipPath id="269f62cbb3"><path d="M 194.476562 35 L 667 35 L 667 779 L 194.476562 779 Z M 194.476562 35 " clip-rule="nonzero"/></clipPath></defs><path fill="#f80c24f0" d="M 582.183594 271.351562 C 582.183594 230.820312 566.398438 192.746094 537.765625 164.113281 C 509.132812 135.480469 471.058594 119.695312 430.527344 119.695312 C 389.996094 119.695312 351.921875 135.480469 323.289062 164.113281 C 294.65625 192.746094 278.871094 230.820312 278.871094 271.351562 C 278.871094 311.882812 294.65625 349.957031 323.289062 378.589844 C 351.921875 407.222656 389.996094 423.007812 430.527344 423.007812 C 471.058594 423.007812 509.132812 407.222656 537.765625 378.589844 C 566.398438 349.957031 582.183594 311.804688 582.183594 271.351562 Z M 430.527344 384.460938 C 368.183594 384.460938 317.417969 333.695312 317.417969 271.351562 C 317.417969 209.007812 368.183594 158.242188 430.527344 158.242188 C 492.871094 158.242188 543.636719 209.007812 543.636719 271.351562 C 543.636719 333.695312 492.953125 384.460938 430.527344 384.460938 Z M 430.527344 384.460938 " fill-opacity="1" fill-rule="nonzero"/><g clip-path="url(#269f62cbb3)"><path fill="#f80c24f0" d="M 430.527344 778.195312 C 436.636719 778.195312 442.425781 775.261719 446.074219 770.265625 C 483.433594 719.105469 537.609375 639.390625 582.976562 550.789062 C 638.5 442.363281 666.660156 348.449219 666.660156 271.667969 C 666.660156 141.664062 561.007812 35.933594 431.003906 35.777344 L 430.925781 35.777344 C 430.6875 35.777344 430.367188 35.777344 430.132812 35.777344 L 430.050781 35.777344 C 300.128906 35.933594 194.476562 141.664062 194.476562 271.667969 C 194.476562 348.449219 222.632812 442.363281 278.15625 550.789062 C 323.527344 639.46875 377.621094 719.105469 415.0625 770.265625 C 418.628906 775.261719 424.421875 778.195312 430.527344 778.195312 Z M 232.945312 271.667969 C 232.945312 162.84375 321.464844 74.324219 430.289062 74.324219 C 430.367188 74.324219 430.449219 74.324219 430.527344 74.324219 C 430.605469 74.324219 430.6875 74.324219 430.765625 74.324219 C 539.589844 74.324219 628.109375 162.84375 628.109375 271.667969 C 628.109375 425.546875 500.328125 627.253906 430.527344 725.925781 C 360.726562 627.253906 232.945312 425.546875 232.945312 271.667969 Z M 232.945312 271.667969 " fill-opacity="1" fill-rule="nonzero"/></g><path fill="#f80c24f0" d="M 1145.1875 901.457031 C 1156.132812 905.976562 1167.554688 910.65625 1179.453125 912.085938 C 1195 913.988281 1208.957031 909.945312 1221.09375 900.027344 C 1237.117188 886.941406 1240.921875 863.066406 1231.007812 837.84375 C 1223.078125 817.777344 1207.925781 799.691406 1188.175781 786.84375 C 1165.175781 771.851562 1137.332031 764.949219 1107.589844 766.933594 C 1074.59375 769.074219 1041.597656 755.433594 1009.710938 742.105469 C 977.429688 728.703125 946.96875 716.011719 916.988281 719.816406 C 894.859375 722.671875 870.109375 733.222656 846.15625 743.535156 C 833.625 748.925781 821.804688 753.925781 811.8125 757.257812 C 804.515625 759.636719 800.070312 760.429688 797.613281 760.667969 C 798.40625 757.257812 801.578125 750.117188 810.9375 739.566406 C 821.089844 728.066406 833.703125 718.074219 841.160156 713.710938 C 853.613281 706.332031 871.140625 700.148438 889.703125 693.5625 C 915.003906 684.601562 941.257812 675.320312 962.277344 660.726562 C 987.898438 642.957031 1005.902344 620.90625 1021.765625 601.476562 C 1027.636719 594.257812 1033.269531 587.355469 1038.898438 581.089844 C 1039.21875 580.773438 1039.453125 580.457031 1039.773438 580.136719 C 1063.648438 553.804688 1088.710938 537.304688 1142.09375 543.652344 C 1142.488281 543.808594 1142.964844 543.890625 1143.441406 543.96875 C 1380.683594 596.476562 1571.125 773.914062 1640.53125 1006.949219 C 1642.988281 1015.277344 1650.683594 1020.753906 1659.011719 1020.753906 C 1660.835938 1020.753906 1662.660156 1020.515625 1664.484375 1019.957031 C 1674.636719 1016.945312 1680.507812 1006.238281 1677.414062 996.003906 C 1641.5625 875.679688 1573.902344 766.535156 1481.574219 680.316406 C 1389.804688 594.574219 1276.933594 534.769531 1155.179688 507.164062 C 1153.671875 506.53125 1152.007812 506.054688 1150.34375 505.894531 C 1109.96875 500.582031 1077.050781 505.738281 1049.765625 521.839844 C 1037.234375 529.214844 1026.605469 538.335938 1017.007812 548.253906 C 1010.582031 548.09375 1004.160156 547.933594 997.8125 547.933594 C 927.21875 547.933594 859.796875 557.929688 797.535156 577.679688 C 743.914062 594.652344 692.832031 619.242188 645.082031 650.96875 C 641.832031 636.929688 636.675781 624.554688 630.964844 617.339844 C 624.382812 609.011719 612.246094 607.582031 603.917969 614.164062 C 595.589844 620.75 594.160156 632.886719 600.746094 641.214844 C 605.34375 647.003906 613.4375 675.558594 608.597656 691.34375 C 589.164062 754.957031 546.730469 786.605469 501.753906 820.15625 C 480.65625 835.859375 458.84375 852.199219 438.617188 872.1875 C 415.933594 894.636719 395.785156 917.003906 378.574219 937.625 C 386.269531 919.382812 394.835938 901.378906 404.113281 883.847656 C 409.113281 874.488281 405.542969 862.828125 396.101562 857.832031 C 386.742188 852.835938 375.085938 856.402344 370.085938 865.765625 C 340.820312 920.8125 319.007812 979.507812 305.203125 1040.265625 C 303.140625 1049.464844 307.980469 1058.824219 316.785156 1062.394531 C 319.164062 1063.347656 321.542969 1063.820312 324.003906 1063.820312 C 330.585938 1063.820312 336.933594 1060.410156 340.5 1054.542969 C 340.976562 1053.75 388.09375 976.414062 465.746094 899.554688 C 484.066406 881.390625 504.769531 865.921875 524.835938 851.011719 C 572.746094 815.238281 622.320312 778.277344 645.402344 702.605469 C 646.035156 700.621094 646.511719 698.5625 646.910156 696.5 C 744.390625 625.90625 857.816406 588.941406 984.171875 586.484375 C 971.480469 601.714844 957.835938 616.863281 940.308594 629.078125 C 923.414062 640.738281 899.695312 649.144531 876.773438 657.316406 C 856.386719 664.53125 837.113281 671.355469 821.410156 680.632812 C 810.066406 687.375 796.105469 698.878906 785.082031 710.695312 C 769.457031 727.433594 760.652344 743.296875 759.0625 757.652344 C 757.636719 770.183594 761.839844 781.765625 770.722656 790.171875 C 785.953125 804.53125 808.875 798.183594 816.492188 796.121094 C 829.976562 792.394531 845.125 785.890625 861.148438 779.070312 C 882.640625 769.867188 904.851562 760.351562 921.667969 758.207031 C 941.417969 755.671875 967.273438 766.457031 994.71875 777.878906 C 1029.0625 792.15625 1067.929688 808.335938 1109.890625 805.5625 C 1131.226562 804.132812 1150.976562 808.890625 1166.917969 819.285156 C 1179.769531 827.691406 1190 839.667969 1194.917969 852.121094 C 1199.042969 862.671875 1197.773438 869.332031 1196.503906 870.363281 C 1188.8125 876.628906 1181.753906 875.042969 1159.703125 866 C 1138.921875 857.433594 1112.984375 846.726562 1081.730469 856.40625 L 1079.75 857.039062 C 1067.214844 860.925781 1049.925781 866.238281 1033.902344 867.90625 C 1025.652344 868.777344 1010.980469 869.175781 1005.507812 862.589844 C 999.242188 855.136719 998.527344 850.535156 997.414062 843 C 996.066406 833.957031 994.164062 821.582031 982.265625 807.863281 C 966.085938 789.140625 932.691406 785.890625 882.960938 798.34375 C 842.824219 808.417969 797.773438 827.769531 762.394531 850.21875 C 729.160156 870.601562 700.605469 894.875 677.523438 922.238281 C 653.332031 950.953125 635.644531 982.757812 624.859375 1016.628906 C 613.59375 1052.003906 612.085938 1095.152344 620.8125 1131.957031 C 625.886719 1153.371094 634.21875 1172.011719 645.480469 1187.320312 C 658.566406 1205.089844 675.382812 1217.859375 695.371094 1225.3125 C 720.832031 1234.753906 745.5 1227.933594 767.234375 1221.984375 C 779.925781 1218.492188 791.824219 1215.160156 802.847656 1215.160156 C 802.925781 1215.160156 803.085938 1215.160156 803.164062 1215.160156 C 874.394531 1215.636719 911.117188 1273.460938 926.585938 1307.882812 C 948 1355.394531 952.285156 1405.207031 956.804688 1457.875 C 958.867188 1482.148438 961.007812 1507.210938 964.976562 1532.277344 C 972.75 1581.535156 984.882812 1615.242188 1003.128906 1638.324219 C 1006.933594 1643.164062 1012.566406 1645.621094 1018.199219 1645.621094 C 1022.402344 1645.621094 1026.605469 1644.273438 1030.175781 1641.5 C 1038.503906 1634.914062 1039.929688 1622.777344 1033.347656 1614.449219 C 1019.546875 1597 1009.632812 1568.207031 1003.046875 1526.328125 C 999.320312 1502.613281 997.179688 1478.179688 995.195312 1454.625 C 990.59375 1401.003906 985.835938 1345.5625 961.722656 1292.101562 C 946.730469 1258.785156 925.710938 1230.789062 900.964844 1211.195312 C 872.410156 1188.511719 839.574219 1176.929688 803.484375 1176.691406 C 787.0625 1176.613281 771.835938 1180.816406 757.003906 1184.863281 C 738.519531 1189.9375 722.578125 1194.378906 708.777344 1189.222656 C 652.144531 1168.207031 644.847656 1080.71875 661.503906 1028.367188 C 679.824219 970.621094 721.707031 920.335938 782.542969 883.054688 C 782.621094 882.976562 782.699219 882.976562 782.78125 882.898438 C 814.746094 862.589844 855.515625 845.0625 891.765625 835.941406 C 934.914062 825.074219 951.015625 831.023438 952.996094 833.164062 C 957.597656 838.480469 958.074219 841.730469 959.183594 848.949219 C 960.613281 858.546875 962.675781 871.792969 975.921875 887.496094 C 1003.921875 920.8125 1060.632812 903.359375 1091.011719 893.921875 L 1092.914062 893.367188 C 1111.238281 887.496094 1127.738281 894.316406 1145.1875 901.457031 Z M 1145.1875 901.457031 " fill-opacity="1" fill-rule="nonzero"/><path fill="#f80c24f0" d="M 1495.695312 963.167969 C 1512.589844 978.316406 1531.308594 1004.414062 1551.058594 1032.015625 C 1553.359375 1035.265625 1555.738281 1038.519531 1558.117188 1041.851562 C 1561.847656 1047.085938 1567.796875 1049.863281 1573.742188 1049.863281 C 1577.628906 1049.863281 1581.597656 1048.671875 1585.007812 1046.214844 C 1593.652344 1040.027344 1595.636719 1027.96875 1589.371094 1019.324219 C 1586.988281 1016.070312 1584.691406 1012.820312 1582.390625 1009.566406 C 1561.371094 980.140625 1541.460938 952.378906 1521.394531 934.453125 C 1509.179688 923.507812 1497.519531 916.765625 1485.859375 913.832031 C 1471.265625 910.183594 1457.066406 912.480469 1443.742188 920.730469 C 1443.421875 920.96875 1443.027344 921.128906 1442.710938 921.367188 C 1431.445312 929.378906 1426.847656 942.066406 1430.175781 956.34375 C 1432.160156 964.832031 1436.601562 972.921875 1441.203125 981.410156 C 1442.3125 983.394531 1443.421875 985.375 1444.453125 987.4375 C 1449.453125 996.878906 1461.03125 1000.445312 1470.472656 995.449219 C 1479.910156 990.453125 1483.480469 978.871094 1478.484375 969.433594 C 1477.292969 967.210938 1476.101562 965.070312 1474.992188 962.929688 C 1473.089844 959.4375 1470.472656 954.679688 1468.886719 951.109375 C 1474.121094 949.683594 1481.972656 950.871094 1495.695312 963.167969 Z M 1495.695312 963.167969 " fill-opacity="1" fill-rule="nonzero"/><path fill="#f80c24f0" d="M 1024.304688 1810.445312 C 1015.5 1810.84375 1006.617188 1811 997.8125 1811 C 847.503906 1811 709.964844 1760.394531 599.871094 1664.738281 C 594.558594 1648.398438 587.894531 1632.851562 581.789062 1618.574219 C 573.140625 1598.507812 565.050781 1579.550781 563.542969 1565.191406 C 560.292969 1533.464844 559.738281 1507.132812 559.183594 1483.890625 C 558.152344 1437.964844 557.4375 1404.8125 535.941406 1375.066406 C 512.621094 1342.863281 489.144531 1331.125 466.378906 1319.863281 C 445.203125 1309.3125 425.214844 1299.398438 403.082031 1270.605469 C 403.082031 1270.605469 403.082031 1270.523438 403.003906 1270.523438 C 372.464844 1231.261719 329 1130.210938 328.601562 1129.179688 C 325.667969 1122.359375 319.324219 1118.15625 312.5 1117.597656 C 312.421875 1117.597656 312.265625 1117.597656 312.183594 1117.597656 C 312.027344 1117.597656 311.945312 1117.597656 311.789062 1117.597656 C 301.476562 1117.042969 292.59375 1124.738281 291.640625 1135.128906 C 289.738281 1156.148438 288.785156 1177.5625 288.785156 1198.820312 C 288.785156 1255.929688 295.605469 1312.800781 309.011719 1367.769531 C 322.097656 1421.152344 341.453125 1473.105469 366.597656 1522.125 C 391.265625 1570.269531 421.566406 1615.640625 456.625 1656.964844 C 491.523438 1698.132812 531.101562 1735.332031 574.332031 1767.613281 C 577.820312 1770.230469 581.789062 1771.421875 585.832031 1771.421875 C 591.703125 1771.421875 597.492188 1768.722656 601.300781 1763.648438 C 601.300781 1763.648438 601.378906 1763.570312 601.378906 1763.570312 C 601.539062 1763.332031 601.695312 1763.171875 601.855469 1762.933594 C 601.855469 1762.855469 601.933594 1762.855469 601.933594 1762.777344 C 602.964844 1761.269531 603.757812 1759.601562 604.3125 1757.777344 C 608.042969 1745.878906 609.707031 1734.0625 609.867188 1722.402344 C 657.457031 1758.175781 709.492188 1786.886719 765.171875 1807.90625 C 838.382812 1835.589844 916.671875 1849.628906 997.8125 1849.628906 C 1007.171875 1849.628906 1016.613281 1849.390625 1025.890625 1848.996094 C 1036.519531 1848.519531 1044.769531 1839.554688 1044.292969 1828.925781 C 1043.976562 1818.21875 1034.933594 1809.96875 1024.304688 1810.445312 Z M 327.652344 1217.699219 C 341.769531 1245.777344 358.269531 1275.441406 372.703125 1294.082031 C 400.308594 1329.855469 426.324219 1342.863281 449.328125 1354.285156 C 469.550781 1364.359375 487.082031 1373.085938 504.847656 1397.59375 C 519.285156 1417.582031 519.839844 1442.804688 520.792969 1484.605469 C 521.347656 1508.558594 521.902344 1535.6875 525.3125 1569 C 527.375 1589.226562 536.65625 1610.800781 546.492188 1633.644531 C 553.074219 1648.953125 559.738281 1664.5 564.496094 1679.96875 C 564.65625 1680.761719 564.894531 1681.554688 565.210938 1682.347656 C 568.542969 1693.609375 570.84375 1704.871094 571.316406 1716.058594 C 420.773438 1592.242188 332.964844 1413.140625 327.652344 1217.699219 Z M 327.652344 1217.699219 " fill-opacity="1" fill-rule="nonzero"/><path fill="#f80c24f0" d="M 1424.308594 1508.085938 C 1413.601562 1508.085938 1404.953125 1516.808594 1404.953125 1527.4375 L 1404.953125 1586.847656 C 1404.953125 1597.554688 1413.679688 1606.199219 1424.308594 1606.199219 C 1435.015625 1606.199219 1443.660156 1597.476562 1443.660156 1586.847656 L 1443.660156 1527.4375 C 1443.742188 1516.730469 1435.015625 1508.085938 1424.308594 1508.085938 Z M 1424.308594 1508.085938 " fill-opacity="1" fill-rule="nonzero"/><path fill="#f80c24f0" d="M 1692.324219 1381.253906 C 1734.363281 1381.253906 1773.863281 1364.914062 1803.609375 1335.167969 C 1833.351562 1305.425781 1849.691406 1265.925781 1849.691406 1223.886719 C 1849.691406 1181.847656 1833.351562 1142.347656 1803.609375 1112.601562 C 1773.863281 1082.859375 1734.363281 1066.519531 1692.324219 1066.519531 C 1650.285156 1066.519531 1610.785156 1082.859375 1581.042969 1112.601562 C 1551.296875 1142.347656 1534.957031 1181.847656 1534.957031 1223.886719 C 1534.957031 1265.925781 1551.296875 1305.425781 1581.042969 1335.167969 C 1610.785156 1364.914062 1650.285156 1381.253906 1692.324219 1381.253906 Z M 1692.324219 1105.382812 C 1757.683594 1105.382812 1810.90625 1158.605469 1810.90625 1223.964844 C 1810.90625 1289.324219 1757.683594 1342.546875 1692.324219 1342.546875 C 1626.964844 1342.546875 1573.742188 1289.324219 1573.742188 1223.964844 C 1573.742188 1158.527344 1626.886719 1105.382812 1692.324219 1105.382812 Z M 1692.324219 1105.382812 " fill-opacity="1" fill-rule="nonzero"/><path fill="#f80c24f0" d="M 1894.667969 1936.640625 C 1889.667969 1937.910156 1885.464844 1941.082031 1882.847656 1945.605469 C 1880.230469 1950.046875 1879.515625 1955.28125 1880.785156 1960.277344 C 1882.847656 1968.289062 1881.183594 1976.539062 1876.105469 1983.042969 C 1871.03125 1989.546875 1863.414062 1993.273438 1855.246094 1993.273438 L 1682.410156 1993.273438 C 1671.703125 1993.273438 1663.058594 2002 1663.058594 2012.628906 C 1663.058594 2023.257812 1671.78125 2031.980469 1682.410156 2031.980469 L 1803.132812 2031.980469 L 1803.132812 2084.96875 C 1803.132812 2095.675781 1811.859375 2104.320312 1822.488281 2104.320312 C 1833.113281 2104.320312 1841.839844 2095.59375 1841.839844 2084.96875 L 1841.839844 2031.980469 L 1855.164062 2031.980469 C 1875.472656 2031.980469 1894.269531 2022.78125 1906.722656 2006.679688 C 1919.175781 1990.578125 1923.378906 1970.113281 1918.304688 1950.441406 C 1915.605469 1940.132812 1905.058594 1933.945312 1894.667969 1936.640625 Z M 1894.667969 1936.640625 " fill-opacity="1" fill-rule="nonzero"/><path fill="#f80c24f0" d="M 1702.238281 2065.691406 C 1691.53125 2065.691406 1682.886719 2074.417969 1682.886719 2085.046875 L 1682.886719 2153.101562 C 1682.886719 2163.808594 1691.609375 2172.453125 1702.238281 2172.453125 C 1712.949219 2172.453125 1721.59375 2163.730469 1721.59375 2153.101562 L 1721.59375 2085.046875 C 1721.59375 2074.339844 1712.867188 2065.691406 1702.238281 2065.691406 Z M 1702.238281 2065.691406 " fill-opacity="1" fill-rule="nonzero"/><path fill="#f80c24f0" d="M 1322.621094 1001.476562 C 1280.582031 1001.476562 1241.082031 1017.816406 1211.339844 1047.5625 C 1181.59375 1077.304688 1165.253906 1116.804688 1165.253906 1158.84375 C 1165.253906 1200.882812 1181.59375 1240.382812 1211.339844 1270.128906 C 1241.082031 1299.875 1280.582031 1316.214844 1322.621094 1316.214844 C 1364.660156 1316.214844 1404.160156 1299.875 1433.90625 1270.128906 C 1463.648438 1240.382812 1479.988281 1200.882812 1479.988281 1158.84375 C 1479.988281 1116.804688 1463.648438 1077.304688 1433.90625 1047.5625 C 1404.160156 1017.816406 1364.660156 1001.476562 1322.621094 1001.476562 Z M 1322.621094 1277.425781 C 1257.261719 1277.425781 1204.039062 1224.203125 1204.039062 1158.84375 C 1204.039062 1093.488281 1257.261719 1040.265625 1322.621094 1040.265625 C 1387.980469 1040.265625 1441.203125 1093.488281 1441.203125 1158.84375 C 1441.203125 1224.203125 1387.980469 1277.425781 1322.621094 1277.425781 Z M 1322.621094 1277.425781 " fill-opacity="1" fill-rule="nonzero"/><path fill="#f80c24f0" d="M 1320.640625 1993.59375 C 1320.640625 1993.59375 1320.558594 1993.59375 1320.640625 1993.59375 C 1315.402344 1993.59375 1310.566406 1995.65625 1306.917969 1999.304688 C 1303.269531 2002.953125 1301.285156 2007.871094 1301.285156 2013.023438 L 1301.523438 2168.09375 C 1301.523438 2178.800781 1310.246094 2187.445312 1320.957031 2187.445312 C 1326.113281 2187.445312 1331.03125 2185.382812 1334.679688 2181.734375 C 1338.328125 2178.085938 1340.308594 2173.167969 1340.308594 2168.011719 L 1340.070312 2012.945312 C 1339.992188 2002.238281 1331.265625 1993.59375 1320.640625 1993.59375 Z M 1320.640625 1993.59375 " fill-opacity="1" fill-rule="nonzero"/><path fill="#f80c24f0" d="M 1200.234375 1949.09375 C 1189.527344 1949.09375 1180.800781 1957.820312 1180.878906 1968.527344 L 1181.039062 2085.125 C 1181.039062 2095.832031 1189.761719 2104.480469 1200.472656 2104.480469 C 1205.628906 2104.480469 1210.546875 2102.417969 1214.195312 2098.769531 C 1217.84375 2095.121094 1219.824219 2090.203125 1219.824219 2085.046875 L 1219.667969 1968.527344 C 1219.585938 1957.738281 1210.863281 1949.09375 1200.234375 1949.09375 Z M 1200.234375 1949.09375 " fill-opacity="1" fill-rule="nonzero"/><path fill="#f80c24f0" d="M 1410.03125 1746.675781 C 1410.03125 1803.070312 1455.957031 1848.996094 1512.351562 1848.996094 C 1568.746094 1848.996094 1614.671875 1803.070312 1614.671875 1746.675781 C 1614.671875 1690.277344 1568.746094 1644.351562 1512.351562 1644.351562 C 1455.957031 1644.351562 1410.03125 1690.277344 1410.03125 1746.675781 Z M 1512.351562 1683.140625 C 1547.410156 1683.140625 1575.886719 1711.613281 1575.886719 1746.675781 C 1575.886719 1781.734375 1547.410156 1810.207031 1512.351562 1810.207031 C 1477.292969 1810.207031 1448.816406 1781.734375 1448.816406 1746.675781 C 1448.816406 1711.613281 1477.292969 1683.140625 1512.351562 1683.140625 Z M 1512.351562 1683.140625 " fill-opacity="1" fill-rule="nonzero"/><path fill="#f80c24f0" d="M 1553.519531 1858.433594 L 1470.867188 1858.433594 C 1428.273438 1858.433594 1393.691406 1893.09375 1393.691406 1935.609375 L 1393.691406 2138.664062 C 1393.691406 2163.015625 1405.273438 2186.019531 1424.703125 2200.535156 L 1424.785156 2229.328125 C 1424.785156 2240.035156 1433.507812 2248.679688 1444.21875 2248.679688 C 1454.925781 2248.679688 1463.570312 2239.953125 1463.570312 2229.246094 L 1463.492188 2191.730469 C 1464.207031 2183.875 1460.160156 2176.421875 1453.179688 2172.773438 C 1440.410156 2166.109375 1432.476562 2153.023438 1432.476562 2138.664062 L 1432.476562 1935.609375 C 1432.476562 1914.433594 1449.691406 1897.140625 1470.945312 1897.140625 L 1553.519531 1897.140625 C 1574.695312 1897.140625 1591.988281 1914.351562 1591.988281 1935.609375 L 1591.988281 2138.664062 C 1591.988281 2153.023438 1584.054688 2166.109375 1571.285156 2172.773438 C 1564.226562 2176.421875 1560.261719 2183.875 1560.972656 2191.730469 L 1560.972656 2229.328125 C 1560.972656 2240.035156 1569.699219 2248.679688 1580.328125 2248.679688 C 1585.484375 2248.679688 1590.402344 2246.695312 1594.050781 2242.96875 C 1597.699219 2239.320312 1599.761719 2234.402344 1599.761719 2229.246094 L 1599.761719 2200.453125 C 1619.191406 2185.9375 1630.773438 2162.9375 1630.773438 2138.585938 L 1630.773438 1935.53125 C 1630.695312 1893.09375 1596.03125 1858.433594 1553.519531 1858.433594 Z M 1553.519531 1858.433594 " fill-opacity="1" fill-rule="nonzero"/><path fill="#f80c24f0" d="M 1872.617188 1500.707031 C 1866.03125 1472.789062 1850.011719 1447.644531 1827.5625 1429.957031 C 1805.117188 1412.265625 1777.117188 1402.511719 1748.5625 1402.511719 C 1748.480469 1402.511719 1748.402344 1402.511719 1748.246094 1402.511719 L 1644.8125 1402.75 C 1616.101562 1402.828125 1587.941406 1412.742188 1565.496094 1430.667969 C 1556.292969 1438.046875 1548.203125 1446.613281 1541.382812 1456.128906 C 1526.789062 1388.789062 1466.742188 1338.261719 1395.117188 1338.261719 L 1249.492188 1338.261719 C 1167.078125 1338.261719 1099.894531 1405.367188 1099.894531 1487.777344 L 1099.65625 1860.179688 C 1099.65625 1879.375 1107.273438 1897.300781 1121.152344 1910.625 C 1134.320312 1923.238281 1151.292969 1930.058594 1169.378906 1930.058594 C 1170.410156 1930.058594 1171.441406 1930.058594 1172.550781 1929.980469 C 1209.988281 1928.3125 1239.335938 1897.695312 1239.335938 1860.257812 L 1239.335938 1527.835938 C 1239.335938 1517.125 1230.691406 1508.480469 1219.984375 1508.480469 C 1209.277344 1508.480469 1200.628906 1517.125 1200.628906 1527.835938 L 1200.628906 1860.257812 C 1200.628906 1876.914062 1187.621094 1890.558594 1170.964844 1891.269531 C 1162.398438 1891.667969 1154.308594 1888.574219 1148.121094 1882.703125 C 1141.933594 1876.757812 1138.523438 1868.824219 1138.523438 1860.257812 L 1138.761719 1487.859375 C 1138.761719 1426.78125 1188.496094 1377.128906 1249.570312 1377.128906 L 1395.199219 1377.128906 C 1456.273438 1377.128906 1506.007812 1426.863281 1506.007812 1487.9375 L 1506.007812 1569 C 1506.007812 1578.835938 1513.382812 1587.164062 1523.21875 1588.273438 C 1533.054688 1589.386719 1542.097656 1582.960938 1544.316406 1573.285156 L 1558.59375 1510.542969 C 1567.875 1470.011719 1603.332031 1441.695312 1644.894531 1441.617188 L 1748.324219 1441.378906 C 1748.402344 1441.378906 1748.484375 1441.378906 1748.5625 1441.378906 C 1789.886719 1441.378906 1825.421875 1469.457031 1834.859375 1509.75 L 1911.5625 1835.113281 C 1915.367188 1851.136719 1905.375 1867.394531 1889.351562 1871.363281 C 1881.421875 1873.34375 1873.25 1871.996094 1866.351562 1867.792969 C 1859.449219 1863.511719 1854.609375 1856.769531 1852.785156 1848.835938 L 1804.71875 1639.910156 C 1802.339844 1629.441406 1791.949219 1622.9375 1781.480469 1625.394531 C 1771.007812 1627.777344 1764.503906 1638.167969 1766.964844 1648.636719 L 1815.03125 1857.5625 C 1819.234375 1875.726562 1830.261719 1891.035156 1846.125 1900.867188 C 1861.988281 1910.625 1880.628906 1913.558594 1898.710938 1909.117188 C 1916.480469 1904.753906 1931.550781 1893.730469 1941.066406 1878.105469 C 1950.585938 1862.480469 1953.601562 1844.078125 1949.394531 1826.308594 Z M 1872.617188 1500.707031 " fill-opacity="1" fill-rule="nonzero"/><path fill="#f80c24f0" d="M 2051.003906 805.5625 C 2043.785156 696.734375 2015.46875 592.511719 1966.765625 495.902344 C 1943.367188 449.421875 1915.289062 405.003906 1883.324219 363.835938 C 1851.675781 323.066406 1815.824219 285.074219 1776.957031 251.046875 C 1738.011719 217.019531 1695.734375 186.480469 1651.078125 160.464844 C 1606.027344 134.210938 1558.277344 112.238281 1509.179688 95.183594 C 1406.9375 59.730469 1299.9375 45.375 1191.03125 52.589844 C 1150.898438 55.289062 1110.839844 60.917969 1071.738281 69.40625 L 1059.917969 16.5 C 1058.414062 9.601562 1053.175781 4.128906 1046.433594 2.222656 C 1039.691406 0.320312 1032.394531 2.222656 1027.398438 7.222656 L 816.171875 221.378906 C 811.574219 226.0625 809.667969 232.722656 811.097656 239.070312 C 812.523438 245.492188 817.125 250.648438 823.234375 252.949219 L 1105.527344 356.855469 C 1107.667969 357.648438 1109.96875 358.046875 1112.191406 358.046875 C 1116.789062 358.046875 1121.3125 356.378906 1124.882812 353.289062 C 1130.195312 348.609375 1132.496094 341.46875 1130.988281 334.566406 L 1117.503906 274.046875 C 1146.296875 268.574219 1175.644531 264.847656 1204.992188 262.863281 C 1600.632812 236.609375 1943.84375 537.148438 1970.097656 932.789062 C 1975.808594 1018.53125 1966.371094 1103.320312 1942.179688 1184.941406 C 1939.164062 1195.171875 1944.953125 1205.878906 1955.1875 1208.894531 C 1957.011719 1209.449219 1958.835938 1209.6875 1960.660156 1209.6875 C 1968.433594 1209.6875 1975.730469 1204.929688 1978.585938 1197.394531 C 1978.742188 1197.078125 1978.902344 1196.757812 1979.0625 1196.363281 C 2006.585938 1136.476562 2026.730469 1073.339844 2038.867188 1008.695312 C 2051.480469 942.226562 2055.523438 873.855469 2051.003906 805.5625 Z M 2009.441406 945.320312 C 2009.203125 940.324219 2008.964844 935.324219 2008.566406 930.328125 C 2001.824219 828.246094 1975.253906 730.605469 1929.644531 640.023438 C 1907.753906 596.476562 1881.421875 554.835938 1851.4375 516.207031 C 1821.773438 477.976562 1788.222656 442.363281 1751.734375 410.476562 C 1715.246094 378.511719 1675.589844 349.957031 1633.707031 325.605469 C 1591.511719 301.015625 1546.695312 280.394531 1500.691406 264.449219 C 1404.875 231.214844 1304.539062 217.8125 1202.453125 224.554688 C 1171.125 226.617188 1139.792969 230.660156 1109.097656 236.53125 L 1103.863281 213.289062 C 1101.5625 202.898438 1091.25 196.394531 1080.859375 198.695312 C 1070.46875 200.996094 1063.964844 211.308594 1066.265625 221.699219 L 1085.699219 308.632812 L 864.558594 227.25 L 1030.015625 59.492188 L 1042.152344 113.824219 C 1044.453125 124.214844 1054.761719 130.71875 1065.152344 128.417969 C 1074.988281 126.199219 1081.335938 116.917969 1080.066406 107.164062 C 1117.265625 99.070312 1155.339844 93.679688 1193.570312 91.140625 C 1398.6875 77.496094 1596.90625 144.601562 1751.574219 280.078125 C 1906.246094 415.472656 1998.96875 603.0625 2012.535156 808.179688 C 2015.625 853.945312 2014.515625 899.949219 2009.441406 945.320312 Z M 2009.441406 945.320312 " fill-opacity="1" fill-rule="nonzero"/></svg>