<svg xmlns="http://www.w3.org/2000/svg" xmlns:xlink="http://www.w3.org/1999/xlink" width="3000" zoomAndPan="magnify" viewBox="0 0 2250 2250.000011" height="3000" preserveAspectRatio="xMidYMid meet" version="1.0"><defs><clipPath id="8a32e15eca"><path d="M 316 0 L 1933.625 0 L 1933.625 2249 L 316 2249 Z M 316 0 " clip-rule="nonzero"/></clipPath><clipPath id="ed933afa19"><path d="M 97.828125 977 L 2152.347656 977 L 2152.347656 1937 L 97.828125 1937 Z M 97.828125 977 " clip-rule="nonzero"/></clipPath></defs><path fill="#1a1313c2" d="M 829.175781 1513.515625 L 912.511719 1539.914062 C 899.691406 1586.421875 878.476562 1620.980469 848.699219 1643.59375 C 819.035156 1666.089844 781.269531 1677.398438 735.519531 1677.398438 C 678.980469 1677.398438 632.46875 1658.046875 596.066406 1619.46875 C 559.667969 1580.769531 541.40625 1527.910156 541.40625 1460.945312 C 541.40625 1390.019531 559.761719 1335.003906 596.367188 1295.726562 C 632.96875 1256.5625 681.085938 1236.863281 740.765625 1236.863281 C 792.867188 1236.863281 835.234375 1252.25 867.753906 1283.078125 C 887.21875 1301.261719 901.671875 1327.429688 911.40625 1361.582031 L 826.203125 1381.921875 C 821.246094 1359.773438 810.699219 1342.289062 794.671875 1329.527344 C 778.644531 1316.707031 759.238281 1310.410156 736.394531 1310.410156 C 704.863281 1310.410156 679.1875 1321.71875 659.539062 1344.386719 C 639.917969 1367.058594 630.101562 1403.71875 630.101562 1454.476562 C 630.101562 1508.386719 639.707031 1546.734375 659.148438 1569.578125 C 678.503906 1592.484375 703.699219 1603.90625 734.644531 1603.90625 C 757.546875 1603.90625 777.1875 1596.621094 793.625 1582.050781 C 810.117188 1567.597656 821.949219 1544.695312 829.175781 1513.515625 Z M 1370.53125 1670.171875 L 1276.933594 1670.171875 L 1239.695312 1573.308594 L 1069.402344 1573.308594 L 1034.316406 1670.171875 L 943.050781 1670.171875 L 1108.972656 1244.148438 L 1199.945312 1244.148438 Z M 1212.128906 1501.625 L 1153.441406 1343.515625 L 1095.859375 1501.625 Z M 1416.6875 1670.171875 L 1416.6875 1244.148438 L 1708.785156 1244.148438 L 1708.785156 1316.238281 L 1502.765625 1316.238281 L 1502.765625 1417.003906 L 1680.636719 1417.003906 L 1680.636719 1489.15625 L 1502.765625 1489.15625 L 1502.765625 1670.171875 L 1416.6875 1670.171875 " fill-opacity="1" fill-rule="nonzero"/><g clip-path="url(#8a32e15eca)"><path fill="#1a1313c2" d="M 316.71875 1011.4375 C 316.71875 1029.972656 331.742188 1045.007812 350.292969 1045.007812 C 368.824219 1045.007812 383.851562 1029.972656 383.851562 1011.4375 L 383.851562 67.136719 L 1559.402344 67.136719 L 1866.300781 374.082031 L 1866.300781 1011.425781 C 1866.300781 1029.960938 1881.394531 1044.996094 1899.871094 1044.996094 C 1918.402344 1044.996094 1933.496094 1029.960938 1933.496094 1011.425781 L 1933.496094 360.15625 L 1933.441406 360.160156 C 1933.441406 351.578125 1930.175781 342.972656 1923.648438 336.433594 L 1597.167969 9.960938 C 1591.105469 3.8125 1582.65625 -0.0117188 1573.273438 -0.0117188 L 350.28125 -0.0117188 C 331.730469 -0.0117188 316.707031 15.011719 316.707031 33.566406 Z M 1933.503906 1902.820312 C 1933.503906 1884.289062 1918.410156 1869.308594 1899.875 1869.308594 C 1881.402344 1869.308594 1866.308594 1884.289062 1866.308594 1902.820312 L 1866.308594 2181.980469 L 383.855469 2181.980469 L 383.84375 1902.820312 C 383.84375 1884.289062 368.820312 1869.308594 350.285156 1869.308594 C 331.738281 1869.308594 316.710938 1884.289062 316.710938 1902.820312 L 316.710938 2215.546875 C 316.710938 2234.082031 331.738281 2249.117188 350.285156 2249.117188 L 1899.875 2249.117188 C 1918.410156 2249.117188 1933.503906 2234.082031 1933.503906 2215.546875 L 1933.503906 1902.820312 " fill-opacity="1" fill-rule="nonzero"/></g><path fill="#1a1313c2" d="M 1606.855469 33.578125 C 1606.855469 15.023438 1591.875 0 1573.285156 0 C 1554.753906 0 1539.714844 15.023438 1539.714844 33.578125 L 1539.714844 196.871094 C 1539.714844 251.03125 1561.863281 300.269531 1597.527344 335.949219 C 1633.195312 371.597656 1682.441406 393.746094 1736.640625 393.746094 L 1899.882812 393.746094 C 1918.414062 393.746094 1933.453125 378.699219 1933.453125 360.171875 C 1933.453125 341.636719 1918.414062 326.589844 1899.882812 326.589844 L 1736.640625 326.589844 C 1700.976562 326.589844 1668.570312 311.996094 1645.027344 288.457031 C 1621.480469 264.941406 1606.855469 232.503906 1606.855469 196.871094 L 1606.855469 33.578125 " fill-opacity="1" fill-rule="nonzero"/><g clip-path="url(#ed933afa19)"><path fill="#1a1313c2" d="M 164.964844 1869.308594 L 2085.269531 1869.308594 L 2085.269531 1045.007812 L 164.964844 1045.007812 Z M 2118.78125 1936.449219 L 131.394531 1936.449219 C 112.851562 1936.449219 97.824219 1921.414062 97.824219 1902.820312 L 97.824219 1011.4375 C 97.824219 992.90625 112.851562 977.871094 131.40625 977.871094 L 2118.789062 977.871094 C 2137.320312 977.871094 2152.417969 992.90625 2152.417969 1011.4375 L 2152.417969 1902.820312 C 2152.417969 1921.414062 2137.320312 1936.449219 2118.789062 1936.449219 " fill-opacity="1" fill-rule="nonzero"/></g><path fill="#1a1313c2" d="M 615.917969 384.777344 C 597.367188 384.777344 582.34375 399.808594 582.34375 418.335938 C 582.34375 436.867188 597.367188 451.890625 615.917969 451.890625 L 1339.164062 451.890625 C 1357.699219 451.890625 1372.734375 436.867188 1372.734375 418.335938 C 1372.734375 399.808594 1357.699219 384.777344 1339.164062 384.777344 L 615.917969 384.777344 " fill-opacity="1" fill-rule="nonzero"/><path fill="#1a1313c2" d="M 615.917969 569.929688 C 597.367188 569.929688 582.34375 584.949219 582.34375 603.484375 C 582.34375 622.015625 597.367188 637.050781 615.917969 637.050781 L 1634.292969 637.050781 C 1652.824219 637.050781 1667.859375 622.015625 1667.859375 603.484375 C 1667.859375 584.949219 1652.824219 569.929688 1634.292969 569.929688 L 615.917969 569.929688 " fill-opacity="1" fill-rule="nonzero"/><path fill="#1a1313c2" d="M 615.917969 755.066406 C 597.367188 755.066406 582.34375 770.105469 582.34375 788.636719 C 582.34375 807.167969 597.367188 822.207031 615.917969 822.207031 L 1634.292969 822.207031 C 1652.824219 822.207031 1667.859375 807.167969 1667.859375 788.636719 C 1667.859375 770.105469 1652.824219 755.066406 1634.292969 755.066406 L 615.917969 755.066406 " fill-opacity="1" fill-rule="nonzero"/></svg>