<svg xmlns="http://www.w3.org/2000/svg" xmlns:xlink="http://www.w3.org/1999/xlink" width="3000" zoomAndPan="magnify" viewBox="0 0 2250 2250.000011" height="3000" preserveAspectRatio="xMidYMid meet" version="1.0"><defs><clipPath id="88add5df5f"><path d="M 0.5 775 L 690 775 L 690 1474 L 0.5 1474 Z M 0.5 775 " clip-rule="nonzero"/></clipPath><clipPath id="5497c9caa1"><path d="M 1559 775 L 2249.5 775 L 2249.5 1474 L 1559 1474 Z M 1559 775 " clip-rule="nonzero"/></clipPath></defs><path fill="#e03c4cf0" d="M 853.417969 1551.035156 L 969.894531 1551.035156 C 983.074219 1551.035156 996.101562 1552.398438 1008.519531 1554.972656 L 1008.066406 1318.378906 L 852.964844 1318.378906 L 853.417969 1551.035156 " fill-opacity="1" fill-rule="nonzero"/><path fill="#e03c4cf0" d="M 698.464844 1628.585938 L 776.015625 1628.585938 L 775.410156 1318.378906 L 697.859375 1318.378906 L 698.464844 1628.585938 " fill-opacity="1" fill-rule="nonzero"/><path fill="#e03c4cf0" d="M 891.738281 1124.5 L 1124.394531 891.84375 L 1357.050781 1124.5 Z M 1165.289062 791.574219 C 1154.082031 781.273438 1139.539062 775.515625 1124.394531 775.515625 C 1109.097656 775.515625 1094.554688 781.273438 1083.347656 791.574219 L 625.15625 1214.472656 C 622.125 1217.351562 620.308594 1221.441406 620.308594 1225.679688 C 620.308594 1234.011719 627.125 1240.828125 635.453125 1240.828125 L 1613.332031 1240.828125 C 1621.664062 1240.828125 1628.480469 1234.011719 1628.480469 1225.679688 C 1628.480469 1221.441406 1626.664062 1217.351562 1623.632812 1214.472656 L 1165.289062 791.574219 " fill-opacity="1" fill-rule="nonzero"/><path fill="#e03c4cf0" d="M 1008.671875 387.757812 L 1086.222656 387.757812 L 1086.222656 426.535156 C 1086.222656 447.890625 1103.644531 465.308594 1125 465.308594 L 1163.777344 465.308594 L 1163.777344 426.535156 C 1163.777344 405.175781 1146.355469 387.757812 1125 387.757812 C 1060.777344 387.757812 1008.671875 335.652344 1008.671875 271.429688 L 1008.671875 155.105469 L 1086.222656 155.105469 L 1086.222656 77.550781 L 1163.777344 77.550781 L 1163.777344 162.222656 C 1208.761719 178.277344 1241.328125 220.992188 1241.328125 271.429688 L 1241.328125 310.207031 L 1163.777344 310.207031 L 1163.777344 271.429688 C 1163.777344 250.074219 1146.355469 232.65625 1125 232.65625 L 1086.222656 232.65625 L 1086.222656 271.429688 C 1086.222656 292.789062 1103.644531 310.207031 1125 310.207031 C 1189.222656 310.207031 1241.328125 362.3125 1241.328125 426.535156 L 1241.328125 542.863281 L 1163.777344 542.863281 L 1163.777344 620.414062 L 1086.222656 620.414062 L 1086.222656 535.742188 C 1041.238281 519.6875 1008.671875 476.972656 1008.671875 426.535156 Z M 1125 697.964844 C 1317.363281 697.964844 1473.984375 541.5 1473.984375 348.984375 C 1473.984375 156.464844 1317.363281 0 1125 0 C 932.636719 0 776.015625 156.464844 776.015625 348.984375 C 776.015625 541.5 932.636719 697.964844 1125 697.964844 " fill-opacity="1" fill-rule="nonzero"/><path fill="#e03c4cf0" d="M 1551.535156 1628.585938 L 1550.929688 1318.378906 L 1473.375 1318.378906 L 1473.984375 1628.433594 C 1473.984375 1628.585938 1473.984375 1628.585938 1473.984375 1628.585938 L 1551.535156 1628.585938 " fill-opacity="1" fill-rule="nonzero"/><g clip-path="url(#88add5df5f)"><path fill="#e03c4cf0" d="M 233.15625 1202.050781 L 233.15625 1163.277344 L 310.707031 1163.277344 L 310.707031 1202.050781 C 310.707031 1223.410156 328.125 1240.828125 349.484375 1240.828125 L 388.257812 1240.828125 L 388.257812 1202.050781 C 388.257812 1180.695312 370.839844 1163.277344 349.484375 1163.277344 C 285.261719 1163.277344 233.15625 1111.171875 233.15625 1046.949219 L 233.15625 930.621094 L 310.707031 930.621094 L 310.707031 853.070312 L 388.257812 853.070312 L 388.257812 937.738281 C 433.246094 953.796875 465.808594 996.507812 465.808594 1046.949219 L 465.808594 1085.722656 L 388.257812 1085.722656 L 388.257812 1046.949219 C 388.257812 1025.589844 370.839844 1008.171875 349.484375 1008.171875 L 310.707031 1008.171875 L 310.707031 1046.949219 C 310.707031 1068.304688 328.125 1085.722656 349.484375 1085.722656 C 413.707031 1085.722656 465.808594 1137.828125 465.808594 1202.050781 L 465.808594 1318.378906 L 388.257812 1318.378906 L 388.257812 1395.929688 L 310.707031 1395.929688 L 310.707031 1311.261719 C 265.71875 1295.203125 233.15625 1252.492188 233.15625 1202.050781 Z M 620.308594 1343.828125 L 620.308594 1316.863281 C 576.382812 1309.59375 542.757812 1271.574219 542.757812 1225.679688 C 542.757812 1199.929688 553.660156 1175.089844 572.59375 1157.519531 L 689.984375 1049.070312 C 655.144531 889.574219 515.1875 775.515625 349.484375 775.515625 C 157.117188 775.515625 0.5 931.984375 0.5 1124.5 C 0.5 1317.015625 157.117188 1473.484375 349.484375 1473.484375 C 455.8125 1473.484375 553.8125 1426.226562 620.308594 1343.828125 " fill-opacity="1" fill-rule="nonzero"/></g><path fill="#e03c4cf0" d="M 1396.28125 1551.035156 L 1395.824219 1318.378906 L 1240.722656 1318.378906 L 1241.175781 1554.972656 C 1253.746094 1552.398438 1266.773438 1551.035156 1280.101562 1551.035156 L 1396.28125 1551.035156 " fill-opacity="1" fill-rule="nonzero"/><path fill="#e03c4cf0" d="M 828.121094 2249 L 1086.222656 2249 L 1086.222656 1938.792969 L 921.125 1938.792969 L 828.121094 2249 " fill-opacity="1" fill-rule="nonzero"/><path fill="#e03c4cf0" d="M 1163.777344 1938.792969 L 1163.777344 2249 L 1421.878906 2249 L 1328.875 1938.792969 L 1163.777344 1938.792969 " fill-opacity="1" fill-rule="nonzero"/><g clip-path="url(#5497c9caa1)"><path fill="#e03c4cf0" d="M 2016.84375 1085.722656 L 1939.292969 1085.722656 L 1939.292969 1046.949219 C 1939.292969 1025.589844 1921.875 1008.171875 1900.515625 1008.171875 L 1861.742188 1008.171875 L 1861.742188 1046.949219 C 1861.742188 1068.304688 1879.160156 1085.722656 1900.515625 1085.722656 C 1964.738281 1085.722656 2016.84375 1137.828125 2016.84375 1202.050781 L 2016.84375 1318.378906 L 1939.292969 1318.378906 L 1939.292969 1395.929688 L 1861.742188 1395.929688 L 1861.742188 1311.261719 C 1816.753906 1295.203125 1784.191406 1252.492188 1784.191406 1202.050781 L 1784.191406 1163.277344 L 1861.742188 1163.277344 L 1861.742188 1202.050781 C 1861.742188 1223.410156 1879.160156 1240.828125 1900.515625 1240.828125 L 1939.292969 1240.828125 L 1939.292969 1202.050781 C 1939.292969 1180.695312 1921.875 1163.277344 1900.515625 1163.277344 C 1836.292969 1163.277344 1784.191406 1111.171875 1784.191406 1046.949219 L 1784.191406 930.621094 L 1861.742188 930.621094 L 1861.742188 853.070312 L 1939.292969 853.070312 L 1939.292969 937.738281 C 1984.277344 953.796875 2016.84375 996.507812 2016.84375 1046.949219 Z M 1900.515625 775.515625 C 1734.355469 775.515625 1594.25 889.875 1559.863281 1050.128906 L 1676.191406 1157.519531 C 1695.125 1175.089844 1706.03125 1199.929688 1706.03125 1225.679688 C 1706.03125 1271.574219 1672.40625 1309.59375 1628.480469 1316.863281 L 1628.480469 1342.464844 C 1695.277344 1425.617188 1793.582031 1473.484375 1900.515625 1473.484375 C 2092.882812 1473.484375 2249.5 1317.015625 2249.5 1124.5 C 2249.5 931.984375 2092.882812 775.515625 1900.515625 775.515625 " fill-opacity="1" fill-rule="nonzero"/></g><path fill="#e03c4cf0" d="M 1163.777344 1744.914062 L 1163.777344 1861.242188 L 1473.984375 1861.242188 C 1559.5625 1861.242188 1629.085938 1791.71875 1629.085938 1706.136719 L 1452.472656 1706.136719 C 1425.511719 1752.335938 1375.984375 1783.691406 1318.878906 1783.691406 L 1241.328125 1783.691406 L 1241.328125 1706.136719 L 1318.878906 1706.136719 C 1361.59375 1706.136719 1396.429688 1671.300781 1396.429688 1628.585938 L 1280.101562 1628.585938 C 1215.878906 1628.585938 1163.777344 1680.691406 1163.777344 1744.914062 " fill-opacity="1" fill-rule="nonzero"/><path fill="#e03c4cf0" d="M 969.894531 1628.585938 L 853.570312 1628.585938 C 853.570312 1671.300781 888.40625 1706.136719 931.121094 1706.136719 L 1008.671875 1706.136719 L 1008.671875 1783.691406 L 931.121094 1783.691406 C 874.015625 1783.691406 824.488281 1752.335938 797.527344 1706.136719 L 620.914062 1706.136719 C 620.914062 1791.71875 690.4375 1861.242188 776.015625 1861.242188 L 1086.222656 1861.242188 L 1086.222656 1744.914062 C 1086.222656 1680.691406 1034.117188 1628.585938 969.894531 1628.585938 " fill-opacity="1" fill-rule="nonzero"/><path fill="#e03c4cf0" d="M 1085.617188 1318.378906 L 1086.222656 1590.71875 C 1100.917969 1601.929688 1113.941406 1614.953125 1125 1629.796875 C 1136.058594 1614.953125 1149.082031 1601.929688 1163.777344 1590.871094 L 1163.167969 1318.378906 L 1085.617188 1318.378906 " fill-opacity="1" fill-rule="nonzero"/><path fill="#e03c4cf0" d="M 711.039062 247.953125 C 719.671875 212.511719 732.394531 178.734375 749.359375 147.226562 C 472.171875 253.859375 254.359375 471.671875 147.878906 748.707031 C 179.230469 731.894531 213.007812 719.171875 248.453125 710.539062 C 344.484375 507.117188 507.617188 343.984375 711.039062 247.953125 " fill-opacity="1" fill-rule="nonzero"/><path fill="#e03c4cf0" d="M 2001.546875 710.539062 C 2036.988281 719.171875 2070.765625 731.894531 2102.273438 748.859375 C 1995.640625 471.824219 1777.828125 253.859375 1500.640625 147.226562 C 1517.605469 178.582031 1530.328125 212.511719 1538.960938 247.953125 C 1742.382812 343.984375 1905.515625 507.117188 2001.546875 710.539062 " fill-opacity="1" fill-rule="nonzero"/><path fill="#e03c4cf0" d="M 248.605469 1538.464844 C 213.160156 1529.828125 179.230469 1517.105469 147.878906 1500.292969 C 258.90625 1788.992188 495.347656 2015.738281 787.226562 2115.253906 L 809.492188 2041.035156 C 563.203125 1956.210938 359.933594 1773.238281 248.605469 1538.464844 " fill-opacity="1" fill-rule="nonzero"/><path fill="#e03c4cf0" d="M 1440.507812 2041.035156 L 1462.773438 2115.253906 C 1754.652344 2015.738281 1991.09375 1788.992188 2102.121094 1500.292969 C 2070.765625 1517.105469 2036.839844 1529.828125 2001.242188 1538.464844 C 1890.066406 1773.238281 1686.796875 1956.210938 1440.507812 2041.035156 " fill-opacity="1" fill-rule="nonzero"/></svg>