<svg xmlns="http://www.w3.org/2000/svg" xmlns:xlink="http://www.w3.org/1999/xlink" width="3000" zoomAndPan="magnify" viewBox="0 0 2250 2250.000011" height="3000" preserveAspectRatio="xMidYMid meet" version="1.0"><defs><clipPath id="d78733a14d"><path d="M 0.5 0 L 2249.5 0 L 2249.5 2249 L 0.5 2249 Z M 0.5 0 " clip-rule="nonzero"/></clipPath></defs><g clip-path="url(#d78733a14d)"><path fill="#ffffff" d="M 1124.507812 202.773438 C 1424.605469 202.773438 1460.082031 203.761719 1578.839844 209.179688 C 1688.234375 214.109375 1747.859375 232.339844 1787.773438 248.109375 C 1840.007812 268.3125 1877.460938 292.953125 1916.878906 332.375 C 1956.300781 371.792969 1980.449219 409.246094 2001.144531 461.480469 C 2016.421875 500.902344 2034.652344 560.527344 2040.074219 670.414062 C 2045.492188 789.171875 2046.480469 824.648438 2046.480469 1124.746094 C 2046.480469 1424.84375 2045.492188 1460.324219 2040.074219 1579.082031 C 2035.144531 1688.476562 2016.914062 1748.101562 2001.144531 1788.015625 C 1980.941406 1840.25 1956.300781 1877.699219 1916.878906 1917.121094 C 1877.460938 1956.542969 1840.007812 1980.6875 1787.773438 2001.382812 C 1748.351562 2016.660156 1688.726562 2034.890625 1578.839844 2040.3125 C 1460.082031 2045.734375 1424.605469 2046.71875 1124.507812 2046.71875 C 824.410156 2046.71875 788.929688 2045.734375 670.171875 2040.3125 C 560.777344 2035.386719 501.152344 2017.152344 461.238281 2001.382812 C 409.003906 1981.179688 371.554688 1956.542969 332.132812 1917.121094 C 292.710938 1877.699219 268.566406 1840.25 247.871094 1788.015625 C 232.59375 1748.59375 214.363281 1688.96875 208.941406 1579.082031 C 203.519531 1460.324219 202.535156 1424.84375 202.535156 1124.746094 C 202.535156 824.648438 203.519531 789.171875 208.941406 670.414062 C 213.867188 561.019531 232.101562 501.394531 247.871094 461.480469 C 268.074219 409.246094 292.710938 371.792969 332.132812 332.375 C 371.554688 292.953125 409.003906 268.804688 461.238281 248.109375 C 500.660156 232.832031 560.285156 214.601562 670.171875 209.179688 C 788.929688 203.761719 824.410156 202.773438 1124.507812 202.773438 M 1124.507812 0.246094 C 818.988281 0.246094 781.046875 1.726562 660.8125 7.144531 C 541.066406 12.566406 459.269531 31.785156 387.816406 59.378906 C 313.902344 87.960938 251.320312 126.394531 188.738281 188.976562 C 126.648438 251.558594 88.210938 314.140625 59.632812 388.054688 C 32.035156 459.507812 12.820312 541.308594 7.398438 661.050781 C 1.976562 780.792969 0.5 819.230469 0.5 1124.253906 C 0.5 1429.769531 1.976562 1467.714844 7.398438 1587.949219 C 12.820312 1707.691406 32.035156 1789.492188 59.632812 1860.945312 C 88.210938 1934.859375 126.648438 1997.441406 189.230469 2060.023438 C 251.8125 2122.605469 314.394531 2161.042969 388.308594 2189.621094 C 459.761719 2217.21875 541.5625 2236.433594 661.304688 2241.855469 C 781.046875 2247.277344 819.484375 2248.753906 1125 2248.753906 C 1430.515625 2248.753906 1468.460938 2247.277344 1588.695312 2241.855469 C 1708.4375 2236.433594 1790.238281 2217.21875 1861.691406 2189.621094 C 1935.605469 2161.042969 1998.1875 2122.605469 2060.769531 2060.023438 C 2123.351562 1997.441406 2161.789062 1934.859375 2190.367188 1860.945312 C 2217.964844 1789.492188 2237.179688 1707.691406 2242.601562 1587.949219 C 2248.023438 1468.207031 2249.5 1429.769531 2249.5 1124.253906 C 2249.5 818.738281 2248.023438 780.792969 2242.601562 660.558594 C 2237.179688 540.816406 2217.964844 459.015625 2190.367188 387.5625 C 2161.789062 313.648438 2123.351562 251.066406 2060.769531 188.484375 C 1998.1875 125.902344 1935.605469 87.464844 1861.691406 58.886719 C 1790.238281 31.289062 1708.4375 12.074219 1588.695312 6.652344 C 1468.460938 1.726562 1430.023438 0.246094 1124.507812 0.246094 " fill-opacity="1" fill-rule="nonzero"/></g><path fill="#ffffff" d="M 1124.507812 547.222656 C 805.683594 547.222656 547.472656 805.433594 547.472656 1124.253906 C 547.472656 1443.074219 806.179688 1701.78125 1125 1701.78125 C 1443.820312 1701.78125 1702.527344 1443.570312 1702.527344 1124.253906 C 1702.03125 805.433594 1443.328125 547.222656 1124.507812 547.222656 M 1124.507812 1499.25 C 917.542969 1499.25 750.003906 1331.710938 750.003906 1124.746094 C 750.003906 917.785156 917.542969 750.242188 1124.507812 750.242188 C 1331.46875 750.242188 1499.011719 917.785156 1499.011719 1124.746094 C 1499.503906 1331.21875 1331.46875 1499.25 1124.507812 1499.25 " fill-opacity="1" fill-rule="nonzero"/><path fill="#ffffff" d="M 1859.71875 524.554688 C 1859.71875 598.960938 1799.109375 659.570312 1724.699219 659.570312 C 1650.292969 659.570312 1589.683594 598.960938 1589.683594 524.554688 C 1589.683594 450.144531 1650.292969 389.535156 1724.699219 389.535156 C 1799.109375 389.535156 1859.71875 449.652344 1859.71875 524.554688 " fill-opacity="1" fill-rule="nonzero"/></svg>