<svg xmlns="http://www.w3.org/2000/svg" xmlns:xlink="http://www.w3.org/1999/xlink" width="3000" zoomAndPan="magnify" viewBox="0 0 2250 2250.000011" height="3000" preserveAspectRatio="xMidYMid meet" version="1.0"><defs><clipPath id="6a8068d4dd"><path d="M 593.417969 2 L 1656.445312 2 L 1656.445312 2247 L 593.417969 2247 Z M 593.417969 2 " clip-rule="nonzero"/></clipPath></defs><g clip-path="url(#6a8068d4dd)"><path fill="#ffffff" d="M 1411.5 372.757812 L 1656.667969 372.757812 L 1656.667969 2.882812 L 1343.277344 2.882812 L 1343.277344 4.246094 C 931.570312 19.160156 847.070312 250.253906 839.582031 493.71875 L 838.816406 493.71875 L 838.816406 750.519531 L 593.605469 750.519531 L 593.605469 1120.617188 L 838.816406 1120.617188 L 838.816406 2246.238281 L 1278.957031 2246.238281 L 1278.957031 1120.617188 L 1594.390625 1120.617188 L 1656.671875 750.519531 L 1278.957031 750.519531 L 1278.957031 520.832031 C 1278.957031 439.132812 1333.445312 372.757812 1411.5 372.757812 Z M 1411.5 372.757812 " fill-opacity="1" fill-rule="nonzero"/></g></svg>