<svg xmlns="http://www.w3.org/2000/svg" xmlns:xlink="http://www.w3.org/1999/xlink" width="3000" zoomAndPan="magnify" viewBox="0 0 2250 2250.000011" height="3000" preserveAspectRatio="xMidYMid meet" version="1.0"><defs><clipPath id="1e084c1413"><path d="M 3 237 L 2248 237 L 2248 2060.765625 L 3 2060.765625 Z M 3 237 " clip-rule="nonzero"/></clipPath></defs><g clip-path="url(#1e084c1413)"><path fill="#ffffff" d="M 2017.238281 691.371094 C 2018.582031 711.160156 2018.582031 730.953125 2018.582031 750.878906 C 2018.582031 1359.214844 1555.476562 2060.761719 708.703125 2060.761719 L 708.703125 2060.402344 C 458.546875 2060.804688 213.597656 1989.179688 3.027344 1854.046875 C 39.378906 1858.402344 75.957031 1860.601562 112.621094 1860.691406 C 319.917969 1860.871094 521.289062 1791.308594 684.378906 1663.222656 C 487.359375 1659.5 314.621094 1531.054688 254.257812 1343.503906 C 323.285156 1356.835938 394.371094 1354.097656 462.09375 1335.5625 C 247.304688 1292.164062 92.785156 1103.449219 92.785156 884.304688 C 92.785156 882.285156 92.785156 880.402344 92.785156 878.46875 C 156.78125 914.105469 228.453125 933.894531 301.742188 936.09375 C 99.472656 800.964844 37.136719 531.871094 159.296875 321.433594 C 393.023438 609.0625 737.875 783.910156 1108.082031 802.402344 C 1070.964844 642.496094 1121.679688 474.964844 1241.28125 362.542969 C 1426.722656 188.234375 1718.34375 197.164062 1892.652344 382.515625 C 1995.742188 362.183594 2094.5625 324.351562 2184.996094 270.765625 C 2150.617188 377.351562 2078.722656 467.875 1982.636719 525.363281 C 2073.875 514.59375 2163.050781 490.179688 2247.015625 452.882812 C 2185.175781 545.515625 2107.308594 626.207031 2017.238281 691.371094 Z M 2017.238281 691.371094 " fill-opacity="1" fill-rule="nonzero"/></g></svg>